<?xml version="1.0" encoding="UTF-8" standalone="no"?>
<!DOCTYPE svg PUBLIC "-//W3C//DTD SVG 1.1//EN"
 "http://www.w3.org/Graphics/SVG/1.1/DTD/svg11.dtd">
<!-- Generated by graphviz version 2.43.0 (0)
 -->
<!-- Title: g Pages: 1 -->
<svg width="2106pt" height="421pt"
 viewBox="0.00 0.00 2106.24 420.70" xmlns="http://www.w3.org/2000/svg" xmlns:xlink="http://www.w3.org/1999/xlink">
<g id="graph0" class="graph" transform="scale(1 1) rotate(0) translate(4 416.7)">
<title>g</title>
<polygon fill="white" stroke="transparent" points="-4,4 -4,-416.7 2102.24,-416.7 2102.24,4 -4,4"/>
<!-- MAT2456 -->
<g id="node1" class="node">
<title>MAT2456</title>
<ellipse fill="none" stroke="blue" cx="464.09" cy="-385.83" rx="50.09" ry="18"/>
<text text-anchor="middle" x="464.09" y="-382.13" font-family="Times,serif" font-size="14.00" fill="blue">Cálculo IV</text>
</g>
<!-- PSI3213 -->
<g id="node2" class="node">
<title>PSI3213</title>
<ellipse fill="none" stroke="blue" cx="415.09" cy="-296.09" rx="85.29" ry="18"/>
<text text-anchor="middle" x="415.09" y="-292.39" font-family="Times,serif" font-size="14.00" fill="blue">Circuitos Elétricos II</text>
</g>
<!-- PSI3214 -->
<g id="node3" class="node">
<title>PSI3214</title>
<ellipse fill="none" stroke="blue" cx="508.09" cy="-206.35" rx="106.13" ry="26.74"/>
<text text-anchor="middle" x="508.09" y="-210.15" font-family="Times,serif" font-size="14.00" fill="blue">Laboratório de </text>
<text text-anchor="middle" x="508.09" y="-195.15" font-family="Times,serif" font-size="14.00" fill="blue"> Instrumentação Elétrica</text>
</g>
<!-- PSI3213&#45;&gt;PSI3214 -->
<g id="edge2" class="edge">
<title>PSI3213&#45;&gt;PSI3214</title>
<path fill="none" stroke="black" stroke-dasharray="5,2" d="M433.02,-278.17C444.6,-267.25 460.04,-252.68 473.9,-239.6"/>
<polygon fill="black" stroke="black" points="476.53,-241.93 481.41,-232.52 471.73,-236.84 476.53,-241.93"/>
</g>
<!-- PTC3314 -->
<g id="node22" class="node">
<title>PTC3314</title>
<ellipse fill="none" stroke="black" cx="318.09" cy="-206.35" rx="65.79" ry="18"/>
<text text-anchor="middle" x="318.09" y="-202.65" font-family="Times,serif" font-size="14.00">Ondas e Linhas</text>
</g>
<!-- PSI3213&#45;&gt;PTC3314 -->
<g id="edge13" class="edge">
<title>PSI3213&#45;&gt;PTC3314</title>
<path fill="none" stroke="black" d="M396.38,-278.17C381.53,-264.74 360.58,-245.79 344.09,-230.87"/>
<polygon fill="black" stroke="black" points="346.17,-228.03 336.4,-223.92 341.47,-233.22 346.17,-228.03"/>
</g>
<!-- 4323102 -->
<g id="node4" class="node">
<title>4323102</title>
<ellipse fill="none" stroke="blue" cx="780.09" cy="-385.83" rx="40.09" ry="18"/>
<text text-anchor="middle" x="780.09" y="-382.13" font-family="Times,serif" font-size="14.00" fill="blue">Física II</text>
</g>
<!-- PTC3313 -->
<g id="node5" class="node">
<title>PTC3313</title>
<ellipse fill="none" stroke="black" cx="950.09" cy="-385.83" rx="86.38" ry="18"/>
<text text-anchor="middle" x="950.09" y="-382.13" font-family="Times,serif" font-size="14.00">Sistemas de Controle</text>
</g>
<!-- PTC3312 -->
<g id="node21" class="node">
<title>PTC3312</title>
<ellipse fill="none" stroke="black" cx="950.09" cy="-296.09" rx="96.38" ry="18"/>
<text text-anchor="middle" x="950.09" y="-292.39" font-family="Times,serif" font-size="14.00">Laboratório de Controle</text>
</g>
<!-- PTC3313&#45;&gt;PTC3312 -->
<g id="edge12" class="edge">
<title>PTC3313&#45;&gt;PTC3312</title>
<path fill="none" stroke="black" d="M950.09,-367.5C950.09,-355.16 950.09,-338.34 950.09,-324.23"/>
<polygon fill="black" stroke="black" points="953.59,-324.09 950.09,-314.09 946.59,-324.09 953.59,-324.09"/>
</g>
<!-- PCS3438 -->
<g id="node6" class="node">
<title>PCS3438</title>
<ellipse fill="none" stroke="black" cx="1277.09" cy="-385.83" rx="86.38" ry="18"/>
<text text-anchor="middle" x="1277.09" y="-382.13" font-family="Times,serif" font-size="14.00">Inteligência Artificial</text>
</g>
<!-- PME3100 -->
<g id="node7" class="node">
<title>PME3100</title>
<ellipse fill="none" stroke="blue" cx="1477.09" cy="-385.83" rx="45.49" ry="18"/>
<text text-anchor="middle" x="1477.09" y="-382.13" font-family="Times,serif" font-size="14.00" fill="blue">Macânica</text>
</g>
<!-- MAP3121 -->
<g id="node8" class="node">
<title>MAP3121</title>
<ellipse fill="none" stroke="black" cx="1656.09" cy="-385.83" rx="90.52" ry="26.74"/>
<text text-anchor="middle" x="1656.09" y="-389.63" font-family="Times,serif" font-size="14.00">Métodos Numéricos</text>
<text text-anchor="middle" x="1656.09" y="-374.63" font-family="Times,serif" font-size="14.00"> Aplicados</text>
</g>
<!-- PSI3211 -->
<g id="node9" class="node">
<title>PSI3211</title>
<ellipse fill="none" stroke="black" cx="614.09" cy="-385.83" rx="81.79" ry="18"/>
<text text-anchor="middle" x="614.09" y="-382.13" font-family="Times,serif" font-size="14.00">Circuitos Elétricos I</text>
</g>
<!-- PSI3211&#45;&gt;PSI3213 -->
<g id="edge1" class="edge">
<title>PSI3211&#45;&gt;PSI3213</title>
<path fill="none" stroke="black" d="M578.97,-369.35C545.68,-354.67 495.54,-332.56 459.49,-316.67"/>
<polygon fill="black" stroke="black" points="460.75,-313.4 450.19,-312.57 457.93,-319.8 460.75,-313.4"/>
</g>
<!-- PEA3301 -->
<g id="node12" class="node">
<title>PEA3301</title>
<ellipse fill="none" stroke="black" cx="614.09" cy="-296.09" rx="96.33" ry="26.74"/>
<text text-anchor="middle" x="614.09" y="-299.89" font-family="Times,serif" font-size="14.00">Introdução aos</text>
<text text-anchor="middle" x="614.09" y="-284.89" font-family="Times,serif" font-size="14.00"> Sistemas de Potência</text>
</g>
<!-- PSI3211&#45;&gt;PEA3301 -->
<g id="edge9" class="edge">
<title>PSI3211&#45;&gt;PEA3301</title>
<path fill="none" stroke="black" d="M614.09,-367.5C614.09,-357.68 614.09,-345.04 614.09,-333.17"/>
<polygon fill="black" stroke="black" points="617.59,-333.04 614.09,-323.04 610.59,-333.04 617.59,-333.04"/>
</g>
<!-- PSI3321 -->
<g id="node15" class="node">
<title>PSI3321</title>
<ellipse fill="none" stroke="blue" cx="780.09" cy="-296.09" rx="51.99" ry="18"/>
<text text-anchor="middle" x="780.09" y="-292.39" font-family="Times,serif" font-size="14.00" fill="blue">Eletrônica I</text>
</g>
<!-- PSI3211&#45;&gt;PSI3321 -->
<g id="edge5" class="edge">
<title>PSI3211&#45;&gt;PSI3321</title>
<path fill="none" stroke="black" d="M644.15,-368.94C672.17,-354.13 714.02,-332.01 743.88,-316.23"/>
<polygon fill="black" stroke="black" points="745.52,-319.32 752.73,-311.55 742.25,-313.13 745.52,-319.32"/>
</g>
<!-- PTC3213 -->
<g id="node10" class="node">
<title>PTC3213</title>
<ellipse fill="none" stroke="orange" cx="224.09" cy="-296.09" rx="76.09" ry="18"/>
<text text-anchor="middle" x="224.09" y="-292.39" font-family="Times,serif" font-size="14.00" fill="orange">Eletromagnetismo</text>
</g>
<!-- PEA3306 -->
<g id="node17" class="node">
<title>PEA3306</title>
<ellipse fill="none" stroke="black" cx="118.09" cy="-206.35" rx="115.93" ry="26.74"/>
<text text-anchor="middle" x="118.09" y="-210.15" font-family="Times,serif" font-size="14.00">Converção Eletromecânica</text>
<text text-anchor="middle" x="118.09" y="-195.15" font-family="Times,serif" font-size="14.00"> de Energia</text>
</g>
<!-- PTC3213&#45;&gt;PEA3306 -->
<g id="edge6" class="edge">
<title>PTC3213&#45;&gt;PEA3306</title>
<path fill="none" stroke="black" d="M204.15,-278.59C190.65,-267.41 172.38,-252.29 156.14,-238.85"/>
<polygon fill="black" stroke="black" points="158.3,-236.09 148.37,-232.41 153.84,-241.49 158.3,-236.09"/>
</g>
<!-- PTC3213&#45;&gt;PTC3314 -->
<g id="edge14" class="edge">
<title>PTC3213&#45;&gt;PTC3314</title>
<path fill="none" stroke="black" d="M242.21,-278.17C256.61,-264.74 276.9,-245.79 292.88,-230.87"/>
<polygon fill="black" stroke="black" points="295.42,-233.3 300.34,-223.92 290.64,-228.18 295.42,-233.3"/>
</g>
<!-- PCS3225 -->
<g id="node11" class="node">
<title>PCS3225</title>
<ellipse fill="none" stroke="blue" cx="1148.09" cy="-296.09" rx="81.49" ry="18"/>
<text text-anchor="middle" x="1148.09" y="-292.39" font-family="Times,serif" font-size="14.00" fill="blue">Sistemas Digitais II</text>
</g>
<!-- PCS3412 -->
<g id="node13" class="node">
<title>PCS3412</title>
<ellipse fill="none" stroke="black" cx="1382.09" cy="-206.35" rx="113.27" ry="26.74"/>
<text text-anchor="middle" x="1382.09" y="-210.15" font-family="Times,serif" font-size="14.00">Organização e Arquitetura</text>
<text text-anchor="middle" x="1382.09" y="-195.15" font-family="Times,serif" font-size="14.00"> de Computadores I</text>
</g>
<!-- PCS3225&#45;&gt;PCS3412 -->
<g id="edge3" class="edge">
<title>PCS3225&#45;&gt;PCS3412</title>
<path fill="none" stroke="black" d="M1187.52,-280.31C1221.96,-267.39 1272.71,-248.36 1313.75,-232.97"/>
<polygon fill="black" stroke="black" points="1315.02,-236.24 1323.15,-229.45 1312.56,-229.68 1315.02,-236.24"/>
</g>
<!-- PCS3335 -->
<g id="node14" class="node">
<title>PCS3335</title>
<ellipse fill="none" stroke="black" cx="940.09" cy="-206.35" rx="87.18" ry="18"/>
<text text-anchor="middle" x="940.09" y="-202.65" font-family="Times,serif" font-size="14.00">Laboratório Digital A</text>
</g>
<!-- PCS3225&#45;&gt;PCS3335 -->
<g id="edge4" class="edge">
<title>PCS3225&#45;&gt;PCS3335</title>
<path fill="none" stroke="black" d="M1111.86,-279.81C1076.88,-265.05 1023.78,-242.65 985.89,-226.67"/>
<polygon fill="black" stroke="black" points="987.17,-223.41 976.6,-222.75 984.45,-229.86 987.17,-223.41"/>
</g>
<!-- PCS3216 -->
<g id="node27" class="node">
<title>PCS3216</title>
<ellipse fill="none" stroke="black" cx="1148.09" cy="-206.35" rx="102.88" ry="18"/>
<text text-anchor="middle" x="1148.09" y="-202.65" font-family="Times,serif" font-size="14.00">Sistemas de Programação</text>
</g>
<!-- PCS3225&#45;&gt;PCS3216 -->
<g id="edge19" class="edge">
<title>PCS3225&#45;&gt;PCS3216</title>
<path fill="none" stroke="black" d="M1148.09,-277.76C1148.09,-265.42 1148.09,-248.6 1148.09,-234.49"/>
<polygon fill="black" stroke="black" points="1151.59,-234.35 1148.09,-224.35 1144.59,-234.35 1151.59,-234.35"/>
</g>
<!-- PCS3422 -->
<g id="node25" class="node">
<title>PCS3422</title>
<ellipse fill="none" stroke="black" cx="1160.09" cy="-116.61" rx="113.27" ry="26.74"/>
<text text-anchor="middle" x="1160.09" y="-120.41" font-family="Times,serif" font-size="14.00">Organização e Arquitetura</text>
<text text-anchor="middle" x="1160.09" y="-105.41" font-family="Times,serif" font-size="14.00"> de Computadores II</text>
</g>
<!-- PCS3412&#45;&gt;PCS3422 -->
<g id="edge17" class="edge">
<title>PCS3412&#45;&gt;PCS3422</title>
<path fill="none" stroke="black" d="M1325.49,-182.98C1295.22,-171.02 1257.78,-156.22 1226.18,-143.73"/>
<polygon fill="black" stroke="black" points="1227.16,-140.36 1216.58,-139.94 1224.59,-146.87 1227.16,-140.36"/>
</g>
<!-- PCS3446 -->
<g id="node26" class="node">
<title>PCS3446</title>
<ellipse fill="none" stroke="black" cx="1382.09" cy="-116.61" rx="90.98" ry="18"/>
<text text-anchor="middle" x="1382.09" y="-112.91" font-family="Times,serif" font-size="14.00">Sistemas Operacionais</text>
</g>
<!-- PCS3412&#45;&gt;PCS3446 -->
<g id="edge18" class="edge">
<title>PCS3412&#45;&gt;PCS3446</title>
<path fill="none" stroke="black" d="M1382.09,-179.03C1382.09,-168.27 1382.09,-155.84 1382.09,-144.98"/>
<polygon fill="black" stroke="black" points="1385.59,-144.77 1382.09,-134.77 1378.59,-144.77 1385.59,-144.77"/>
</g>
<!-- PCS3432 -->
<g id="node28" class="node">
<title>PCS3432</title>
<ellipse fill="none" stroke="black" cx="950.09" cy="-116.61" rx="68.68" ry="26.74"/>
<text text-anchor="middle" x="950.09" y="-120.41" font-family="Times,serif" font-size="14.00">Laboratório de</text>
<text text-anchor="middle" x="950.09" y="-105.41" font-family="Times,serif" font-size="14.00"> Processadores</text>
</g>
<!-- PCS3412&#45;&gt;PCS3432 -->
<g id="edge21" class="edge">
<title>PCS3412&#45;&gt;PCS3432</title>
<path fill="none" stroke="black" stroke-dasharray="5,2" d="M1300.82,-187.55C1287.24,-184.74 1273.28,-181.95 1260.09,-179.48 1161.83,-161.11 1135.56,-165.62 1038.09,-143.48 1029.62,-141.56 1020.78,-139.28 1012.09,-136.89"/>
<polygon fill="black" stroke="black" points="1012.96,-133.5 1002.39,-134.15 1011.06,-140.24 1012.96,-133.5"/>
</g>
<!-- PCS3550 -->
<g id="node31" class="node">
<title>PCS3550</title>
<ellipse fill="none" stroke="black" cx="1552.09" cy="-116.61" rx="60.62" ry="26.74"/>
<text text-anchor="middle" x="1552.09" y="-120.41" font-family="Times,serif" font-size="14.00">Projeto de</text>
<text text-anchor="middle" x="1552.09" y="-105.41" font-family="Times,serif" font-size="14.00"> Formatura I</text>
</g>
<!-- PCS3412&#45;&gt;PCS3550 -->
<g id="edge24" class="edge">
<title>PCS3412&#45;&gt;PCS3550</title>
<path fill="none" stroke="black" d="M1428.09,-181.61C1451.81,-169.37 1480.7,-154.46 1504.62,-142.11"/>
<polygon fill="black" stroke="black" points="1506.24,-145.21 1513.52,-137.51 1503.03,-138.99 1506.24,-145.21"/>
</g>
<!-- PCS3335&#45;&gt;PCS3432 -->
<g id="edge20" class="edge">
<title>PCS3335&#45;&gt;PCS3432</title>
<path fill="none" stroke="black" d="M942.06,-188.02C943.18,-178.2 944.62,-165.56 945.97,-153.69"/>
<polygon fill="black" stroke="black" points="949.47,-153.89 947.13,-143.56 942.52,-153.1 949.47,-153.89"/>
</g>
<!-- PSI3322 -->
<g id="node19" class="node">
<title>PSI3322</title>
<ellipse fill="none" stroke="black" cx="780.09" cy="-206.35" rx="55.49" ry="18"/>
<text text-anchor="middle" x="780.09" y="-202.65" font-family="Times,serif" font-size="14.00">Eletrônica II</text>
</g>
<!-- PSI3321&#45;&gt;PSI3322 -->
<g id="edge10" class="edge">
<title>PSI3321&#45;&gt;PSI3322</title>
<path fill="none" stroke="black" d="M780.09,-277.76C780.09,-265.42 780.09,-248.6 780.09,-234.49"/>
<polygon fill="black" stroke="black" points="783.59,-234.35 780.09,-224.35 776.59,-234.35 783.59,-234.35"/>
</g>
<!-- PTC3307 -->
<g id="node16" class="node">
<title>PTC3307</title>
<ellipse fill="none" stroke="black" cx="1849.09" cy="-385.83" rx="72.59" ry="18"/>
<text text-anchor="middle" x="1849.09" y="-382.13" font-family="Times,serif" font-size="14.00">Sistemas e Sinais</text>
</g>
<!-- PTC3361 -->
<g id="node23" class="node">
<title>PTC3361</title>
<ellipse fill="none" stroke="black" cx="1973.09" cy="-296.09" rx="125.32" ry="26.74"/>
<text text-anchor="middle" x="1973.09" y="-299.89" font-family="Times,serif" font-size="14.00">Introdução ao Processamento</text>
<text text-anchor="middle" x="1973.09" y="-284.89" font-family="Times,serif" font-size="14.00"> Digital de Sinais</text>
</g>
<!-- PTC3307&#45;&gt;PTC3361 -->
<g id="edge15" class="edge">
<title>PTC3307&#45;&gt;PTC3361</title>
<path fill="none" stroke="black" d="M1872.12,-368.53C1888.23,-357.14 1910.23,-341.56 1929.59,-327.87"/>
<polygon fill="black" stroke="black" points="1931.84,-330.56 1937.98,-321.93 1927.8,-324.85 1931.84,-330.56"/>
</g>
<!-- PTC3360 -->
<g id="node24" class="node">
<title>PTC3360</title>
<ellipse fill="none" stroke="black" cx="1726.09" cy="-296.09" rx="103.89" ry="26.74"/>
<text text-anchor="middle" x="1726.09" y="-299.89" font-family="Times,serif" font-size="14.00">Introdução a</text>
<text text-anchor="middle" x="1726.09" y="-284.89" font-family="Times,serif" font-size="14.00"> Redes e Comunicações</text>
</g>
<!-- PTC3307&#45;&gt;PTC3360 -->
<g id="edge16" class="edge">
<title>PTC3307&#45;&gt;PTC3360</title>
<path fill="none" stroke="black" d="M1826.24,-368.53C1810.14,-357.05 1788.1,-341.33 1768.8,-327.56"/>
<polygon fill="black" stroke="black" points="1770.61,-324.55 1760.43,-321.59 1766.54,-330.25 1770.61,-324.55"/>
</g>
<!-- PEA3311 -->
<g id="node18" class="node">
<title>PEA3311</title>
<ellipse fill="none" stroke="black" cx="118.09" cy="-116.61" rx="118.17" ry="26.74"/>
<text text-anchor="middle" x="118.09" y="-120.41" font-family="Times,serif" font-size="14.00">Laboratório de Converção</text>
<text text-anchor="middle" x="118.09" y="-105.41" font-family="Times,serif" font-size="14.00"> Eletromecânica de Energia</text>
</g>
<!-- PEA3306&#45;&gt;PEA3311 -->
<g id="edge8" class="edge">
<title>PEA3306&#45;&gt;PEA3311</title>
<path fill="none" stroke="black" stroke-dasharray="5,2" d="M111.87,-179.5C111.37,-171.45 111.22,-162.42 111.43,-153.8"/>
<polygon fill="black" stroke="black" points="114.94,-153.72 111.86,-143.58 107.94,-153.42 114.94,-153.72"/>
</g>
<!-- PEA3311&#45;&gt;PEA3306 -->
<g id="edge7" class="edge">
<title>PEA3311&#45;&gt;PEA3306</title>
<path fill="none" stroke="black" stroke-dasharray="5,2" d="M124.31,-143.58C124.81,-151.64 124.95,-160.67 124.74,-169.29"/>
<polygon fill="black" stroke="black" points="121.23,-169.36 124.3,-179.5 128.23,-169.66 121.23,-169.36"/>
</g>
<!-- PSI3323 -->
<g id="node20" class="node">
<title>PSI3323</title>
<ellipse fill="none" stroke="black" cx="780.09" cy="-116.61" rx="68.68" ry="26.74"/>
<text text-anchor="middle" x="780.09" y="-120.41" font-family="Times,serif" font-size="14.00">Laboratório de</text>
<text text-anchor="middle" x="780.09" y="-105.41" font-family="Times,serif" font-size="14.00"> Eletrônica I</text>
</g>
<!-- PSI3322&#45;&gt;PSI3323 -->
<g id="edge11" class="edge">
<title>PSI3322&#45;&gt;PSI3323</title>
<path fill="none" stroke="black" stroke-dasharray="5,2" d="M780.09,-188.02C780.09,-178.2 780.09,-165.56 780.09,-153.69"/>
<polygon fill="black" stroke="black" points="783.59,-153.56 780.09,-143.56 776.59,-153.56 783.59,-153.56"/>
</g>
<!-- PCS3414 -->
<g id="node29" class="node">
<title>PCS3414</title>
<ellipse fill="none" stroke="black" cx="1726.09" cy="-206.35" rx="102.88" ry="18"/>
<text text-anchor="middle" x="1726.09" y="-202.65" font-family="Times,serif" font-size="14.00">Redes de Computadores I</text>
</g>
<!-- PTC3360&#45;&gt;PCS3414 -->
<g id="edge22" class="edge">
<title>PTC3360&#45;&gt;PCS3414</title>
<path fill="none" stroke="black" d="M1726.09,-268.77C1726.09,-258.01 1726.09,-245.58 1726.09,-234.72"/>
<polygon fill="black" stroke="black" points="1729.59,-234.51 1726.09,-224.51 1722.59,-234.51 1729.59,-234.51"/>
</g>
<!-- PCS3434 -->
<g id="node30" class="node">
<title>PCS3434</title>
<ellipse fill="none" stroke="black" cx="1726.09" cy="-116.61" rx="94.51" ry="26.74"/>
<text text-anchor="middle" x="1726.09" y="-120.41" font-family="Times,serif" font-size="14.00">Laboratório de Redes</text>
<text text-anchor="middle" x="1726.09" y="-105.41" font-family="Times,serif" font-size="14.00"> de Computadores</text>
</g>
<!-- PCS3414&#45;&gt;PCS3434 -->
<g id="edge23" class="edge">
<title>PCS3414&#45;&gt;PCS3434</title>
<path fill="none" stroke="black" d="M1726.09,-188.02C1726.09,-178.2 1726.09,-165.56 1726.09,-153.69"/>
<polygon fill="black" stroke="black" points="1729.59,-153.56 1726.09,-143.56 1722.59,-153.56 1729.59,-153.56"/>
</g>
<!-- PCS3414&#45;&gt;PCS3550 -->
<g id="edge25" class="edge">
<title>PCS3414&#45;&gt;PCS3550</title>
<path fill="none" stroke="black" d="M1693.77,-189.05C1667.49,-175.8 1630.03,-156.91 1600.22,-141.88"/>
<polygon fill="black" stroke="black" points="1601.74,-138.73 1591.24,-137.35 1598.59,-144.98 1601.74,-138.73"/>
</g>
<!-- PCS3424 -->
<g id="node32" class="node">
<title>PCS3424</title>
<ellipse fill="none" stroke="black" cx="1934.09" cy="-116.61" rx="94.78" ry="18"/>
<text text-anchor="middle" x="1934.09" y="-112.91" font-family="Times,serif" font-size="14.00">Redes Computadores II</text>
</g>
<!-- PCS3414&#45;&gt;PCS3424 -->
<g id="edge26" class="edge">
<title>PCS3414&#45;&gt;PCS3424</title>
<path fill="none" stroke="black" d="M1763.75,-189.46C1798.47,-174.82 1850.1,-153.04 1887.41,-137.3"/>
<polygon fill="black" stroke="black" points="1889.2,-140.35 1897.05,-133.23 1886.48,-133.9 1889.2,-140.35"/>
</g>
<!-- PCS3560 -->
<g id="node33" class="node">
<title>PCS3560</title>
<ellipse fill="none" stroke="black" cx="1552.09" cy="-26.87" rx="63.78" ry="26.74"/>
<text text-anchor="middle" x="1552.09" y="-30.67" font-family="Times,serif" font-size="14.00">Projeto de</text>
<text text-anchor="middle" x="1552.09" y="-15.67" font-family="Times,serif" font-size="14.00"> Formatura II</text>
</g>
<!-- PCS3550&#45;&gt;PCS3560 -->
<g id="edge27" class="edge">
<title>PCS3550&#45;&gt;PCS3560</title>
<path fill="none" stroke="black" d="M1552.09,-89.29C1552.09,-81.32 1552.09,-72.43 1552.09,-63.94"/>
<polygon fill="black" stroke="black" points="1555.59,-63.87 1552.09,-53.87 1548.59,-63.87 1555.59,-63.87"/>
</g>
</g>
</svg>
