<?xml version="1.0" encoding="UTF-8" standalone="no"?>
<!DOCTYPE svg PUBLIC "-//W3C//DTD SVG 1.1//EN"
 "http://www.w3.org/Graphics/SVG/1.1/DTD/svg11.dtd">
<!-- Generated by graphviz version 2.43.0 (0)
 -->
<!-- Title: g Pages: 1 -->
<svg width="2108pt" height="421pt"
 viewBox="0.00 0.00 2107.90 420.70" xmlns="http://www.w3.org/2000/svg" xmlns:xlink="http://www.w3.org/1999/xlink">
<g id="graph0" class="graph" transform="scale(1 1) rotate(0) translate(4 416.7)">
<title>g</title>
<polygon fill="white" stroke="transparent" points="-4,4 -4,-416.7 2103.9,-416.7 2103.9,4 -4,4"/>
<!-- PME3344 -->
<g id="node1" class="node">
<title>PME3344</title>
<ellipse fill="none" stroke="green" cx="100.74" cy="-385.83" rx="100.98" ry="18"/>
<text text-anchor="middle" x="100.74" y="-382.13" font-family="Times,serif" font-size="14.00" fill="green">Termodinâmica Aplicada</text>
</g>
<!-- PME3332 -->
<g id="node2" class="node">
<title>PME3332</title>
<ellipse fill="none" stroke="blue" cx="308.74" cy="-385.83" rx="89.08" ry="18"/>
<text text-anchor="middle" x="308.74" y="-382.13" font-family="Times,serif" font-size="14.00" fill="blue">Mecânica dos Flúidos</text>
</g>
<!-- MAT2456 -->
<g id="node3" class="node">
<title>MAT2456</title>
<ellipse fill="none" stroke="blue" cx="465.74" cy="-385.83" rx="50.09" ry="18"/>
<text text-anchor="middle" x="465.74" y="-382.13" font-family="Times,serif" font-size="14.00" fill="blue">Cálculo IV</text>
</g>
<!-- PSI3213 -->
<g id="node4" class="node">
<title>PSI3213</title>
<ellipse fill="none" stroke="blue" cx="416.74" cy="-296.09" rx="85.29" ry="18"/>
<text text-anchor="middle" x="416.74" y="-292.39" font-family="Times,serif" font-size="14.00" fill="blue">Circuitos Elétricos II</text>
</g>
<!-- PSI3214 -->
<g id="node5" class="node">
<title>PSI3214</title>
<ellipse fill="none" stroke="blue" cx="509.74" cy="-206.35" rx="106.13" ry="26.74"/>
<text text-anchor="middle" x="509.74" y="-210.15" font-family="Times,serif" font-size="14.00" fill="blue">Laboratório de </text>
<text text-anchor="middle" x="509.74" y="-195.15" font-family="Times,serif" font-size="14.00" fill="blue"> Instrumentação Elétrica</text>
</g>
<!-- PSI3213&#45;&gt;PSI3214 -->
<g id="edge2" class="edge">
<title>PSI3213&#45;&gt;PSI3214</title>
<path fill="none" stroke="black" stroke-dasharray="5,2" d="M434.67,-278.17C446.25,-267.25 461.69,-252.68 475.55,-239.6"/>
<polygon fill="black" stroke="black" points="478.19,-241.93 483.06,-232.52 473.38,-236.84 478.19,-241.93"/>
</g>
<!-- PTC3314 -->
<g id="node24" class="node">
<title>PTC3314</title>
<ellipse fill="none" stroke="black" cx="319.74" cy="-206.35" rx="65.79" ry="18"/>
<text text-anchor="middle" x="319.74" y="-202.65" font-family="Times,serif" font-size="14.00">Ondas e Linhas</text>
</g>
<!-- PSI3213&#45;&gt;PTC3314 -->
<g id="edge13" class="edge">
<title>PSI3213&#45;&gt;PTC3314</title>
<path fill="none" stroke="black" d="M398.04,-278.17C383.18,-264.74 362.24,-245.79 345.75,-230.87"/>
<polygon fill="black" stroke="black" points="347.82,-228.03 338.06,-223.92 343.13,-233.22 347.82,-228.03"/>
</g>
<!-- 4323102 -->
<g id="node6" class="node">
<title>4323102</title>
<ellipse fill="none" stroke="blue" cx="781.74" cy="-385.83" rx="40.09" ry="18"/>
<text text-anchor="middle" x="781.74" y="-382.13" font-family="Times,serif" font-size="14.00" fill="blue">Física II</text>
</g>
<!-- PTC3313 -->
<g id="node7" class="node">
<title>PTC3313</title>
<ellipse fill="none" stroke="blue" cx="951.74" cy="-385.83" rx="86.38" ry="18"/>
<text text-anchor="middle" x="951.74" y="-382.13" font-family="Times,serif" font-size="14.00" fill="blue">Sistemas de Controle</text>
</g>
<!-- PTC3312 -->
<g id="node23" class="node">
<title>PTC3312</title>
<ellipse fill="none" stroke="blue" cx="951.74" cy="-296.09" rx="96.38" ry="18"/>
<text text-anchor="middle" x="951.74" y="-292.39" font-family="Times,serif" font-size="14.00" fill="blue">Laboratório de Controle</text>
</g>
<!-- PTC3313&#45;&gt;PTC3312 -->
<g id="edge12" class="edge">
<title>PTC3313&#45;&gt;PTC3312</title>
<path fill="none" stroke="black" d="M951.74,-367.5C951.74,-355.16 951.74,-338.34 951.74,-324.23"/>
<polygon fill="black" stroke="black" points="955.24,-324.09 951.74,-314.09 948.24,-324.09 955.24,-324.09"/>
</g>
<!-- PCS3438 -->
<g id="node8" class="node">
<title>PCS3438</title>
<ellipse fill="none" stroke="black" cx="1278.74" cy="-385.83" rx="86.38" ry="18"/>
<text text-anchor="middle" x="1278.74" y="-382.13" font-family="Times,serif" font-size="14.00">Inteligência Artificial</text>
</g>
<!-- PME3100 -->
<g id="node9" class="node">
<title>PME3100</title>
<ellipse fill="none" stroke="green" cx="1478.74" cy="-385.83" rx="45.49" ry="18"/>
<text text-anchor="middle" x="1478.74" y="-382.13" font-family="Times,serif" font-size="14.00" fill="green">Macânica</text>
</g>
<!-- MAP3121 -->
<g id="node10" class="node">
<title>MAP3121</title>
<ellipse fill="none" stroke="black" cx="1657.74" cy="-385.83" rx="90.52" ry="26.74"/>
<text text-anchor="middle" x="1657.74" y="-389.63" font-family="Times,serif" font-size="14.00">Métodos Numéricos</text>
<text text-anchor="middle" x="1657.74" y="-374.63" font-family="Times,serif" font-size="14.00"> Aplicados</text>
</g>
<!-- PSI3211 -->
<g id="node11" class="node">
<title>PSI3211</title>
<ellipse fill="none" stroke="black" cx="615.74" cy="-385.83" rx="81.79" ry="18"/>
<text text-anchor="middle" x="615.74" y="-382.13" font-family="Times,serif" font-size="14.00">Circuitos Elétricos I</text>
</g>
<!-- PSI3211&#45;&gt;PSI3213 -->
<g id="edge1" class="edge">
<title>PSI3211&#45;&gt;PSI3213</title>
<path fill="none" stroke="black" d="M580.62,-369.35C547.33,-354.67 497.2,-332.56 461.15,-316.67"/>
<polygon fill="black" stroke="black" points="462.41,-313.4 451.84,-312.57 459.58,-319.8 462.41,-313.4"/>
</g>
<!-- PEA3301 -->
<g id="node14" class="node">
<title>PEA3301</title>
<ellipse fill="none" stroke="black" cx="615.74" cy="-296.09" rx="96.33" ry="26.74"/>
<text text-anchor="middle" x="615.74" y="-299.89" font-family="Times,serif" font-size="14.00">Introdução aos</text>
<text text-anchor="middle" x="615.74" y="-284.89" font-family="Times,serif" font-size="14.00"> Sistemas de Potência</text>
</g>
<!-- PSI3211&#45;&gt;PEA3301 -->
<g id="edge9" class="edge">
<title>PSI3211&#45;&gt;PEA3301</title>
<path fill="none" stroke="black" d="M615.74,-367.5C615.74,-357.68 615.74,-345.04 615.74,-333.17"/>
<polygon fill="black" stroke="black" points="619.24,-333.04 615.74,-323.04 612.24,-333.04 619.24,-333.04"/>
</g>
<!-- PSI3321 -->
<g id="node17" class="node">
<title>PSI3321</title>
<ellipse fill="none" stroke="blue" cx="781.74" cy="-296.09" rx="51.99" ry="18"/>
<text text-anchor="middle" x="781.74" y="-292.39" font-family="Times,serif" font-size="14.00" fill="blue">Eletrônica I</text>
</g>
<!-- PSI3211&#45;&gt;PSI3321 -->
<g id="edge5" class="edge">
<title>PSI3211&#45;&gt;PSI3321</title>
<path fill="none" stroke="black" d="M645.8,-368.94C673.83,-354.13 715.68,-332.01 745.53,-316.23"/>
<polygon fill="black" stroke="black" points="747.18,-319.32 754.38,-311.55 743.9,-313.13 747.18,-319.32"/>
</g>
<!-- PTC3213 -->
<g id="node12" class="node">
<title>PTC3213</title>
<ellipse fill="none" stroke="purple" cx="225.74" cy="-296.09" rx="76.09" ry="18"/>
<text text-anchor="middle" x="225.74" y="-292.39" font-family="Times,serif" font-size="14.00" fill="purple">Eletromagnetismo</text>
</g>
<!-- PEA3306 -->
<g id="node19" class="node">
<title>PEA3306</title>
<ellipse fill="none" stroke="black" cx="119.74" cy="-206.35" rx="115.93" ry="26.74"/>
<text text-anchor="middle" x="119.74" y="-210.15" font-family="Times,serif" font-size="14.00">Converção Eletromecânica</text>
<text text-anchor="middle" x="119.74" y="-195.15" font-family="Times,serif" font-size="14.00"> de Energia</text>
</g>
<!-- PTC3213&#45;&gt;PEA3306 -->
<g id="edge6" class="edge">
<title>PTC3213&#45;&gt;PEA3306</title>
<path fill="none" stroke="black" d="M205.8,-278.59C192.3,-267.41 174.03,-252.29 157.8,-238.85"/>
<polygon fill="black" stroke="black" points="159.96,-236.09 150.02,-232.41 155.49,-241.49 159.96,-236.09"/>
</g>
<!-- PTC3213&#45;&gt;PTC3314 -->
<g id="edge14" class="edge">
<title>PTC3213&#45;&gt;PTC3314</title>
<path fill="none" stroke="black" d="M243.87,-278.17C258.26,-264.74 278.56,-245.79 294.54,-230.87"/>
<polygon fill="black" stroke="black" points="297.07,-233.3 301.99,-223.92 292.29,-228.18 297.07,-233.3"/>
</g>
<!-- PCS3225 -->
<g id="node13" class="node">
<title>PCS3225</title>
<ellipse fill="none" stroke="blue" cx="1149.74" cy="-296.09" rx="81.49" ry="18"/>
<text text-anchor="middle" x="1149.74" y="-292.39" font-family="Times,serif" font-size="14.00" fill="blue">Sistemas Digitais II</text>
</g>
<!-- PCS3412 -->
<g id="node15" class="node">
<title>PCS3412</title>
<ellipse fill="none" stroke="black" cx="1383.74" cy="-206.35" rx="113.27" ry="26.74"/>
<text text-anchor="middle" x="1383.74" y="-210.15" font-family="Times,serif" font-size="14.00">Organização e Arquitetura</text>
<text text-anchor="middle" x="1383.74" y="-195.15" font-family="Times,serif" font-size="14.00"> de Computadores I</text>
</g>
<!-- PCS3225&#45;&gt;PCS3412 -->
<g id="edge3" class="edge">
<title>PCS3225&#45;&gt;PCS3412</title>
<path fill="none" stroke="black" d="M1189.17,-280.31C1223.61,-267.39 1274.37,-248.36 1315.41,-232.97"/>
<polygon fill="black" stroke="black" points="1316.67,-236.24 1324.81,-229.45 1314.21,-229.68 1316.67,-236.24"/>
</g>
<!-- PCS3335 -->
<g id="node16" class="node">
<title>PCS3335</title>
<ellipse fill="none" stroke="black" cx="941.74" cy="-206.35" rx="87.18" ry="18"/>
<text text-anchor="middle" x="941.74" y="-202.65" font-family="Times,serif" font-size="14.00">Laboratório Digital A</text>
</g>
<!-- PCS3225&#45;&gt;PCS3335 -->
<g id="edge4" class="edge">
<title>PCS3225&#45;&gt;PCS3335</title>
<path fill="none" stroke="black" d="M1113.51,-279.81C1078.53,-265.05 1025.43,-242.65 987.54,-226.67"/>
<polygon fill="black" stroke="black" points="988.83,-223.41 978.25,-222.75 986.11,-229.86 988.83,-223.41"/>
</g>
<!-- PCS3216 -->
<g id="node29" class="node">
<title>PCS3216</title>
<ellipse fill="none" stroke="black" cx="1149.74" cy="-206.35" rx="102.88" ry="18"/>
<text text-anchor="middle" x="1149.74" y="-202.65" font-family="Times,serif" font-size="14.00">Sistemas de Programação</text>
</g>
<!-- PCS3225&#45;&gt;PCS3216 -->
<g id="edge19" class="edge">
<title>PCS3225&#45;&gt;PCS3216</title>
<path fill="none" stroke="black" d="M1149.74,-277.76C1149.74,-265.42 1149.74,-248.6 1149.74,-234.49"/>
<polygon fill="black" stroke="black" points="1153.24,-234.35 1149.74,-224.35 1146.24,-234.35 1153.24,-234.35"/>
</g>
<!-- PCS3422 -->
<g id="node27" class="node">
<title>PCS3422</title>
<ellipse fill="none" stroke="black" cx="1161.74" cy="-116.61" rx="113.27" ry="26.74"/>
<text text-anchor="middle" x="1161.74" y="-120.41" font-family="Times,serif" font-size="14.00">Organização e Arquitetura</text>
<text text-anchor="middle" x="1161.74" y="-105.41" font-family="Times,serif" font-size="14.00"> de Computadores II</text>
</g>
<!-- PCS3412&#45;&gt;PCS3422 -->
<g id="edge17" class="edge">
<title>PCS3412&#45;&gt;PCS3422</title>
<path fill="none" stroke="black" d="M1327.15,-182.98C1296.88,-171.02 1259.44,-156.22 1227.84,-143.73"/>
<polygon fill="black" stroke="black" points="1228.82,-140.36 1218.23,-139.94 1226.25,-146.87 1228.82,-140.36"/>
</g>
<!-- PCS3446 -->
<g id="node28" class="node">
<title>PCS3446</title>
<ellipse fill="none" stroke="black" cx="1383.74" cy="-116.61" rx="90.98" ry="18"/>
<text text-anchor="middle" x="1383.74" y="-112.91" font-family="Times,serif" font-size="14.00">Sistemas Operacionais</text>
</g>
<!-- PCS3412&#45;&gt;PCS3446 -->
<g id="edge18" class="edge">
<title>PCS3412&#45;&gt;PCS3446</title>
<path fill="none" stroke="black" d="M1383.74,-179.03C1383.74,-168.27 1383.74,-155.84 1383.74,-144.98"/>
<polygon fill="black" stroke="black" points="1387.24,-144.77 1383.74,-134.77 1380.24,-144.77 1387.24,-144.77"/>
</g>
<!-- PCS3432 -->
<g id="node30" class="node">
<title>PCS3432</title>
<ellipse fill="none" stroke="black" cx="951.74" cy="-116.61" rx="68.68" ry="26.74"/>
<text text-anchor="middle" x="951.74" y="-120.41" font-family="Times,serif" font-size="14.00">Laboratório de</text>
<text text-anchor="middle" x="951.74" y="-105.41" font-family="Times,serif" font-size="14.00"> Processadores</text>
</g>
<!-- PCS3412&#45;&gt;PCS3432 -->
<g id="edge21" class="edge">
<title>PCS3412&#45;&gt;PCS3432</title>
<path fill="none" stroke="black" stroke-dasharray="5,2" d="M1302.48,-187.55C1288.9,-184.74 1274.94,-181.95 1261.74,-179.48 1163.49,-161.11 1137.21,-165.62 1039.74,-143.48 1031.28,-141.56 1022.43,-139.28 1013.75,-136.89"/>
<polygon fill="black" stroke="black" points="1014.62,-133.5 1004.04,-134.15 1012.72,-140.24 1014.62,-133.5"/>
</g>
<!-- PCS3550 -->
<g id="node33" class="node">
<title>PCS3550</title>
<ellipse fill="none" stroke="black" cx="1553.74" cy="-116.61" rx="60.62" ry="26.74"/>
<text text-anchor="middle" x="1553.74" y="-120.41" font-family="Times,serif" font-size="14.00">Projeto de</text>
<text text-anchor="middle" x="1553.74" y="-105.41" font-family="Times,serif" font-size="14.00"> Formatura I</text>
</g>
<!-- PCS3412&#45;&gt;PCS3550 -->
<g id="edge24" class="edge">
<title>PCS3412&#45;&gt;PCS3550</title>
<path fill="none" stroke="black" d="M1429.75,-181.61C1453.46,-169.37 1482.35,-154.46 1506.27,-142.11"/>
<polygon fill="black" stroke="black" points="1507.9,-145.21 1515.18,-137.51 1504.69,-138.99 1507.9,-145.21"/>
</g>
<!-- PCS3335&#45;&gt;PCS3432 -->
<g id="edge20" class="edge">
<title>PCS3335&#45;&gt;PCS3432</title>
<path fill="none" stroke="black" d="M943.72,-188.02C944.83,-178.2 946.28,-165.56 947.63,-153.69"/>
<polygon fill="black" stroke="black" points="951.13,-153.89 948.78,-143.56 944.17,-153.1 951.13,-153.89"/>
</g>
<!-- PSI3322 -->
<g id="node21" class="node">
<title>PSI3322</title>
<ellipse fill="none" stroke="black" cx="781.74" cy="-206.35" rx="55.49" ry="18"/>
<text text-anchor="middle" x="781.74" y="-202.65" font-family="Times,serif" font-size="14.00">Eletrônica II</text>
</g>
<!-- PSI3321&#45;&gt;PSI3322 -->
<g id="edge10" class="edge">
<title>PSI3321&#45;&gt;PSI3322</title>
<path fill="none" stroke="black" d="M781.74,-277.76C781.74,-265.42 781.74,-248.6 781.74,-234.49"/>
<polygon fill="black" stroke="black" points="785.24,-234.35 781.74,-224.35 778.24,-234.35 785.24,-234.35"/>
</g>
<!-- PTC3307 -->
<g id="node18" class="node">
<title>PTC3307</title>
<ellipse fill="none" stroke="black" cx="1850.74" cy="-385.83" rx="72.59" ry="18"/>
<text text-anchor="middle" x="1850.74" y="-382.13" font-family="Times,serif" font-size="14.00">Sistemas e Sinais</text>
</g>
<!-- PTC3361 -->
<g id="node25" class="node">
<title>PTC3361</title>
<ellipse fill="none" stroke="black" cx="1974.74" cy="-296.09" rx="125.32" ry="26.74"/>
<text text-anchor="middle" x="1974.74" y="-299.89" font-family="Times,serif" font-size="14.00">Introdução ao Processamento</text>
<text text-anchor="middle" x="1974.74" y="-284.89" font-family="Times,serif" font-size="14.00"> Digital de Sinais</text>
</g>
<!-- PTC3307&#45;&gt;PTC3361 -->
<g id="edge15" class="edge">
<title>PTC3307&#45;&gt;PTC3361</title>
<path fill="none" stroke="black" d="M1873.77,-368.53C1889.88,-357.14 1911.89,-341.56 1931.25,-327.87"/>
<polygon fill="black" stroke="black" points="1933.5,-330.56 1939.64,-321.93 1929.45,-324.85 1933.5,-330.56"/>
</g>
<!-- PTC3360 -->
<g id="node26" class="node">
<title>PTC3360</title>
<ellipse fill="none" stroke="black" cx="1727.74" cy="-296.09" rx="103.89" ry="26.74"/>
<text text-anchor="middle" x="1727.74" y="-299.89" font-family="Times,serif" font-size="14.00">Introdução a</text>
<text text-anchor="middle" x="1727.74" y="-284.89" font-family="Times,serif" font-size="14.00"> Redes e Comunicações</text>
</g>
<!-- PTC3307&#45;&gt;PTC3360 -->
<g id="edge16" class="edge">
<title>PTC3307&#45;&gt;PTC3360</title>
<path fill="none" stroke="black" d="M1827.89,-368.53C1811.8,-357.05 1789.76,-341.33 1770.45,-327.56"/>
<polygon fill="black" stroke="black" points="1772.26,-324.55 1762.09,-321.59 1768.19,-330.25 1772.26,-324.55"/>
</g>
<!-- PEA3311 -->
<g id="node20" class="node">
<title>PEA3311</title>
<ellipse fill="none" stroke="black" cx="119.74" cy="-116.61" rx="118.17" ry="26.74"/>
<text text-anchor="middle" x="119.74" y="-120.41" font-family="Times,serif" font-size="14.00">Laboratório de Converção</text>
<text text-anchor="middle" x="119.74" y="-105.41" font-family="Times,serif" font-size="14.00"> Eletromecânica de Energia</text>
</g>
<!-- PEA3306&#45;&gt;PEA3311 -->
<g id="edge8" class="edge">
<title>PEA3306&#45;&gt;PEA3311</title>
<path fill="none" stroke="black" stroke-dasharray="5,2" d="M113.52,-179.5C113.02,-171.45 112.87,-162.42 113.08,-153.8"/>
<polygon fill="black" stroke="black" points="116.59,-153.72 113.52,-143.58 109.6,-153.42 116.59,-153.72"/>
</g>
<!-- PEA3311&#45;&gt;PEA3306 -->
<g id="edge7" class="edge">
<title>PEA3311&#45;&gt;PEA3306</title>
<path fill="none" stroke="black" stroke-dasharray="5,2" d="M125.96,-143.58C126.47,-151.64 126.61,-160.67 126.4,-169.29"/>
<polygon fill="black" stroke="black" points="122.89,-169.36 125.96,-179.5 129.88,-169.66 122.89,-169.36"/>
</g>
<!-- PSI3323 -->
<g id="node22" class="node">
<title>PSI3323</title>
<ellipse fill="none" stroke="black" cx="781.74" cy="-116.61" rx="68.68" ry="26.74"/>
<text text-anchor="middle" x="781.74" y="-120.41" font-family="Times,serif" font-size="14.00">Laboratório de</text>
<text text-anchor="middle" x="781.74" y="-105.41" font-family="Times,serif" font-size="14.00"> Eletrônica I</text>
</g>
<!-- PSI3322&#45;&gt;PSI3323 -->
<g id="edge11" class="edge">
<title>PSI3322&#45;&gt;PSI3323</title>
<path fill="none" stroke="black" stroke-dasharray="5,2" d="M781.74,-188.02C781.74,-178.2 781.74,-165.56 781.74,-153.69"/>
<polygon fill="black" stroke="black" points="785.24,-153.56 781.74,-143.56 778.24,-153.56 785.24,-153.56"/>
</g>
<!-- PCS3414 -->
<g id="node31" class="node">
<title>PCS3414</title>
<ellipse fill="none" stroke="black" cx="1727.74" cy="-206.35" rx="102.88" ry="18"/>
<text text-anchor="middle" x="1727.74" y="-202.65" font-family="Times,serif" font-size="14.00">Redes de Computadores I</text>
</g>
<!-- PTC3360&#45;&gt;PCS3414 -->
<g id="edge22" class="edge">
<title>PTC3360&#45;&gt;PCS3414</title>
<path fill="none" stroke="black" d="M1727.74,-268.77C1727.74,-258.01 1727.74,-245.58 1727.74,-234.72"/>
<polygon fill="black" stroke="black" points="1731.24,-234.51 1727.74,-224.51 1724.24,-234.51 1731.24,-234.51"/>
</g>
<!-- PCS3434 -->
<g id="node32" class="node">
<title>PCS3434</title>
<ellipse fill="none" stroke="black" cx="1727.74" cy="-116.61" rx="94.51" ry="26.74"/>
<text text-anchor="middle" x="1727.74" y="-120.41" font-family="Times,serif" font-size="14.00">Laboratório de Redes</text>
<text text-anchor="middle" x="1727.74" y="-105.41" font-family="Times,serif" font-size="14.00"> de Computadores</text>
</g>
<!-- PCS3414&#45;&gt;PCS3434 -->
<g id="edge23" class="edge">
<title>PCS3414&#45;&gt;PCS3434</title>
<path fill="none" stroke="black" d="M1727.74,-188.02C1727.74,-178.2 1727.74,-165.56 1727.74,-153.69"/>
<polygon fill="black" stroke="black" points="1731.24,-153.56 1727.74,-143.56 1724.24,-153.56 1731.24,-153.56"/>
</g>
<!-- PCS3414&#45;&gt;PCS3550 -->
<g id="edge25" class="edge">
<title>PCS3414&#45;&gt;PCS3550</title>
<path fill="none" stroke="black" d="M1695.42,-189.05C1669.15,-175.8 1631.68,-156.91 1601.88,-141.88"/>
<polygon fill="black" stroke="black" points="1603.4,-138.73 1592.89,-137.35 1600.25,-144.98 1603.4,-138.73"/>
</g>
<!-- PCS3424 -->
<g id="node34" class="node">
<title>PCS3424</title>
<ellipse fill="none" stroke="black" cx="1935.74" cy="-116.61" rx="94.78" ry="18"/>
<text text-anchor="middle" x="1935.74" y="-112.91" font-family="Times,serif" font-size="14.00">Redes Computadores II</text>
</g>
<!-- PCS3414&#45;&gt;PCS3424 -->
<g id="edge26" class="edge">
<title>PCS3414&#45;&gt;PCS3424</title>
<path fill="none" stroke="black" d="M1765.41,-189.46C1800.12,-174.82 1851.75,-153.04 1889.07,-137.3"/>
<polygon fill="black" stroke="black" points="1890.85,-140.35 1898.7,-133.23 1888.13,-133.9 1890.85,-140.35"/>
</g>
<!-- PCS3560 -->
<g id="node35" class="node">
<title>PCS3560</title>
<ellipse fill="none" stroke="black" cx="1553.74" cy="-26.87" rx="63.78" ry="26.74"/>
<text text-anchor="middle" x="1553.74" y="-30.67" font-family="Times,serif" font-size="14.00">Projeto de</text>
<text text-anchor="middle" x="1553.74" y="-15.67" font-family="Times,serif" font-size="14.00"> Formatura II</text>
</g>
<!-- PCS3550&#45;&gt;PCS3560 -->
<g id="edge27" class="edge">
<title>PCS3550&#45;&gt;PCS3560</title>
<path fill="none" stroke="black" d="M1553.74,-89.29C1553.74,-81.32 1553.74,-72.43 1553.74,-63.94"/>
<polygon fill="black" stroke="black" points="1557.24,-63.87 1553.74,-53.87 1550.24,-63.87 1557.24,-63.87"/>
</g>
</g>
</svg>
