<?xml version="1.0" encoding="UTF-8" standalone="no"?>
<!DOCTYPE svg PUBLIC "-//W3C//DTD SVG 1.1//EN"
 "http://www.w3.org/Graphics/SVG/1.1/DTD/svg11.dtd">
<!-- Generated by graphviz version 2.43.0 (0)
 -->
<!-- Title: g Pages: 1 -->
<svg width="2335pt" height="194pt"
 viewBox="0.00 0.00 2335.00 194.00" xmlns="http://www.w3.org/2000/svg" xmlns:xlink="http://www.w3.org/1999/xlink">
<g id="graph0" class="graph" transform="scale(1 1) rotate(0) translate(4 190)">
<title>g</title>
<polygon fill="white" stroke="transparent" points="-4,4 -4,-190 2331,-190 2331,4 -4,4"/>
<!-- PTC3313 -->
<g id="node1" class="node">
<title>PTC3313</title>
<polygon fill="none" stroke="blue" points="170,-185 0,-185 0,-149 170,-149 170,-185"/>
<text text-anchor="middle" x="85" y="-163.3" font-family="Times,serif" font-size="14.00" fill="blue">Sistemas de Controle</text>
</g>
<!-- PEA3301 -->
<g id="node2" class="node">
<title>PEA3301</title>
<polygon fill="none" stroke="black" points="361.5,-186 188.5,-186 188.5,-148 361.5,-148 361.5,-186"/>
<text text-anchor="middle" x="275" y="-170.8" font-family="Times,serif" font-size="14.00">Introdução aos</text>
<text text-anchor="middle" x="275" y="-155.8" font-family="Times,serif" font-size="14.00"> Sistemas de Potência</text>
</g>
<!-- PCS3412 -->
<g id="node3" class="node">
<title>PCS3412</title>
<polygon fill="none" stroke="black" points="586,-186 380,-186 380,-148 586,-148 586,-186"/>
<text text-anchor="middle" x="483" y="-170.8" font-family="Times,serif" font-size="14.00">Organização e Arquitetura</text>
<text text-anchor="middle" x="483" y="-155.8" font-family="Times,serif" font-size="14.00"> de Computadores I</text>
</g>
<!-- PCS3422 -->
<g id="node13" class="node">
<title>PCS3422</title>
<polygon fill="none" stroke="black" points="290,-112 84,-112 84,-74 290,-74 290,-112"/>
<text text-anchor="middle" x="187" y="-96.8" font-family="Times,serif" font-size="14.00">Organização e Arquitetura</text>
<text text-anchor="middle" x="187" y="-81.8" font-family="Times,serif" font-size="14.00"> de Computadores II</text>
</g>
<!-- PCS3412&#45;&gt;PCS3422 -->
<g id="edge3" class="edge">
<title>PCS3412&#45;&gt;PCS3422</title>
<path fill="none" stroke="black" d="M408.69,-147.92C366.82,-137.74 314.4,-124.99 271.04,-114.44"/>
<polygon fill="black" stroke="black" points="271.63,-110.98 261.09,-112.02 269.97,-117.79 271.63,-110.98"/>
</g>
<!-- PCS3446 -->
<g id="node14" class="node">
<title>PCS3446</title>
<polygon fill="none" stroke="black" points="487.5,-111 308.5,-111 308.5,-75 487.5,-75 487.5,-111"/>
<text text-anchor="middle" x="398" y="-89.3" font-family="Times,serif" font-size="14.00">Sistemas Operacionais</text>
</g>
<!-- PCS3412&#45;&gt;PCS3446 -->
<g id="edge4" class="edge">
<title>PCS3412&#45;&gt;PCS3446</title>
<path fill="none" stroke="black" d="M461.55,-147.83C450.76,-138.69 437.55,-127.5 425.98,-117.7"/>
<polygon fill="black" stroke="black" points="428.16,-114.96 418.27,-111.17 423.64,-120.31 428.16,-114.96"/>
</g>
<!-- PCS3432 -->
<g id="node15" class="node">
<title>PCS3432</title>
<polygon fill="none" stroke="black" points="630.5,-112 505.5,-112 505.5,-74 630.5,-74 630.5,-112"/>
<text text-anchor="middle" x="568" y="-96.8" font-family="Times,serif" font-size="14.00">Laboratório de</text>
<text text-anchor="middle" x="568" y="-81.8" font-family="Times,serif" font-size="14.00"> Processadores</text>
</g>
<!-- PCS3412&#45;&gt;PCS3432 -->
<g id="edge5" class="edge">
<title>PCS3412&#45;&gt;PCS3432</title>
<path fill="none" stroke="black" stroke-dasharray="5,2" d="M504.45,-147.83C514.82,-139.05 527.42,-128.37 538.66,-118.85"/>
<polygon fill="black" stroke="black" points="541.19,-121.3 546.56,-112.16 536.67,-115.96 541.19,-121.3"/>
</g>
<!-- PCS3550 -->
<g id="node18" class="node">
<title>PCS3550</title>
<polygon fill="none" stroke="black" points="755.5,-112 648.5,-112 648.5,-74 755.5,-74 755.5,-112"/>
<text text-anchor="middle" x="702" y="-96.8" font-family="Times,serif" font-size="14.00">Projeto de</text>
<text text-anchor="middle" x="702" y="-81.8" font-family="Times,serif" font-size="14.00"> Formatura I</text>
</g>
<!-- PCS3412&#45;&gt;PCS3550 -->
<g id="edge7" class="edge">
<title>PCS3412&#45;&gt;PCS3550</title>
<path fill="none" stroke="black" d="M537.98,-147.92C568.52,-137.88 606.67,-125.34 638.48,-114.88"/>
<polygon fill="black" stroke="black" points="639.73,-118.16 648.13,-111.71 637.54,-111.51 639.73,-118.16"/>
</g>
<!-- PCS3216 -->
<g id="node4" class="node">
<title>PCS3216</title>
<polygon fill="none" stroke="black" points="1186.5,-185 983.5,-185 983.5,-149 1186.5,-149 1186.5,-185"/>
<text text-anchor="middle" x="1085" y="-163.3" font-family="Times,serif" font-size="14.00">Sistemas de Programação</text>
</g>
<!-- PME3332 -->
<g id="node5" class="node">
<title>PME3332</title>
<polygon fill="none" stroke="blue" points="1396,-185 1226,-185 1226,-149 1396,-149 1396,-185"/>
<text text-anchor="middle" x="1311" y="-163.3" font-family="Times,serif" font-size="14.00" fill="blue">Mecânica dos Flúidos</text>
</g>
<!-- PTC3307 -->
<g id="node6" class="node">
<title>PTC3307</title>
<polygon fill="none" stroke="black" points="1568.5,-185 1425.5,-185 1425.5,-149 1568.5,-149 1568.5,-185"/>
<text text-anchor="middle" x="1497" y="-163.3" font-family="Times,serif" font-size="14.00">Sistemas e Sinais</text>
</g>
<!-- PTC3361 -->
<g id="node11" class="node">
<title>PTC3361</title>
<polygon fill="none" stroke="blue" points="1392,-112 1164,-112 1164,-74 1392,-74 1392,-112"/>
<text text-anchor="middle" x="1278" y="-96.8" font-family="Times,serif" font-size="14.00" fill="blue">Introdução ao Processamento</text>
<text text-anchor="middle" x="1278" y="-81.8" font-family="Times,serif" font-size="14.00" fill="blue"> Digital de Sinais</text>
</g>
<!-- PTC3307&#45;&gt;PTC3361 -->
<g id="edge1" class="edge">
<title>PTC3307&#45;&gt;PTC3361</title>
<path fill="none" stroke="black" d="M1445.1,-148.94C1414.49,-138.87 1375.5,-126.05 1342.87,-115.33"/>
<polygon fill="black" stroke="black" points="1343.56,-111.87 1332.97,-112.07 1341.38,-118.52 1343.56,-111.87"/>
</g>
<!-- PTC3360 -->
<g id="node12" class="node">
<title>PTC3360</title>
<polygon fill="none" stroke="blue" points="1594,-112 1410,-112 1410,-74 1594,-74 1594,-112"/>
<text text-anchor="middle" x="1502" y="-96.8" font-family="Times,serif" font-size="14.00" fill="blue">Introdução a</text>
<text text-anchor="middle" x="1502" y="-81.8" font-family="Times,serif" font-size="14.00" fill="blue"> Redes e Comunicações</text>
</g>
<!-- PTC3307&#45;&gt;PTC3360 -->
<g id="edge2" class="edge">
<title>PTC3307&#45;&gt;PTC3360</title>
<path fill="none" stroke="black" d="M1498.18,-148.94C1498.74,-140.99 1499.41,-131.31 1500.03,-122.31"/>
<polygon fill="black" stroke="black" points="1503.53,-122.42 1500.74,-112.2 1496.55,-121.93 1503.53,-122.42"/>
</g>
<!-- PME3344 -->
<g id="node7" class="node">
<title>PME3344</title>
<polygon fill="none" stroke="blue" points="1777.5,-185 1586.5,-185 1586.5,-149 1777.5,-149 1777.5,-185"/>
<text text-anchor="middle" x="1682" y="-163.3" font-family="Times,serif" font-size="14.00" fill="blue">Termodinâmica Aplicada</text>
</g>
<!-- PEA3306 -->
<g id="node8" class="node">
<title>PEA3306</title>
<polygon fill="none" stroke="black" points="2002.5,-186 1795.5,-186 1795.5,-148 2002.5,-148 2002.5,-186"/>
<text text-anchor="middle" x="1899" y="-170.8" font-family="Times,serif" font-size="14.00">Converção Eletromecânica</text>
<text text-anchor="middle" x="1899" y="-155.8" font-family="Times,serif" font-size="14.00"> de Energia</text>
</g>
<!-- PCS3438 -->
<g id="node9" class="node">
<title>PCS3438</title>
<polygon fill="none" stroke="blue" points="2187,-185 2021,-185 2021,-149 2187,-149 2187,-185"/>
<text text-anchor="middle" x="2104" y="-163.3" font-family="Times,serif" font-size="14.00" fill="blue">Inteligência Artificial</text>
</g>
<!-- PSI3323 -->
<g id="node10" class="node">
<title>PSI3323</title>
<polygon fill="none" stroke="blue" points="2327,-186 2205,-186 2205,-148 2327,-148 2327,-186"/>
<text text-anchor="middle" x="2266" y="-170.8" font-family="Times,serif" font-size="14.00" fill="blue">Laboratório de</text>
<text text-anchor="middle" x="2266" y="-155.8" font-family="Times,serif" font-size="14.00" fill="blue"> Eletrônica</text>
</g>
<!-- PCS3414 -->
<g id="node16" class="node">
<title>PCS3414</title>
<polygon fill="none" stroke="black" points="959,-185 759,-185 759,-149 959,-149 959,-185"/>
<text text-anchor="middle" x="859" y="-163.3" font-family="Times,serif" font-size="14.00">Redes de Computadores I</text>
</g>
<!-- PCS3434 -->
<g id="node17" class="node">
<title>PCS3434</title>
<polygon fill="none" stroke="black" points="944,-112 774,-112 774,-74 944,-74 944,-112"/>
<text text-anchor="middle" x="859" y="-96.8" font-family="Times,serif" font-size="14.00">Laboratório de Redes</text>
<text text-anchor="middle" x="859" y="-81.8" font-family="Times,serif" font-size="14.00"> de Computadores</text>
</g>
<!-- PCS3414&#45;&gt;PCS3434 -->
<g id="edge6" class="edge">
<title>PCS3414&#45;&gt;PCS3434</title>
<path fill="none" stroke="black" stroke-dasharray="5,2" d="M859,-148.94C859,-140.99 859,-131.31 859,-122.31"/>
<polygon fill="black" stroke="black" points="862.5,-122.2 859,-112.2 855.5,-122.2 862.5,-122.2"/>
</g>
<!-- PCS3414&#45;&gt;PCS3550 -->
<g id="edge8" class="edge">
<title>PCS3414&#45;&gt;PCS3550</title>
<path fill="none" stroke="black" d="M821.79,-148.94C800.51,-139.18 773.58,-126.82 750.64,-116.3"/>
<polygon fill="black" stroke="black" points="751.96,-113.06 741.41,-112.07 749.04,-119.42 751.96,-113.06"/>
</g>
<!-- PCS3424 -->
<g id="node19" class="node">
<title>PCS3424</title>
<polygon fill="none" stroke="black" points="1146,-111 962,-111 962,-75 1146,-75 1146,-111"/>
<text text-anchor="middle" x="1054" y="-89.3" font-family="Times,serif" font-size="14.00">Redes Computadores II</text>
</g>
<!-- PCS3414&#45;&gt;PCS3424 -->
<g id="edge9" class="edge">
<title>PCS3414&#45;&gt;PCS3424</title>
<path fill="none" stroke="black" d="M905.21,-148.94C933.04,-138.66 968.66,-125.51 998.07,-114.65"/>
<polygon fill="black" stroke="black" points="999.61,-117.81 1007.78,-111.07 997.19,-111.25 999.61,-117.81"/>
</g>
<!-- PCS3560 -->
<g id="node20" class="node">
<title>PCS3560</title>
<polygon fill="none" stroke="black" points="758,-38 646,-38 646,0 758,0 758,-38"/>
<text text-anchor="middle" x="702" y="-22.8" font-family="Times,serif" font-size="14.00">Projeto de</text>
<text text-anchor="middle" x="702" y="-7.8" font-family="Times,serif" font-size="14.00"> Formatura II</text>
</g>
<!-- PCS3550&#45;&gt;PCS3560 -->
<g id="edge10" class="edge">
<title>PCS3550&#45;&gt;PCS3560</title>
<path fill="none" stroke="black" d="M702,-73.83C702,-66.13 702,-56.97 702,-48.42"/>
<polygon fill="black" stroke="black" points="705.5,-48.41 702,-38.41 698.5,-48.41 705.5,-48.41"/>
</g>
</g>
</svg>
