<?xml version="1.0" encoding="UTF-8" standalone="no"?>
<!DOCTYPE svg PUBLIC "-//W3C//DTD SVG 1.1//EN"
 "http://www.w3.org/Graphics/SVG/1.1/DTD/svg11.dtd">
<!-- Generated by graphviz version 2.43.0 (0)
 -->
<!-- Title: g Pages: 1 -->
<svg width="2152pt" height="421pt"
 viewBox="0.00 0.00 2152.24 420.70" xmlns="http://www.w3.org/2000/svg" xmlns:xlink="http://www.w3.org/1999/xlink">
<g id="graph0" class="graph" transform="scale(1 1) rotate(0) translate(4 416.7)">
<title>g</title>
<polygon fill="white" stroke="transparent" points="-4,4 -4,-416.7 2148.24,-416.7 2148.24,4 -4,4"/>
<!-- PME3344 -->
<g id="node1" class="node">
<title>PME3344</title>
<ellipse fill="none" stroke="green" cx="295.09" cy="-385.83" rx="100.98" ry="18"/>
<text text-anchor="middle" x="295.09" y="-382.13" font-family="Times,serif" font-size="14.00" fill="green">Termodinâmica Aplicada</text>
</g>
<!-- MAT2456 -->
<g id="node2" class="node">
<title>MAT2456</title>
<ellipse fill="none" stroke="blue" cx="464.09" cy="-385.83" rx="50.09" ry="18"/>
<text text-anchor="middle" x="464.09" y="-382.13" font-family="Times,serif" font-size="14.00" fill="blue">Cálculo IV</text>
</g>
<!-- PSI3213 -->
<g id="node3" class="node">
<title>PSI3213</title>
<ellipse fill="none" stroke="blue" cx="415.09" cy="-296.09" rx="85.29" ry="18"/>
<text text-anchor="middle" x="415.09" y="-292.39" font-family="Times,serif" font-size="14.00" fill="blue">Circuitos Elétricos II</text>
</g>
<!-- PSI3214 -->
<g id="node4" class="node">
<title>PSI3214</title>
<ellipse fill="none" stroke="blue" cx="508.09" cy="-206.35" rx="106.13" ry="26.74"/>
<text text-anchor="middle" x="508.09" y="-210.15" font-family="Times,serif" font-size="14.00" fill="blue">Laboratório de </text>
<text text-anchor="middle" x="508.09" y="-195.15" font-family="Times,serif" font-size="14.00" fill="blue"> Instrumentação Elétrica</text>
</g>
<!-- PSI3213&#45;&gt;PSI3214 -->
<g id="edge2" class="edge">
<title>PSI3213&#45;&gt;PSI3214</title>
<path fill="none" stroke="black" stroke-dasharray="5,2" d="M433.02,-278.17C444.6,-267.25 460.04,-252.68 473.9,-239.6"/>
<polygon fill="black" stroke="black" points="476.53,-241.93 481.41,-232.52 471.73,-236.84 476.53,-241.93"/>
</g>
<!-- PTC3314 -->
<g id="node24" class="node">
<title>PTC3314</title>
<ellipse fill="none" stroke="black" cx="318.09" cy="-206.35" rx="65.79" ry="18"/>
<text text-anchor="middle" x="318.09" y="-202.65" font-family="Times,serif" font-size="14.00">Ondas e Linhas</text>
</g>
<!-- PSI3213&#45;&gt;PTC3314 -->
<g id="edge13" class="edge">
<title>PSI3213&#45;&gt;PTC3314</title>
<path fill="none" stroke="black" d="M396.38,-278.17C381.53,-264.74 360.58,-245.79 344.09,-230.87"/>
<polygon fill="black" stroke="black" points="346.17,-228.03 336.4,-223.92 341.47,-233.22 346.17,-228.03"/>
</g>
<!-- 4323102 -->
<g id="node5" class="node">
<title>4323102</title>
<ellipse fill="none" stroke="blue" cx="778.09" cy="-385.83" rx="40.09" ry="18"/>
<text text-anchor="middle" x="778.09" y="-382.13" font-family="Times,serif" font-size="14.00" fill="blue">Física II</text>
</g>
<!-- PTC3313 -->
<g id="node6" class="node">
<title>PTC3313</title>
<ellipse fill="none" stroke="blue" cx="946.09" cy="-385.83" rx="86.38" ry="18"/>
<text text-anchor="middle" x="946.09" y="-382.13" font-family="Times,serif" font-size="14.00" fill="blue">Sistemas de Controle</text>
</g>
<!-- PTC3312 -->
<g id="node23" class="node">
<title>PTC3312</title>
<ellipse fill="none" stroke="blue" cx="946.09" cy="-296.09" rx="96.38" ry="18"/>
<text text-anchor="middle" x="946.09" y="-292.39" font-family="Times,serif" font-size="14.00" fill="blue">Laboratório de Controle</text>
</g>
<!-- PTC3313&#45;&gt;PTC3312 -->
<g id="edge12" class="edge">
<title>PTC3313&#45;&gt;PTC3312</title>
<path fill="none" stroke="black" d="M946.09,-367.5C946.09,-355.16 946.09,-338.34 946.09,-324.23"/>
<polygon fill="black" stroke="black" points="949.59,-324.09 946.09,-314.09 942.59,-324.09 949.59,-324.09"/>
</g>
<!-- PME3332 -->
<g id="node7" class="node">
<title>PME3332</title>
<ellipse fill="none" stroke="blue" cx="1139.09" cy="-385.83" rx="89.08" ry="18"/>
<text text-anchor="middle" x="1139.09" y="-382.13" font-family="Times,serif" font-size="14.00" fill="blue">Mecânica dos Flúidos</text>
</g>
<!-- PCS3438 -->
<g id="node8" class="node">
<title>PCS3438</title>
<ellipse fill="none" stroke="black" cx="1332.09" cy="-385.83" rx="86.38" ry="18"/>
<text text-anchor="middle" x="1332.09" y="-382.13" font-family="Times,serif" font-size="14.00">Inteligência Artificial</text>
</g>
<!-- PME3100 -->
<g id="node9" class="node">
<title>PME3100</title>
<ellipse fill="none" stroke="green" cx="1482.09" cy="-385.83" rx="45.49" ry="18"/>
<text text-anchor="middle" x="1482.09" y="-382.13" font-family="Times,serif" font-size="14.00" fill="green">Macânica</text>
</g>
<!-- MAP3121 -->
<g id="node10" class="node">
<title>MAP3121</title>
<ellipse fill="none" stroke="black" cx="1636.09" cy="-385.83" rx="90.52" ry="26.74"/>
<text text-anchor="middle" x="1636.09" y="-389.63" font-family="Times,serif" font-size="14.00">Métodos Numéricos</text>
<text text-anchor="middle" x="1636.09" y="-374.63" font-family="Times,serif" font-size="14.00"> Aplicados</text>
</g>
<!-- PSI3211 -->
<g id="node11" class="node">
<title>PSI3211</title>
<ellipse fill="none" stroke="black" cx="614.09" cy="-385.83" rx="81.79" ry="18"/>
<text text-anchor="middle" x="614.09" y="-382.13" font-family="Times,serif" font-size="14.00">Circuitos Elétricos I</text>
</g>
<!-- PSI3211&#45;&gt;PSI3213 -->
<g id="edge1" class="edge">
<title>PSI3211&#45;&gt;PSI3213</title>
<path fill="none" stroke="black" d="M578.97,-369.35C545.68,-354.67 495.54,-332.56 459.49,-316.67"/>
<polygon fill="black" stroke="black" points="460.75,-313.4 450.19,-312.57 457.93,-319.8 460.75,-313.4"/>
</g>
<!-- PEA3301 -->
<g id="node14" class="node">
<title>PEA3301</title>
<ellipse fill="none" stroke="black" cx="614.09" cy="-296.09" rx="96.33" ry="26.74"/>
<text text-anchor="middle" x="614.09" y="-299.89" font-family="Times,serif" font-size="14.00">Introdução aos</text>
<text text-anchor="middle" x="614.09" y="-284.89" font-family="Times,serif" font-size="14.00"> Sistemas de Potência</text>
</g>
<!-- PSI3211&#45;&gt;PEA3301 -->
<g id="edge9" class="edge">
<title>PSI3211&#45;&gt;PEA3301</title>
<path fill="none" stroke="black" d="M614.09,-367.5C614.09,-357.68 614.09,-345.04 614.09,-333.17"/>
<polygon fill="black" stroke="black" points="617.59,-333.04 614.09,-323.04 610.59,-333.04 617.59,-333.04"/>
</g>
<!-- PSI3321 -->
<g id="node17" class="node">
<title>PSI3321</title>
<ellipse fill="none" stroke="blue" cx="780.09" cy="-296.09" rx="51.99" ry="18"/>
<text text-anchor="middle" x="780.09" y="-292.39" font-family="Times,serif" font-size="14.00" fill="blue">Eletrônica I</text>
</g>
<!-- PSI3211&#45;&gt;PSI3321 -->
<g id="edge5" class="edge">
<title>PSI3211&#45;&gt;PSI3321</title>
<path fill="none" stroke="black" d="M644.15,-368.94C672.17,-354.13 714.02,-332.01 743.88,-316.23"/>
<polygon fill="black" stroke="black" points="745.52,-319.32 752.73,-311.55 742.25,-313.13 745.52,-319.32"/>
</g>
<!-- PTC3213 -->
<g id="node12" class="node">
<title>PTC3213</title>
<ellipse fill="none" stroke="purple" cx="224.09" cy="-296.09" rx="76.09" ry="18"/>
<text text-anchor="middle" x="224.09" y="-292.39" font-family="Times,serif" font-size="14.00" fill="purple">Eletromagnetismo</text>
</g>
<!-- PEA3306 -->
<g id="node19" class="node">
<title>PEA3306</title>
<ellipse fill="none" stroke="black" cx="118.09" cy="-206.35" rx="115.93" ry="26.74"/>
<text text-anchor="middle" x="118.09" y="-210.15" font-family="Times,serif" font-size="14.00">Converção Eletromecânica</text>
<text text-anchor="middle" x="118.09" y="-195.15" font-family="Times,serif" font-size="14.00"> de Energia</text>
</g>
<!-- PTC3213&#45;&gt;PEA3306 -->
<g id="edge6" class="edge">
<title>PTC3213&#45;&gt;PEA3306</title>
<path fill="none" stroke="black" d="M204.15,-278.59C190.65,-267.41 172.38,-252.29 156.14,-238.85"/>
<polygon fill="black" stroke="black" points="158.3,-236.09 148.37,-232.41 153.84,-241.49 158.3,-236.09"/>
</g>
<!-- PTC3213&#45;&gt;PTC3314 -->
<g id="edge14" class="edge">
<title>PTC3213&#45;&gt;PTC3314</title>
<path fill="none" stroke="black" d="M242.21,-278.17C256.61,-264.74 276.9,-245.79 292.88,-230.87"/>
<polygon fill="black" stroke="black" points="295.42,-233.3 300.34,-223.92 290.64,-228.18 295.42,-233.3"/>
</g>
<!-- PCS3225 -->
<g id="node13" class="node">
<title>PCS3225</title>
<ellipse fill="none" stroke="blue" cx="1194.09" cy="-296.09" rx="81.49" ry="18"/>
<text text-anchor="middle" x="1194.09" y="-292.39" font-family="Times,serif" font-size="14.00" fill="blue">Sistemas Digitais II</text>
</g>
<!-- PCS3412 -->
<g id="node15" class="node">
<title>PCS3412</title>
<ellipse fill="none" stroke="black" cx="1428.09" cy="-206.35" rx="113.27" ry="26.74"/>
<text text-anchor="middle" x="1428.09" y="-210.15" font-family="Times,serif" font-size="14.00">Organização e Arquitetura</text>
<text text-anchor="middle" x="1428.09" y="-195.15" font-family="Times,serif" font-size="14.00"> de Computadores I</text>
</g>
<!-- PCS3225&#45;&gt;PCS3412 -->
<g id="edge3" class="edge">
<title>PCS3225&#45;&gt;PCS3412</title>
<path fill="none" stroke="black" d="M1233.52,-280.31C1267.96,-267.39 1318.71,-248.36 1359.75,-232.97"/>
<polygon fill="black" stroke="black" points="1361.02,-236.24 1369.15,-229.45 1358.56,-229.68 1361.02,-236.24"/>
</g>
<!-- PCS3335 -->
<g id="node16" class="node">
<title>PCS3335</title>
<ellipse fill="none" stroke="black" cx="986.09" cy="-206.35" rx="87.18" ry="18"/>
<text text-anchor="middle" x="986.09" y="-202.65" font-family="Times,serif" font-size="14.00">Laboratório Digital A</text>
</g>
<!-- PCS3225&#45;&gt;PCS3335 -->
<g id="edge4" class="edge">
<title>PCS3225&#45;&gt;PCS3335</title>
<path fill="none" stroke="black" d="M1157.86,-279.81C1122.88,-265.05 1069.78,-242.65 1031.89,-226.67"/>
<polygon fill="black" stroke="black" points="1033.17,-223.41 1022.6,-222.75 1030.45,-229.86 1033.17,-223.41"/>
</g>
<!-- PCS3216 -->
<g id="node29" class="node">
<title>PCS3216</title>
<ellipse fill="none" stroke="black" cx="1194.09" cy="-206.35" rx="102.88" ry="18"/>
<text text-anchor="middle" x="1194.09" y="-202.65" font-family="Times,serif" font-size="14.00">Sistemas de Programação</text>
</g>
<!-- PCS3225&#45;&gt;PCS3216 -->
<g id="edge19" class="edge">
<title>PCS3225&#45;&gt;PCS3216</title>
<path fill="none" stroke="black" d="M1194.09,-277.76C1194.09,-265.42 1194.09,-248.6 1194.09,-234.49"/>
<polygon fill="black" stroke="black" points="1197.59,-234.35 1194.09,-224.35 1190.59,-234.35 1197.59,-234.35"/>
</g>
<!-- PCS3422 -->
<g id="node27" class="node">
<title>PCS3422</title>
<ellipse fill="none" stroke="black" cx="1206.09" cy="-116.61" rx="113.27" ry="26.74"/>
<text text-anchor="middle" x="1206.09" y="-120.41" font-family="Times,serif" font-size="14.00">Organização e Arquitetura</text>
<text text-anchor="middle" x="1206.09" y="-105.41" font-family="Times,serif" font-size="14.00"> de Computadores II</text>
</g>
<!-- PCS3412&#45;&gt;PCS3422 -->
<g id="edge17" class="edge">
<title>PCS3412&#45;&gt;PCS3422</title>
<path fill="none" stroke="black" d="M1371.49,-182.98C1341.22,-171.02 1303.78,-156.22 1272.18,-143.73"/>
<polygon fill="black" stroke="black" points="1273.16,-140.36 1262.58,-139.94 1270.59,-146.87 1273.16,-140.36"/>
</g>
<!-- PCS3446 -->
<g id="node28" class="node">
<title>PCS3446</title>
<ellipse fill="none" stroke="black" cx="1428.09" cy="-116.61" rx="90.98" ry="18"/>
<text text-anchor="middle" x="1428.09" y="-112.91" font-family="Times,serif" font-size="14.00">Sistemas Operacionais</text>
</g>
<!-- PCS3412&#45;&gt;PCS3446 -->
<g id="edge18" class="edge">
<title>PCS3412&#45;&gt;PCS3446</title>
<path fill="none" stroke="black" d="M1428.09,-179.03C1428.09,-168.27 1428.09,-155.84 1428.09,-144.98"/>
<polygon fill="black" stroke="black" points="1431.59,-144.77 1428.09,-134.77 1424.59,-144.77 1431.59,-144.77"/>
</g>
<!-- PCS3432 -->
<g id="node30" class="node">
<title>PCS3432</title>
<ellipse fill="none" stroke="black" cx="996.09" cy="-116.61" rx="68.68" ry="26.74"/>
<text text-anchor="middle" x="996.09" y="-120.41" font-family="Times,serif" font-size="14.00">Laboratório de</text>
<text text-anchor="middle" x="996.09" y="-105.41" font-family="Times,serif" font-size="14.00"> Processadores</text>
</g>
<!-- PCS3412&#45;&gt;PCS3432 -->
<g id="edge21" class="edge">
<title>PCS3412&#45;&gt;PCS3432</title>
<path fill="none" stroke="black" stroke-dasharray="5,2" d="M1346.82,-187.55C1333.24,-184.74 1319.28,-181.95 1306.09,-179.48 1207.83,-161.11 1181.56,-165.62 1084.09,-143.48 1075.62,-141.56 1066.78,-139.28 1058.09,-136.89"/>
<polygon fill="black" stroke="black" points="1058.96,-133.5 1048.39,-134.15 1057.06,-140.24 1058.96,-133.5"/>
</g>
<!-- PCS3550 -->
<g id="node33" class="node">
<title>PCS3550</title>
<ellipse fill="none" stroke="black" cx="1598.09" cy="-116.61" rx="60.62" ry="26.74"/>
<text text-anchor="middle" x="1598.09" y="-120.41" font-family="Times,serif" font-size="14.00">Projeto de</text>
<text text-anchor="middle" x="1598.09" y="-105.41" font-family="Times,serif" font-size="14.00"> Formatura I</text>
</g>
<!-- PCS3412&#45;&gt;PCS3550 -->
<g id="edge24" class="edge">
<title>PCS3412&#45;&gt;PCS3550</title>
<path fill="none" stroke="black" d="M1474.09,-181.61C1497.81,-169.37 1526.7,-154.46 1550.62,-142.11"/>
<polygon fill="black" stroke="black" points="1552.24,-145.21 1559.52,-137.51 1549.03,-138.99 1552.24,-145.21"/>
</g>
<!-- PCS3335&#45;&gt;PCS3432 -->
<g id="edge20" class="edge">
<title>PCS3335&#45;&gt;PCS3432</title>
<path fill="none" stroke="black" d="M988.06,-188.02C989.18,-178.2 990.62,-165.56 991.97,-153.69"/>
<polygon fill="black" stroke="black" points="995.47,-153.89 993.13,-143.56 988.52,-153.1 995.47,-153.89"/>
</g>
<!-- PSI3322 -->
<g id="node21" class="node">
<title>PSI3322</title>
<ellipse fill="none" stroke="black" cx="780.09" cy="-206.35" rx="55.49" ry="18"/>
<text text-anchor="middle" x="780.09" y="-202.65" font-family="Times,serif" font-size="14.00">Eletrônica II</text>
</g>
<!-- PSI3321&#45;&gt;PSI3322 -->
<g id="edge10" class="edge">
<title>PSI3321&#45;&gt;PSI3322</title>
<path fill="none" stroke="black" d="M780.09,-277.76C780.09,-265.42 780.09,-248.6 780.09,-234.49"/>
<polygon fill="black" stroke="black" points="783.59,-234.35 780.09,-224.35 776.59,-234.35 783.59,-234.35"/>
</g>
<!-- PTC3307 -->
<g id="node18" class="node">
<title>PTC3307</title>
<ellipse fill="none" stroke="black" cx="1817.09" cy="-385.83" rx="72.59" ry="18"/>
<text text-anchor="middle" x="1817.09" y="-382.13" font-family="Times,serif" font-size="14.00">Sistemas e Sinais</text>
</g>
<!-- PTC3361 -->
<g id="node25" class="node">
<title>PTC3361</title>
<ellipse fill="none" stroke="black" cx="2019.09" cy="-296.09" rx="125.32" ry="26.74"/>
<text text-anchor="middle" x="2019.09" y="-299.89" font-family="Times,serif" font-size="14.00">Introdução ao Processamento</text>
<text text-anchor="middle" x="2019.09" y="-284.89" font-family="Times,serif" font-size="14.00"> Digital de Sinais</text>
</g>
<!-- PTC3307&#45;&gt;PTC3361 -->
<g id="edge15" class="edge">
<title>PTC3307&#45;&gt;PTC3361</title>
<path fill="none" stroke="black" d="M1851.35,-369.95C1879.85,-357.57 1921.19,-339.61 1955.69,-324.63"/>
<polygon fill="black" stroke="black" points="1957.44,-327.68 1965.22,-320.49 1954.66,-321.26 1957.44,-327.68"/>
</g>
<!-- PTC3360 -->
<g id="node26" class="node">
<title>PTC3360</title>
<ellipse fill="none" stroke="black" cx="1772.09" cy="-296.09" rx="103.89" ry="26.74"/>
<text text-anchor="middle" x="1772.09" y="-299.89" font-family="Times,serif" font-size="14.00">Introdução a</text>
<text text-anchor="middle" x="1772.09" y="-284.89" font-family="Times,serif" font-size="14.00"> Redes e Comunicações</text>
</g>
<!-- PTC3307&#45;&gt;PTC3360 -->
<g id="edge16" class="edge">
<title>PTC3307&#45;&gt;PTC3360</title>
<path fill="none" stroke="black" d="M1808.41,-367.91C1803.2,-357.75 1796.38,-344.45 1790.05,-332.11"/>
<polygon fill="black" stroke="black" points="1793.02,-330.24 1785.34,-322.94 1786.79,-333.44 1793.02,-330.24"/>
</g>
<!-- PEA3311 -->
<g id="node20" class="node">
<title>PEA3311</title>
<ellipse fill="none" stroke="black" cx="118.09" cy="-116.61" rx="118.17" ry="26.74"/>
<text text-anchor="middle" x="118.09" y="-120.41" font-family="Times,serif" font-size="14.00">Laboratório de Converção</text>
<text text-anchor="middle" x="118.09" y="-105.41" font-family="Times,serif" font-size="14.00"> Eletromecânica de Energia</text>
</g>
<!-- PEA3306&#45;&gt;PEA3311 -->
<g id="edge8" class="edge">
<title>PEA3306&#45;&gt;PEA3311</title>
<path fill="none" stroke="black" stroke-dasharray="5,2" d="M111.87,-179.5C111.37,-171.45 111.22,-162.42 111.43,-153.8"/>
<polygon fill="black" stroke="black" points="114.94,-153.72 111.86,-143.58 107.94,-153.42 114.94,-153.72"/>
</g>
<!-- PEA3311&#45;&gt;PEA3306 -->
<g id="edge7" class="edge">
<title>PEA3311&#45;&gt;PEA3306</title>
<path fill="none" stroke="black" stroke-dasharray="5,2" d="M124.31,-143.58C124.81,-151.64 124.95,-160.67 124.74,-169.29"/>
<polygon fill="black" stroke="black" points="121.23,-169.36 124.3,-179.5 128.23,-169.66 121.23,-169.36"/>
</g>
<!-- PSI3323 -->
<g id="node22" class="node">
<title>PSI3323</title>
<ellipse fill="none" stroke="black" cx="780.09" cy="-116.61" rx="68.68" ry="26.74"/>
<text text-anchor="middle" x="780.09" y="-120.41" font-family="Times,serif" font-size="14.00">Laboratório de</text>
<text text-anchor="middle" x="780.09" y="-105.41" font-family="Times,serif" font-size="14.00"> Eletrônica I</text>
</g>
<!-- PSI3322&#45;&gt;PSI3323 -->
<g id="edge11" class="edge">
<title>PSI3322&#45;&gt;PSI3323</title>
<path fill="none" stroke="black" stroke-dasharray="5,2" d="M780.09,-188.02C780.09,-178.2 780.09,-165.56 780.09,-153.69"/>
<polygon fill="black" stroke="black" points="783.59,-153.56 780.09,-143.56 776.59,-153.56 783.59,-153.56"/>
</g>
<!-- PCS3414 -->
<g id="node31" class="node">
<title>PCS3414</title>
<ellipse fill="none" stroke="black" cx="1772.09" cy="-206.35" rx="102.88" ry="18"/>
<text text-anchor="middle" x="1772.09" y="-202.65" font-family="Times,serif" font-size="14.00">Redes de Computadores I</text>
</g>
<!-- PTC3360&#45;&gt;PCS3414 -->
<g id="edge22" class="edge">
<title>PTC3360&#45;&gt;PCS3414</title>
<path fill="none" stroke="black" d="M1772.09,-268.77C1772.09,-258.01 1772.09,-245.58 1772.09,-234.72"/>
<polygon fill="black" stroke="black" points="1775.59,-234.51 1772.09,-224.51 1768.59,-234.51 1775.59,-234.51"/>
</g>
<!-- PCS3434 -->
<g id="node32" class="node">
<title>PCS3434</title>
<ellipse fill="none" stroke="black" cx="1772.09" cy="-116.61" rx="94.51" ry="26.74"/>
<text text-anchor="middle" x="1772.09" y="-120.41" font-family="Times,serif" font-size="14.00">Laboratório de Redes</text>
<text text-anchor="middle" x="1772.09" y="-105.41" font-family="Times,serif" font-size="14.00"> de Computadores</text>
</g>
<!-- PCS3414&#45;&gt;PCS3434 -->
<g id="edge23" class="edge">
<title>PCS3414&#45;&gt;PCS3434</title>
<path fill="none" stroke="black" d="M1772.09,-188.02C1772.09,-178.2 1772.09,-165.56 1772.09,-153.69"/>
<polygon fill="black" stroke="black" points="1775.59,-153.56 1772.09,-143.56 1768.59,-153.56 1775.59,-153.56"/>
</g>
<!-- PCS3414&#45;&gt;PCS3550 -->
<g id="edge25" class="edge">
<title>PCS3414&#45;&gt;PCS3550</title>
<path fill="none" stroke="black" d="M1739.77,-189.05C1713.49,-175.8 1676.03,-156.91 1646.22,-141.88"/>
<polygon fill="black" stroke="black" points="1647.74,-138.73 1637.24,-137.35 1644.59,-144.98 1647.74,-138.73"/>
</g>
<!-- PCS3424 -->
<g id="node34" class="node">
<title>PCS3424</title>
<ellipse fill="none" stroke="black" cx="1980.09" cy="-116.61" rx="94.78" ry="18"/>
<text text-anchor="middle" x="1980.09" y="-112.91" font-family="Times,serif" font-size="14.00">Redes Computadores II</text>
</g>
<!-- PCS3414&#45;&gt;PCS3424 -->
<g id="edge26" class="edge">
<title>PCS3414&#45;&gt;PCS3424</title>
<path fill="none" stroke="black" d="M1809.75,-189.46C1844.47,-174.82 1896.1,-153.04 1933.41,-137.3"/>
<polygon fill="black" stroke="black" points="1935.2,-140.35 1943.05,-133.23 1932.48,-133.9 1935.2,-140.35"/>
</g>
<!-- PCS3560 -->
<g id="node35" class="node">
<title>PCS3560</title>
<ellipse fill="none" stroke="black" cx="1598.09" cy="-26.87" rx="63.78" ry="26.74"/>
<text text-anchor="middle" x="1598.09" y="-30.67" font-family="Times,serif" font-size="14.00">Projeto de</text>
<text text-anchor="middle" x="1598.09" y="-15.67" font-family="Times,serif" font-size="14.00"> Formatura II</text>
</g>
<!-- PCS3550&#45;&gt;PCS3560 -->
<g id="edge27" class="edge">
<title>PCS3550&#45;&gt;PCS3560</title>
<path fill="none" stroke="black" d="M1598.09,-89.29C1598.09,-81.32 1598.09,-72.43 1598.09,-63.94"/>
<polygon fill="black" stroke="black" points="1601.59,-63.87 1598.09,-53.87 1594.59,-63.87 1601.59,-63.87"/>
</g>
</g>
</svg>
