<?xml version="1.0" encoding="UTF-8" standalone="no"?>
<!DOCTYPE svg PUBLIC "-//W3C//DTD SVG 1.1//EN"
 "http://www.w3.org/Graphics/SVG/1.1/DTD/svg11.dtd">
<!-- Generated by graphviz version 2.43.0 (0)
 -->
<!-- Title: g Pages: 1 -->
<svg width="3159pt" height="268pt"
 viewBox="0.00 0.00 3159.00 268.00" xmlns="http://www.w3.org/2000/svg" xmlns:xlink="http://www.w3.org/1999/xlink">
<g id="graph0" class="graph" transform="scale(1 1) rotate(0) translate(4 264)">
<title>g</title>
<polygon fill="white" stroke="transparent" points="-4,4 -4,-264 3155,-264 3155,4 -4,4"/>
<!-- PME3344 -->
<g id="node1" class="node">
<title>PME3344</title>
<polygon fill="none" stroke="purple" points="191,-259 0,-259 0,-223 191,-223 191,-259"/>
<text text-anchor="middle" x="95.5" y="-237.3" font-family="Times,serif" font-size="14.00" fill="purple">Termodinâmica Aplicada</text>
</g>
<!-- MAT2456 -->
<g id="node2" class="node">
<title>MAT2456</title>
<polygon fill="none" stroke="blue" points="298,-259 209,-259 209,-223 298,-223 298,-259"/>
<text text-anchor="middle" x="253.5" y="-237.3" font-family="Times,serif" font-size="14.00" fill="blue">Cálculo IV</text>
</g>
<!-- PSI3213 -->
<g id="node3" class="node">
<title>PSI3213</title>
<polygon fill="none" stroke="blue" points="480.5,-259 316.5,-259 316.5,-223 480.5,-223 480.5,-259"/>
<text text-anchor="middle" x="398.5" y="-237.3" font-family="Times,serif" font-size="14.00" fill="blue">Circuitos Elétricos II</text>
</g>
<!-- PSI3214 -->
<g id="node4" class="node">
<title>PSI3214</title>
<polygon fill="none" stroke="blue" points="368.5,-186 174.5,-186 174.5,-148 368.5,-148 368.5,-186"/>
<text text-anchor="middle" x="271.5" y="-170.8" font-family="Times,serif" font-size="14.00" fill="blue">Laboratório de </text>
<text text-anchor="middle" x="271.5" y="-155.8" font-family="Times,serif" font-size="14.00" fill="blue"> Instrumentação Elétrica</text>
</g>
<!-- PSI3213&#45;&gt;PSI3214 -->
<g id="edge1" class="edge">
<title>PSI3213&#45;&gt;PSI3214</title>
<path fill="none" stroke="black" stroke-dasharray="5,2" d="M368.4,-222.94C351.79,-213.52 330.91,-201.68 312.79,-191.41"/>
<polygon fill="black" stroke="black" points="314.03,-188.09 303.6,-186.2 310.57,-194.18 314.03,-188.09"/>
</g>
<!-- PTC3314 -->
<g id="node22" class="node">
<title>PTC3314</title>
<polygon fill="none" stroke="black" points="512.5,-185 386.5,-185 386.5,-149 512.5,-149 512.5,-185"/>
<text text-anchor="middle" x="449.5" y="-163.3" font-family="Times,serif" font-size="14.00">Ondas e Linhas</text>
</g>
<!-- PSI3213&#45;&gt;PTC3314 -->
<g id="edge9" class="edge">
<title>PSI3213&#45;&gt;PTC3314</title>
<path fill="none" stroke="black" d="M410.59,-222.94C416.78,-214.19 424.46,-203.35 431.35,-193.63"/>
<polygon fill="black" stroke="black" points="434.22,-195.62 437.15,-185.44 428.51,-191.58 434.22,-195.62"/>
</g>
<!-- 4323102 -->
<g id="node5" class="node">
<title>4323102</title>
<polygon fill="none" stroke="blue" points="572.5,-259 498.5,-259 498.5,-223 572.5,-223 572.5,-259"/>
<text text-anchor="middle" x="535.5" y="-237.3" font-family="Times,serif" font-size="14.00" fill="blue">Física II</text>
</g>
<!-- PTC3313 -->
<g id="node6" class="node">
<title>PTC3313</title>
<polygon fill="none" stroke="blue" points="760.5,-259 590.5,-259 590.5,-223 760.5,-223 760.5,-259"/>
<text text-anchor="middle" x="675.5" y="-237.3" font-family="Times,serif" font-size="14.00" fill="blue">Sistemas de Controle</text>
</g>
<!-- PTC3312 -->
<g id="node21" class="node">
<title>PTC3312</title>
<polygon fill="none" stroke="blue" points="769.5,-185 581.5,-185 581.5,-149 769.5,-149 769.5,-185"/>
<text text-anchor="middle" x="675.5" y="-163.3" font-family="Times,serif" font-size="14.00" fill="blue">Laboratório de Controle</text>
</g>
<!-- PTC3313&#45;&gt;PTC3312 -->
<g id="edge8" class="edge">
<title>PTC3313&#45;&gt;PTC3312</title>
<path fill="none" stroke="black" d="M675.5,-222.94C675.5,-214.81 675.5,-204.88 675.5,-195.7"/>
<polygon fill="black" stroke="black" points="679,-195.44 675.5,-185.44 672,-195.44 679,-195.44"/>
</g>
<!-- PME3332 -->
<g id="node7" class="node">
<title>PME3332</title>
<polygon fill="none" stroke="blue" points="948.5,-259 778.5,-259 778.5,-223 948.5,-223 948.5,-259"/>
<text text-anchor="middle" x="863.5" y="-237.3" font-family="Times,serif" font-size="14.00" fill="blue">Mecânica dos Flúidos</text>
</g>
<!-- PCS3438 -->
<g id="node8" class="node">
<title>PCS3438</title>
<polygon fill="none" stroke="black" points="1132.5,-259 966.5,-259 966.5,-223 1132.5,-223 1132.5,-259"/>
<text text-anchor="middle" x="1049.5" y="-237.3" font-family="Times,serif" font-size="14.00">Inteligência Artificial</text>
</g>
<!-- PME3100 -->
<g id="node9" class="node">
<title>PME3100</title>
<polygon fill="none" stroke="purple" points="1234.5,-259 1150.5,-259 1150.5,-223 1234.5,-223 1234.5,-259"/>
<text text-anchor="middle" x="1192.5" y="-237.3" font-family="Times,serif" font-size="14.00" fill="purple">Macânica</text>
</g>
<!-- MAP3121 -->
<g id="node10" class="node">
<title>MAP3121</title>
<polygon fill="none" stroke="black" points="1412.5,-260 1252.5,-260 1252.5,-222 1412.5,-222 1412.5,-260"/>
<text text-anchor="middle" x="1332.5" y="-244.8" font-family="Times,serif" font-size="14.00">Métodos Numéricos</text>
<text text-anchor="middle" x="1332.5" y="-229.8" font-family="Times,serif" font-size="14.00"> Aplicados</text>
</g>
<!-- PCS3225 -->
<g id="node11" class="node">
<title>PCS3225</title>
<polygon fill="none" stroke="blue" points="1588,-259 1431,-259 1431,-223 1588,-223 1588,-259"/>
<text text-anchor="middle" x="1509.5" y="-237.3" font-family="Times,serif" font-size="14.00" fill="blue">Sistemas Digitais II</text>
</g>
<!-- PCS3412 -->
<g id="node13" class="node">
<title>PCS3412</title>
<polygon fill="none" stroke="black" points="1835.5,-186 1629.5,-186 1629.5,-148 1835.5,-148 1835.5,-186"/>
<text text-anchor="middle" x="1732.5" y="-170.8" font-family="Times,serif" font-size="14.00">Organização e Arquitetura</text>
<text text-anchor="middle" x="1732.5" y="-155.8" font-family="Times,serif" font-size="14.00"> de Computadores I</text>
</g>
<!-- PCS3225&#45;&gt;PCS3412 -->
<g id="edge2" class="edge">
<title>PCS3225&#45;&gt;PCS3412</title>
<path fill="none" stroke="black" d="M1562.35,-222.94C1593.65,-212.83 1633.57,-199.94 1666.87,-189.19"/>
<polygon fill="black" stroke="black" points="1668.09,-192.48 1676.53,-186.07 1665.94,-185.81 1668.09,-192.48"/>
</g>
<!-- PCS3335 -->
<g id="node14" class="node">
<title>PCS3335</title>
<polygon fill="none" stroke="black" points="1390,-185 1223,-185 1223,-149 1390,-149 1390,-185"/>
<text text-anchor="middle" x="1306.5" y="-163.3" font-family="Times,serif" font-size="14.00">Laboratório Digital A</text>
</g>
<!-- PCS3225&#45;&gt;PCS3335 -->
<g id="edge3" class="edge">
<title>PCS3225&#45;&gt;PCS3335</title>
<path fill="none" stroke="black" d="M1461.39,-222.94C1432.3,-212.62 1395.02,-199.4 1364.33,-188.51"/>
<polygon fill="black" stroke="black" points="1365.21,-185.11 1354.61,-185.07 1362.87,-191.71 1365.21,-185.11"/>
</g>
<!-- PCS3216 -->
<g id="node27" class="node">
<title>PCS3216</title>
<polygon fill="none" stroke="black" points="1611,-185 1408,-185 1408,-149 1611,-149 1611,-185"/>
<text text-anchor="middle" x="1509.5" y="-163.3" font-family="Times,serif" font-size="14.00">Sistemas de Programação</text>
</g>
<!-- PCS3225&#45;&gt;PCS3216 -->
<g id="edge14" class="edge">
<title>PCS3225&#45;&gt;PCS3216</title>
<path fill="none" stroke="black" d="M1509.5,-222.94C1509.5,-214.81 1509.5,-204.88 1509.5,-195.7"/>
<polygon fill="black" stroke="black" points="1513,-195.44 1509.5,-185.44 1506,-195.44 1513,-195.44"/>
</g>
<!-- PEA3301 -->
<g id="node12" class="node">
<title>PEA3301</title>
<polygon fill="none" stroke="black" points="2064,-260 1891,-260 1891,-222 2064,-222 2064,-260"/>
<text text-anchor="middle" x="1977.5" y="-244.8" font-family="Times,serif" font-size="14.00">Introdução aos</text>
<text text-anchor="middle" x="1977.5" y="-229.8" font-family="Times,serif" font-size="14.00"> Sistemas de Potência</text>
</g>
<!-- PCS3422 -->
<g id="node25" class="node">
<title>PCS3422</title>
<polygon fill="none" stroke="black" points="1624.5,-112 1418.5,-112 1418.5,-74 1624.5,-74 1624.5,-112"/>
<text text-anchor="middle" x="1521.5" y="-96.8" font-family="Times,serif" font-size="14.00">Organização e Arquitetura</text>
<text text-anchor="middle" x="1521.5" y="-81.8" font-family="Times,serif" font-size="14.00"> de Computadores II</text>
</g>
<!-- PCS3412&#45;&gt;PCS3422 -->
<g id="edge12" class="edge">
<title>PCS3412&#45;&gt;PCS3422</title>
<path fill="none" stroke="black" d="M1679.53,-147.92C1650.56,-138.04 1614.49,-125.73 1584.13,-115.37"/>
<polygon fill="black" stroke="black" points="1585.09,-112 1574.49,-112.08 1582.83,-118.63 1585.09,-112"/>
</g>
<!-- PCS3446 -->
<g id="node26" class="node">
<title>PCS3446</title>
<polygon fill="none" stroke="black" points="1822,-111 1643,-111 1643,-75 1822,-75 1822,-111"/>
<text text-anchor="middle" x="1732.5" y="-89.3" font-family="Times,serif" font-size="14.00">Sistemas Operacionais</text>
</g>
<!-- PCS3412&#45;&gt;PCS3446 -->
<g id="edge13" class="edge">
<title>PCS3412&#45;&gt;PCS3446</title>
<path fill="none" stroke="black" d="M1732.5,-147.83C1732.5,-139.89 1732.5,-130.41 1732.5,-121.63"/>
<polygon fill="black" stroke="black" points="1736,-121.42 1732.5,-111.42 1729,-121.42 1736,-121.42"/>
</g>
<!-- PCS3432 -->
<g id="node28" class="node">
<title>PCS3432</title>
<polygon fill="none" stroke="black" points="1385,-112 1260,-112 1260,-74 1385,-74 1385,-112"/>
<text text-anchor="middle" x="1322.5" y="-96.8" font-family="Times,serif" font-size="14.00">Laboratório de</text>
<text text-anchor="middle" x="1322.5" y="-81.8" font-family="Times,serif" font-size="14.00"> Processadores</text>
</g>
<!-- PCS3412&#45;&gt;PCS3432 -->
<g id="edge16" class="edge">
<title>PCS3412&#45;&gt;PCS3432</title>
<path fill="none" stroke="black" stroke-dasharray="5,2" d="M1629.43,-149.21C1551.32,-136.4 1450.65,-119.69 1409.5,-112 1404.82,-111.12 1400,-110.2 1395.15,-109.25"/>
<polygon fill="black" stroke="black" points="1395.66,-105.78 1385.17,-107.27 1394.3,-112.65 1395.66,-105.78"/>
</g>
<!-- PCS3550 -->
<g id="node31" class="node">
<title>PCS3550</title>
<polygon fill="none" stroke="black" points="1947,-112 1840,-112 1840,-74 1947,-74 1947,-112"/>
<text text-anchor="middle" x="1893.5" y="-96.8" font-family="Times,serif" font-size="14.00">Projeto de</text>
<text text-anchor="middle" x="1893.5" y="-81.8" font-family="Times,serif" font-size="14.00"> Formatura I</text>
</g>
<!-- PCS3412&#45;&gt;PCS3550 -->
<g id="edge18" class="edge">
<title>PCS3412&#45;&gt;PCS3550</title>
<path fill="none" stroke="black" d="M1773.13,-147.83C1794.66,-138.2 1821.28,-126.29 1844.02,-116.13"/>
<polygon fill="black" stroke="black" points="1845.47,-119.32 1853.17,-112.04 1842.61,-112.93 1845.47,-119.32"/>
</g>
<!-- PCS3335&#45;&gt;PCS3432 -->
<g id="edge15" class="edge">
<title>PCS3335&#45;&gt;PCS3432</title>
<path fill="none" stroke="black" d="M1310.29,-148.94C1312.08,-140.9 1314.25,-131.1 1316.27,-122.02"/>
<polygon fill="black" stroke="black" points="1319.7,-122.72 1318.46,-112.2 1312.87,-121.2 1319.7,-122.72"/>
</g>
<!-- PSI3321 -->
<g id="node15" class="node">
<title>PSI3321</title>
<polygon fill="none" stroke="blue" points="2466.5,-259 2366.5,-259 2366.5,-223 2466.5,-223 2466.5,-259"/>
<text text-anchor="middle" x="2416.5" y="-237.3" font-family="Times,serif" font-size="14.00" fill="blue">Eletrônica I</text>
</g>
<!-- PSI3322 -->
<g id="node19" class="node">
<title>PSI3322</title>
<polygon fill="none" stroke="black" points="2469,-185 2364,-185 2364,-149 2469,-149 2469,-185"/>
<text text-anchor="middle" x="2416.5" y="-163.3" font-family="Times,serif" font-size="14.00">Eletrônica II</text>
</g>
<!-- PSI3321&#45;&gt;PSI3322 -->
<g id="edge6" class="edge">
<title>PSI3321&#45;&gt;PSI3322</title>
<path fill="none" stroke="black" d="M2416.5,-222.94C2416.5,-214.81 2416.5,-204.88 2416.5,-195.7"/>
<polygon fill="black" stroke="black" points="2420,-195.44 2416.5,-185.44 2413,-195.44 2420,-195.44"/>
</g>
<!-- PTC3307 -->
<g id="node16" class="node">
<title>PTC3307</title>
<polygon fill="none" stroke="black" points="2785,-259 2642,-259 2642,-223 2785,-223 2785,-259"/>
<text text-anchor="middle" x="2713.5" y="-237.3" font-family="Times,serif" font-size="14.00">Sistemas e Sinais</text>
</g>
<!-- PTC3361 -->
<g id="node23" class="node">
<title>PTC3361</title>
<polygon fill="none" stroke="black" points="2715.5,-186 2487.5,-186 2487.5,-148 2715.5,-148 2715.5,-186"/>
<text text-anchor="middle" x="2601.5" y="-170.8" font-family="Times,serif" font-size="14.00">Introdução ao Processamento</text>
<text text-anchor="middle" x="2601.5" y="-155.8" font-family="Times,serif" font-size="14.00"> Digital de Sinais</text>
</g>
<!-- PTC3307&#45;&gt;PTC3361 -->
<g id="edge10" class="edge">
<title>PTC3307&#45;&gt;PTC3361</title>
<path fill="none" stroke="black" d="M2686.96,-222.94C2672.44,-213.6 2654.23,-201.9 2638.35,-191.69"/>
<polygon fill="black" stroke="black" points="2640.11,-188.66 2629.81,-186.2 2636.33,-194.55 2640.11,-188.66"/>
</g>
<!-- PTC3360 -->
<g id="node24" class="node">
<title>PTC3360</title>
<polygon fill="none" stroke="black" points="2917.5,-186 2733.5,-186 2733.5,-148 2917.5,-148 2917.5,-186"/>
<text text-anchor="middle" x="2825.5" y="-170.8" font-family="Times,serif" font-size="14.00">Introdução a</text>
<text text-anchor="middle" x="2825.5" y="-155.8" font-family="Times,serif" font-size="14.00"> Redes e Comunicações</text>
</g>
<!-- PTC3307&#45;&gt;PTC3360 -->
<g id="edge11" class="edge">
<title>PTC3307&#45;&gt;PTC3360</title>
<path fill="none" stroke="black" d="M2740.04,-222.94C2754.56,-213.6 2772.77,-201.9 2788.65,-191.69"/>
<polygon fill="black" stroke="black" points="2790.67,-194.55 2797.19,-186.2 2786.89,-188.66 2790.67,-194.55"/>
</g>
<!-- PEA3306 -->
<g id="node17" class="node">
<title>PEA3306</title>
<polygon fill="none" stroke="black" points="3147,-260 2940,-260 2940,-222 3147,-222 3147,-260"/>
<text text-anchor="middle" x="3043.5" y="-244.8" font-family="Times,serif" font-size="14.00">Converção Eletromecânica</text>
<text text-anchor="middle" x="3043.5" y="-229.8" font-family="Times,serif" font-size="14.00"> de Energia</text>
</g>
<!-- PEA3311 -->
<g id="node18" class="node">
<title>PEA3311</title>
<polygon fill="none" stroke="black" points="3151,-186 2936,-186 2936,-148 3151,-148 3151,-186"/>
<text text-anchor="middle" x="3043.5" y="-170.8" font-family="Times,serif" font-size="14.00">Laboratório de Converção</text>
<text text-anchor="middle" x="3043.5" y="-155.8" font-family="Times,serif" font-size="14.00"> Eletromecânica de Energia</text>
</g>
<!-- PEA3306&#45;&gt;PEA3311 -->
<g id="edge5" class="edge">
<title>PEA3306&#45;&gt;PEA3311</title>
<path fill="none" stroke="black" stroke-dasharray="5,2" d="M3037.55,-221.83C3036.8,-214.13 3036.58,-204.97 3036.88,-196.42"/>
<polygon fill="black" stroke="black" points="3040.38,-196.62 3037.52,-186.41 3033.39,-196.17 3040.38,-196.62"/>
</g>
<!-- PEA3311&#45;&gt;PEA3306 -->
<g id="edge4" class="edge">
<title>PEA3311&#45;&gt;PEA3306</title>
<path fill="none" stroke="black" stroke-dasharray="5,2" d="M3049.48,-186.41C3050.21,-194.06 3050.42,-203.11 3050.12,-211.57"/>
<polygon fill="black" stroke="black" points="3046.6,-211.63 3049.45,-221.83 3053.59,-212.08 3046.6,-211.63"/>
</g>
<!-- PSI3323 -->
<g id="node20" class="node">
<title>PSI3323</title>
<polygon fill="none" stroke="black" points="2477.5,-112 2355.5,-112 2355.5,-74 2477.5,-74 2477.5,-112"/>
<text text-anchor="middle" x="2416.5" y="-96.8" font-family="Times,serif" font-size="14.00">Laboratório de</text>
<text text-anchor="middle" x="2416.5" y="-81.8" font-family="Times,serif" font-size="14.00"> Eletrônica I</text>
</g>
<!-- PSI3322&#45;&gt;PSI3323 -->
<g id="edge7" class="edge">
<title>PSI3322&#45;&gt;PSI3323</title>
<path fill="none" stroke="black" stroke-dasharray="5,2" d="M2416.5,-148.94C2416.5,-140.99 2416.5,-131.31 2416.5,-122.31"/>
<polygon fill="black" stroke="black" points="2420,-122.2 2416.5,-112.2 2413,-122.2 2420,-122.2"/>
</g>
<!-- PCS3414 -->
<g id="node29" class="node">
<title>PCS3414</title>
<polygon fill="none" stroke="black" points="2150.5,-185 1950.5,-185 1950.5,-149 2150.5,-149 2150.5,-185"/>
<text text-anchor="middle" x="2050.5" y="-163.3" font-family="Times,serif" font-size="14.00">Redes de Computadores I</text>
</g>
<!-- PCS3434 -->
<g id="node30" class="node">
<title>PCS3434</title>
<polygon fill="none" stroke="black" points="2135.5,-112 1965.5,-112 1965.5,-74 2135.5,-74 2135.5,-112"/>
<text text-anchor="middle" x="2050.5" y="-96.8" font-family="Times,serif" font-size="14.00">Laboratório de Redes</text>
<text text-anchor="middle" x="2050.5" y="-81.8" font-family="Times,serif" font-size="14.00"> de Computadores</text>
</g>
<!-- PCS3414&#45;&gt;PCS3434 -->
<g id="edge17" class="edge">
<title>PCS3414&#45;&gt;PCS3434</title>
<path fill="none" stroke="black" stroke-dasharray="5,2" d="M2050.5,-148.94C2050.5,-140.99 2050.5,-131.31 2050.5,-122.31"/>
<polygon fill="black" stroke="black" points="2054,-122.2 2050.5,-112.2 2047,-122.2 2054,-122.2"/>
</g>
<!-- PCS3414&#45;&gt;PCS3550 -->
<g id="edge19" class="edge">
<title>PCS3414&#45;&gt;PCS3550</title>
<path fill="none" stroke="black" d="M2013.29,-148.94C1992.01,-139.18 1965.08,-126.82 1942.14,-116.3"/>
<polygon fill="black" stroke="black" points="1943.46,-113.06 1932.91,-112.07 1940.54,-119.42 1943.46,-113.06"/>
</g>
<!-- PCS3424 -->
<g id="node32" class="node">
<title>PCS3424</title>
<polygon fill="none" stroke="black" points="2337.5,-111 2153.5,-111 2153.5,-75 2337.5,-75 2337.5,-111"/>
<text text-anchor="middle" x="2245.5" y="-89.3" font-family="Times,serif" font-size="14.00">Redes Computadores II</text>
</g>
<!-- PCS3414&#45;&gt;PCS3424 -->
<g id="edge20" class="edge">
<title>PCS3414&#45;&gt;PCS3424</title>
<path fill="none" stroke="black" d="M2096.71,-148.94C2124.54,-138.66 2160.16,-125.51 2189.57,-114.65"/>
<polygon fill="black" stroke="black" points="2191.11,-117.81 2199.28,-111.07 2188.69,-111.25 2191.11,-117.81"/>
</g>
<!-- PCS3560 -->
<g id="node33" class="node">
<title>PCS3560</title>
<polygon fill="none" stroke="black" points="1949.5,-38 1837.5,-38 1837.5,0 1949.5,0 1949.5,-38"/>
<text text-anchor="middle" x="1893.5" y="-22.8" font-family="Times,serif" font-size="14.00">Projeto de</text>
<text text-anchor="middle" x="1893.5" y="-7.8" font-family="Times,serif" font-size="14.00"> Formatura II</text>
</g>
<!-- PCS3550&#45;&gt;PCS3560 -->
<g id="edge21" class="edge">
<title>PCS3550&#45;&gt;PCS3560</title>
<path fill="none" stroke="black" d="M1893.5,-73.83C1893.5,-66.13 1893.5,-56.97 1893.5,-48.42"/>
<polygon fill="black" stroke="black" points="1897,-48.41 1893.5,-38.41 1890,-48.41 1897,-48.41"/>
</g>
</g>
</svg>
