<?xml version="1.0" encoding="UTF-8" standalone="no"?>
<!DOCTYPE svg PUBLIC "-//W3C//DTD SVG 1.1//EN"
 "http://www.w3.org/Graphics/SVG/1.1/DTD/svg11.dtd">
<!-- Generated by graphviz version 2.43.0 (0)
 -->
<!-- Title: g Pages: 1 -->
<svg width="2385pt" height="421pt"
 viewBox="0.00 0.00 2384.83 420.70" xmlns="http://www.w3.org/2000/svg" xmlns:xlink="http://www.w3.org/1999/xlink">
<g id="graph0" class="graph" transform="scale(1 1) rotate(0) translate(4 416.7)">
<title>g</title>
<polygon fill="white" stroke="transparent" points="-4,4 -4,-416.7 2380.83,-416.7 2380.83,4 -4,4"/>
<!-- PME3344 -->
<g id="node1" class="node">
<title>PME3344</title>
<ellipse fill="none" stroke="purple" cx="100.74" cy="-385.83" rx="100.98" ry="18"/>
<text text-anchor="middle" x="100.74" y="-382.13" font-family="Times,serif" font-size="14.00" fill="purple">Termodinâmica Aplicada</text>
</g>
<!-- MAT2456 -->
<g id="node2" class="node">
<title>MAT2456</title>
<ellipse fill="none" stroke="blue" cx="269.74" cy="-385.83" rx="50.09" ry="18"/>
<text text-anchor="middle" x="269.74" y="-382.13" font-family="Times,serif" font-size="14.00" fill="blue">Cálculo IV</text>
</g>
<!-- PSI3213 -->
<g id="node3" class="node">
<title>PSI3213</title>
<ellipse fill="none" stroke="blue" cx="422.74" cy="-385.83" rx="85.29" ry="18"/>
<text text-anchor="middle" x="422.74" y="-382.13" font-family="Times,serif" font-size="14.00" fill="blue">Circuitos Elétricos II</text>
</g>
<!-- PSI3214 -->
<g id="node4" class="node">
<title>PSI3214</title>
<ellipse fill="none" stroke="blue" cx="402.74" cy="-296.09" rx="106.13" ry="26.74"/>
<text text-anchor="middle" x="402.74" y="-299.89" font-family="Times,serif" font-size="14.00" fill="blue">Laboratório de </text>
<text text-anchor="middle" x="402.74" y="-284.89" font-family="Times,serif" font-size="14.00" fill="blue"> Instrumentação Elétrica</text>
</g>
<!-- PSI3213&#45;&gt;PSI3214 -->
<g id="edge1" class="edge">
<title>PSI3213&#45;&gt;PSI3214</title>
<path fill="none" stroke="black" stroke-dasharray="5,2" d="M418.79,-367.5C416.53,-357.59 413.61,-344.78 410.88,-332.82"/>
<polygon fill="black" stroke="black" points="414.29,-332.01 408.66,-323.04 407.47,-333.57 414.29,-332.01"/>
</g>
<!-- PTC3314 -->
<g id="node22" class="node">
<title>PTC3314</title>
<ellipse fill="none" stroke="black" cx="592.74" cy="-296.09" rx="65.79" ry="18"/>
<text text-anchor="middle" x="592.74" y="-292.39" font-family="Times,serif" font-size="14.00">Ondas e Linhas</text>
</g>
<!-- PSI3213&#45;&gt;PTC3314 -->
<g id="edge9" class="edge">
<title>PSI3213&#45;&gt;PTC3314</title>
<path fill="none" stroke="black" d="M453.53,-368.94C481.79,-354.35 523.79,-332.68 554.26,-316.95"/>
<polygon fill="black" stroke="black" points="556.04,-319.97 563.32,-312.27 552.83,-313.75 556.04,-319.97"/>
</g>
<!-- 4323102 -->
<g id="node5" class="node">
<title>4323102</title>
<ellipse fill="none" stroke="blue" cx="586.74" cy="-385.83" rx="40.09" ry="18"/>
<text text-anchor="middle" x="586.74" y="-382.13" font-family="Times,serif" font-size="14.00" fill="blue">Física II</text>
</g>
<!-- PTC3313 -->
<g id="node6" class="node">
<title>PTC3313</title>
<ellipse fill="none" stroke="blue" cx="772.74" cy="-385.83" rx="86.38" ry="18"/>
<text text-anchor="middle" x="772.74" y="-382.13" font-family="Times,serif" font-size="14.00" fill="blue">Sistemas de Controle</text>
</g>
<!-- PTC3312 -->
<g id="node21" class="node">
<title>PTC3312</title>
<ellipse fill="none" stroke="blue" cx="772.74" cy="-296.09" rx="96.38" ry="18"/>
<text text-anchor="middle" x="772.74" y="-292.39" font-family="Times,serif" font-size="14.00" fill="blue">Laboratório de Controle</text>
</g>
<!-- PTC3313&#45;&gt;PTC3312 -->
<g id="edge8" class="edge">
<title>PTC3313&#45;&gt;PTC3312</title>
<path fill="none" stroke="black" d="M772.74,-367.5C772.74,-355.16 772.74,-338.34 772.74,-324.23"/>
<polygon fill="black" stroke="black" points="776.24,-324.09 772.74,-314.09 769.24,-324.09 776.24,-324.09"/>
</g>
<!-- PME3332 -->
<g id="node7" class="node">
<title>PME3332</title>
<ellipse fill="none" stroke="blue" cx="965.74" cy="-385.83" rx="89.08" ry="18"/>
<text text-anchor="middle" x="965.74" y="-382.13" font-family="Times,serif" font-size="14.00" fill="blue">Mecânica dos Flúidos</text>
</g>
<!-- PCS3438 -->
<g id="node8" class="node">
<title>PCS3438</title>
<ellipse fill="none" stroke="black" cx="1158.74" cy="-385.83" rx="86.38" ry="18"/>
<text text-anchor="middle" x="1158.74" y="-382.13" font-family="Times,serif" font-size="14.00">Inteligência Artificial</text>
</g>
<!-- PME3100 -->
<g id="node9" class="node">
<title>PME3100</title>
<ellipse fill="none" stroke="purple" cx="1308.74" cy="-385.83" rx="45.49" ry="18"/>
<text text-anchor="middle" x="1308.74" y="-382.13" font-family="Times,serif" font-size="14.00" fill="purple">Macânica</text>
</g>
<!-- MAP3121 -->
<g id="node10" class="node">
<title>MAP3121</title>
<ellipse fill="none" stroke="black" cx="1462.74" cy="-385.83" rx="90.52" ry="26.74"/>
<text text-anchor="middle" x="1462.74" y="-389.63" font-family="Times,serif" font-size="14.00">Métodos Numéricos</text>
<text text-anchor="middle" x="1462.74" y="-374.63" font-family="Times,serif" font-size="14.00"> Aplicados</text>
</g>
<!-- PCS3225 -->
<g id="node11" class="node">
<title>PCS3225</title>
<ellipse fill="none" stroke="blue" cx="1041.74" cy="-296.09" rx="81.49" ry="18"/>
<text text-anchor="middle" x="1041.74" y="-292.39" font-family="Times,serif" font-size="14.00" fill="blue">Sistemas Digitais II</text>
</g>
<!-- PCS3412 -->
<g id="node13" class="node">
<title>PCS3412</title>
<ellipse fill="none" stroke="black" cx="1275.74" cy="-206.35" rx="113.27" ry="26.74"/>
<text text-anchor="middle" x="1275.74" y="-210.15" font-family="Times,serif" font-size="14.00">Organização e Arquitetura</text>
<text text-anchor="middle" x="1275.74" y="-195.15" font-family="Times,serif" font-size="14.00"> de Computadores I</text>
</g>
<!-- PCS3225&#45;&gt;PCS3412 -->
<g id="edge2" class="edge">
<title>PCS3225&#45;&gt;PCS3412</title>
<path fill="none" stroke="black" d="M1081.17,-280.31C1115.61,-267.39 1166.37,-248.36 1207.41,-232.97"/>
<polygon fill="black" stroke="black" points="1208.67,-236.24 1216.81,-229.45 1206.21,-229.68 1208.67,-236.24"/>
</g>
<!-- PCS3335 -->
<g id="node14" class="node">
<title>PCS3335</title>
<ellipse fill="none" stroke="black" cx="833.74" cy="-206.35" rx="87.18" ry="18"/>
<text text-anchor="middle" x="833.74" y="-202.65" font-family="Times,serif" font-size="14.00">Laboratório Digital A</text>
</g>
<!-- PCS3225&#45;&gt;PCS3335 -->
<g id="edge3" class="edge">
<title>PCS3225&#45;&gt;PCS3335</title>
<path fill="none" stroke="black" d="M1005.51,-279.81C970.53,-265.05 917.43,-242.65 879.54,-226.67"/>
<polygon fill="black" stroke="black" points="880.83,-223.41 870.25,-222.75 878.11,-229.86 880.83,-223.41"/>
</g>
<!-- PCS3216 -->
<g id="node27" class="node">
<title>PCS3216</title>
<ellipse fill="none" stroke="black" cx="1041.74" cy="-206.35" rx="102.88" ry="18"/>
<text text-anchor="middle" x="1041.74" y="-202.65" font-family="Times,serif" font-size="14.00">Sistemas de Programação</text>
</g>
<!-- PCS3225&#45;&gt;PCS3216 -->
<g id="edge14" class="edge">
<title>PCS3225&#45;&gt;PCS3216</title>
<path fill="none" stroke="black" d="M1041.74,-277.76C1041.74,-265.42 1041.74,-248.6 1041.74,-234.49"/>
<polygon fill="black" stroke="black" points="1045.24,-234.35 1041.74,-224.35 1038.24,-234.35 1045.24,-234.35"/>
</g>
<!-- PEA3301 -->
<g id="node12" class="node">
<title>PEA3301</title>
<ellipse fill="none" stroke="black" cx="1877.74" cy="-385.83" rx="96.33" ry="26.74"/>
<text text-anchor="middle" x="1877.74" y="-389.63" font-family="Times,serif" font-size="14.00">Introdução aos</text>
<text text-anchor="middle" x="1877.74" y="-374.63" font-family="Times,serif" font-size="14.00"> Sistemas de Potência</text>
</g>
<!-- PCS3422 -->
<g id="node25" class="node">
<title>PCS3422</title>
<ellipse fill="none" stroke="black" cx="1053.74" cy="-116.61" rx="113.27" ry="26.74"/>
<text text-anchor="middle" x="1053.74" y="-120.41" font-family="Times,serif" font-size="14.00">Organização e Arquitetura</text>
<text text-anchor="middle" x="1053.74" y="-105.41" font-family="Times,serif" font-size="14.00"> de Computadores II</text>
</g>
<!-- PCS3412&#45;&gt;PCS3422 -->
<g id="edge12" class="edge">
<title>PCS3412&#45;&gt;PCS3422</title>
<path fill="none" stroke="black" d="M1219.15,-182.98C1188.88,-171.02 1151.44,-156.22 1119.84,-143.73"/>
<polygon fill="black" stroke="black" points="1120.82,-140.36 1110.23,-139.94 1118.25,-146.87 1120.82,-140.36"/>
</g>
<!-- PCS3446 -->
<g id="node26" class="node">
<title>PCS3446</title>
<ellipse fill="none" stroke="black" cx="1275.74" cy="-116.61" rx="90.98" ry="18"/>
<text text-anchor="middle" x="1275.74" y="-112.91" font-family="Times,serif" font-size="14.00">Sistemas Operacionais</text>
</g>
<!-- PCS3412&#45;&gt;PCS3446 -->
<g id="edge13" class="edge">
<title>PCS3412&#45;&gt;PCS3446</title>
<path fill="none" stroke="black" d="M1275.74,-179.03C1275.74,-168.27 1275.74,-155.84 1275.74,-144.98"/>
<polygon fill="black" stroke="black" points="1279.24,-144.77 1275.74,-134.77 1272.24,-144.77 1279.24,-144.77"/>
</g>
<!-- PCS3432 -->
<g id="node28" class="node">
<title>PCS3432</title>
<ellipse fill="none" stroke="black" cx="843.74" cy="-116.61" rx="68.68" ry="26.74"/>
<text text-anchor="middle" x="843.74" y="-120.41" font-family="Times,serif" font-size="14.00">Laboratório de</text>
<text text-anchor="middle" x="843.74" y="-105.41" font-family="Times,serif" font-size="14.00"> Processadores</text>
</g>
<!-- PCS3412&#45;&gt;PCS3432 -->
<g id="edge16" class="edge">
<title>PCS3412&#45;&gt;PCS3432</title>
<path fill="none" stroke="black" stroke-dasharray="5,2" d="M1194.48,-187.55C1180.9,-184.74 1166.94,-181.95 1153.74,-179.48 1055.49,-161.11 1029.21,-165.62 931.74,-143.48 923.28,-141.56 914.43,-139.28 905.75,-136.89"/>
<polygon fill="black" stroke="black" points="906.62,-133.5 896.04,-134.15 904.72,-140.24 906.62,-133.5"/>
</g>
<!-- PCS3550 -->
<g id="node31" class="node">
<title>PCS3550</title>
<ellipse fill="none" stroke="black" cx="1445.74" cy="-116.61" rx="60.62" ry="26.74"/>
<text text-anchor="middle" x="1445.74" y="-120.41" font-family="Times,serif" font-size="14.00">Projeto de</text>
<text text-anchor="middle" x="1445.74" y="-105.41" font-family="Times,serif" font-size="14.00"> Formatura I</text>
</g>
<!-- PCS3412&#45;&gt;PCS3550 -->
<g id="edge19" class="edge">
<title>PCS3412&#45;&gt;PCS3550</title>
<path fill="none" stroke="black" d="M1321.75,-181.61C1345.46,-169.37 1374.35,-154.46 1398.27,-142.11"/>
<polygon fill="black" stroke="black" points="1399.9,-145.21 1407.18,-137.51 1396.69,-138.99 1399.9,-145.21"/>
</g>
<!-- PCS3335&#45;&gt;PCS3432 -->
<g id="edge15" class="edge">
<title>PCS3335&#45;&gt;PCS3432</title>
<path fill="none" stroke="black" d="M835.72,-188.02C836.83,-178.2 838.28,-165.56 839.63,-153.69"/>
<polygon fill="black" stroke="black" points="843.13,-153.89 840.78,-143.56 836.17,-153.1 843.13,-153.89"/>
</g>
<!-- PSI3321 -->
<g id="node15" class="node">
<title>PSI3321</title>
<ellipse fill="none" stroke="blue" cx="2067.74" cy="-385.83" rx="51.99" ry="18"/>
<text text-anchor="middle" x="2067.74" y="-382.13" font-family="Times,serif" font-size="14.00" fill="blue">Eletrônica I</text>
</g>
<!-- PSI3322 -->
<g id="node19" class="node">
<title>PSI3322</title>
<ellipse fill="none" stroke="black" cx="2067.74" cy="-296.09" rx="55.49" ry="18"/>
<text text-anchor="middle" x="2067.74" y="-292.39" font-family="Times,serif" font-size="14.00">Eletrônica II</text>
</g>
<!-- PSI3321&#45;&gt;PSI3322 -->
<g id="edge6" class="edge">
<title>PSI3321&#45;&gt;PSI3322</title>
<path fill="none" stroke="black" d="M2067.74,-367.5C2067.74,-355.16 2067.74,-338.34 2067.74,-324.23"/>
<polygon fill="black" stroke="black" points="2071.24,-324.09 2067.74,-314.09 2064.24,-324.09 2071.24,-324.09"/>
</g>
<!-- PTC3307 -->
<g id="node16" class="node">
<title>PTC3307</title>
<ellipse fill="none" stroke="black" cx="1643.74" cy="-385.83" rx="72.59" ry="18"/>
<text text-anchor="middle" x="1643.74" y="-382.13" font-family="Times,serif" font-size="14.00">Sistemas e Sinais</text>
</g>
<!-- PTC3361 -->
<g id="node23" class="node">
<title>PTC3361</title>
<ellipse fill="none" stroke="black" cx="1866.74" cy="-296.09" rx="125.32" ry="26.74"/>
<text text-anchor="middle" x="1866.74" y="-299.89" font-family="Times,serif" font-size="14.00">Introdução ao Processamento</text>
<text text-anchor="middle" x="1866.74" y="-284.89" font-family="Times,serif" font-size="14.00"> Digital de Sinais</text>
</g>
<!-- PTC3307&#45;&gt;PTC3361 -->
<g id="edge10" class="edge">
<title>PTC3307&#45;&gt;PTC3361</title>
<path fill="none" stroke="black" d="M1680.82,-370.24C1712.9,-357.62 1760.11,-339.04 1798.93,-323.77"/>
<polygon fill="black" stroke="black" points="1800.58,-326.88 1808.6,-319.96 1798.02,-320.37 1800.58,-326.88"/>
</g>
<!-- PTC3360 -->
<g id="node24" class="node">
<title>PTC3360</title>
<ellipse fill="none" stroke="black" cx="1619.74" cy="-296.09" rx="103.89" ry="26.74"/>
<text text-anchor="middle" x="1619.74" y="-299.89" font-family="Times,serif" font-size="14.00">Introdução a</text>
<text text-anchor="middle" x="1619.74" y="-284.89" font-family="Times,serif" font-size="14.00"> Redes e Comunicações</text>
</g>
<!-- PTC3307&#45;&gt;PTC3360 -->
<g id="edge11" class="edge">
<title>PTC3307&#45;&gt;PTC3360</title>
<path fill="none" stroke="black" d="M1639,-367.5C1636.29,-357.59 1632.79,-344.78 1629.51,-332.82"/>
<polygon fill="black" stroke="black" points="1632.85,-331.76 1626.84,-323.04 1626.1,-333.61 1632.85,-331.76"/>
</g>
<!-- PEA3306 -->
<g id="node17" class="node">
<title>PEA3306</title>
<ellipse fill="none" stroke="black" cx="2258.74" cy="-385.83" rx="115.93" ry="26.74"/>
<text text-anchor="middle" x="2258.74" y="-389.63" font-family="Times,serif" font-size="14.00">Converção Eletromecânica</text>
<text text-anchor="middle" x="2258.74" y="-374.63" font-family="Times,serif" font-size="14.00"> de Energia</text>
</g>
<!-- PEA3311 -->
<g id="node18" class="node">
<title>PEA3311</title>
<ellipse fill="none" stroke="black" cx="2258.74" cy="-296.09" rx="118.17" ry="26.74"/>
<text text-anchor="middle" x="2258.74" y="-299.89" font-family="Times,serif" font-size="14.00">Laboratório de Converção</text>
<text text-anchor="middle" x="2258.74" y="-284.89" font-family="Times,serif" font-size="14.00"> Eletromecânica de Energia</text>
</g>
<!-- PEA3306&#45;&gt;PEA3311 -->
<g id="edge5" class="edge">
<title>PEA3306&#45;&gt;PEA3311</title>
<path fill="none" stroke="black" stroke-dasharray="5,2" d="M2252.52,-358.98C2252.02,-350.93 2251.87,-341.9 2252.08,-333.28"/>
<polygon fill="black" stroke="black" points="2255.59,-333.2 2252.52,-323.06 2248.6,-332.9 2255.59,-333.2"/>
</g>
<!-- PEA3311&#45;&gt;PEA3306 -->
<g id="edge4" class="edge">
<title>PEA3311&#45;&gt;PEA3306</title>
<path fill="none" stroke="black" stroke-dasharray="5,2" d="M2264.96,-323.06C2265.47,-331.12 2265.61,-340.15 2265.4,-348.77"/>
<polygon fill="black" stroke="black" points="2261.89,-348.84 2264.96,-358.98 2268.88,-349.14 2261.89,-348.84"/>
</g>
<!-- PSI3323 -->
<g id="node20" class="node">
<title>PSI3323</title>
<ellipse fill="none" stroke="black" cx="2067.74" cy="-206.35" rx="68.68" ry="26.74"/>
<text text-anchor="middle" x="2067.74" y="-210.15" font-family="Times,serif" font-size="14.00">Laboratório de</text>
<text text-anchor="middle" x="2067.74" y="-195.15" font-family="Times,serif" font-size="14.00"> Eletrônica I</text>
</g>
<!-- PSI3322&#45;&gt;PSI3323 -->
<g id="edge7" class="edge">
<title>PSI3322&#45;&gt;PSI3323</title>
<path fill="none" stroke="black" stroke-dasharray="5,2" d="M2067.74,-277.76C2067.74,-267.94 2067.74,-255.3 2067.74,-243.43"/>
<polygon fill="black" stroke="black" points="2071.24,-243.3 2067.74,-233.3 2064.24,-243.3 2071.24,-243.3"/>
</g>
<!-- PCS3414 -->
<g id="node29" class="node">
<title>PCS3414</title>
<ellipse fill="none" stroke="black" cx="1619.74" cy="-206.35" rx="102.88" ry="18"/>
<text text-anchor="middle" x="1619.74" y="-202.65" font-family="Times,serif" font-size="14.00">Redes de Computadores I</text>
</g>
<!-- PTC3360&#45;&gt;PCS3414 -->
<g id="edge17" class="edge">
<title>PTC3360&#45;&gt;PCS3414</title>
<path fill="none" stroke="black" d="M1619.74,-268.77C1619.74,-258.01 1619.74,-245.58 1619.74,-234.72"/>
<polygon fill="black" stroke="black" points="1623.24,-234.51 1619.74,-224.51 1616.24,-234.51 1623.24,-234.51"/>
</g>
<!-- PCS3434 -->
<g id="node30" class="node">
<title>PCS3434</title>
<ellipse fill="none" stroke="black" cx="1619.74" cy="-116.61" rx="94.51" ry="26.74"/>
<text text-anchor="middle" x="1619.74" y="-120.41" font-family="Times,serif" font-size="14.00">Laboratório de Redes</text>
<text text-anchor="middle" x="1619.74" y="-105.41" font-family="Times,serif" font-size="14.00"> de Computadores</text>
</g>
<!-- PCS3414&#45;&gt;PCS3434 -->
<g id="edge18" class="edge">
<title>PCS3414&#45;&gt;PCS3434</title>
<path fill="none" stroke="black" d="M1619.74,-188.02C1619.74,-178.2 1619.74,-165.56 1619.74,-153.69"/>
<polygon fill="black" stroke="black" points="1623.24,-153.56 1619.74,-143.56 1616.24,-153.56 1623.24,-153.56"/>
</g>
<!-- PCS3414&#45;&gt;PCS3550 -->
<g id="edge20" class="edge">
<title>PCS3414&#45;&gt;PCS3550</title>
<path fill="none" stroke="black" d="M1587.42,-189.05C1561.15,-175.8 1523.68,-156.91 1493.88,-141.88"/>
<polygon fill="black" stroke="black" points="1495.4,-138.73 1484.89,-137.35 1492.25,-144.98 1495.4,-138.73"/>
</g>
<!-- PCS3424 -->
<g id="node32" class="node">
<title>PCS3424</title>
<ellipse fill="none" stroke="black" cx="1827.74" cy="-116.61" rx="94.78" ry="18"/>
<text text-anchor="middle" x="1827.74" y="-112.91" font-family="Times,serif" font-size="14.00">Redes Computadores II</text>
</g>
<!-- PCS3414&#45;&gt;PCS3424 -->
<g id="edge21" class="edge">
<title>PCS3414&#45;&gt;PCS3424</title>
<path fill="none" stroke="black" d="M1657.41,-189.46C1692.12,-174.82 1743.75,-153.04 1781.07,-137.3"/>
<polygon fill="black" stroke="black" points="1782.85,-140.35 1790.7,-133.23 1780.13,-133.9 1782.85,-140.35"/>
</g>
<!-- PCS3560 -->
<g id="node33" class="node">
<title>PCS3560</title>
<ellipse fill="none" stroke="black" cx="1445.74" cy="-26.87" rx="63.78" ry="26.74"/>
<text text-anchor="middle" x="1445.74" y="-30.67" font-family="Times,serif" font-size="14.00">Projeto de</text>
<text text-anchor="middle" x="1445.74" y="-15.67" font-family="Times,serif" font-size="14.00"> Formatura II</text>
</g>
<!-- PCS3550&#45;&gt;PCS3560 -->
<g id="edge22" class="edge">
<title>PCS3550&#45;&gt;PCS3560</title>
<path fill="none" stroke="black" d="M1445.74,-89.29C1445.74,-81.32 1445.74,-72.43 1445.74,-63.94"/>
<polygon fill="black" stroke="black" points="1449.24,-63.87 1445.74,-53.87 1442.24,-63.87 1449.24,-63.87"/>
</g>
</g>
</svg>
