<?xml version="1.0" encoding="UTF-8" standalone="no"?>
<!DOCTYPE svg PUBLIC "-//W3C//DTD SVG 1.1//EN"
 "http://www.w3.org/Graphics/SVG/1.1/DTD/svg11.dtd">
<!-- Generated by graphviz version 2.43.0 (0)
 -->
<!-- Title: g Pages: 1 -->
<svg width="2718pt" height="194pt"
 viewBox="0.00 0.00 2718.00 194.00" xmlns="http://www.w3.org/2000/svg" xmlns:xlink="http://www.w3.org/1999/xlink">
<g id="graph0" class="graph" transform="scale(1 1) rotate(0) translate(4 190)">
<title>g</title>
<polygon fill="white" stroke="transparent" points="-4,4 -4,-190 2714,-190 2714,4 -4,4"/>
<!-- PTC3313 -->
<g id="node1" class="node">
<title>PTC3313</title>
<polygon fill="none" stroke="black" points="170,-185 0,-185 0,-149 170,-149 170,-185"/>
<text text-anchor="middle" x="85" y="-163.3" font-family="Times,serif" font-size="14.00">Sistemas de Controle</text>
</g>
<!-- MAP3121 -->
<g id="node2" class="node">
<title>MAP3121</title>
<polygon fill="none" stroke="blue" points="348,-186 188,-186 188,-148 348,-148 348,-186"/>
<text text-anchor="middle" x="268" y="-170.8" font-family="Times,serif" font-size="14.00" fill="blue">Métodos Numéricos</text>
<text text-anchor="middle" x="268" y="-155.8" font-family="Times,serif" font-size="14.00" fill="blue"> Aplicados</text>
</g>
<!-- PEA3301 -->
<g id="node3" class="node">
<title>PEA3301</title>
<polygon fill="none" stroke="blue" points="539.5,-186 366.5,-186 366.5,-148 539.5,-148 539.5,-186"/>
<text text-anchor="middle" x="453" y="-170.8" font-family="Times,serif" font-size="14.00" fill="blue">Introdução aos</text>
<text text-anchor="middle" x="453" y="-155.8" font-family="Times,serif" font-size="14.00" fill="blue"> Sistemas de Potência</text>
</g>
<!-- PCS3412 -->
<g id="node4" class="node">
<title>PCS3412</title>
<polygon fill="none" stroke="black" points="764,-186 558,-186 558,-148 764,-148 764,-186"/>
<text text-anchor="middle" x="661" y="-170.8" font-family="Times,serif" font-size="14.00">Organização e Arquitetura</text>
<text text-anchor="middle" x="661" y="-155.8" font-family="Times,serif" font-size="14.00"> de Computadores I</text>
</g>
<!-- PCS3422 -->
<g id="node18" class="node">
<title>PCS3422</title>
<polygon fill="none" stroke="black" points="553,-112 347,-112 347,-74 553,-74 553,-112"/>
<text text-anchor="middle" x="450" y="-96.8" font-family="Times,serif" font-size="14.00">Organização e Arquitetura</text>
<text text-anchor="middle" x="450" y="-81.8" font-family="Times,serif" font-size="14.00"> de Computadores II</text>
</g>
<!-- PCS3412&#45;&gt;PCS3422 -->
<g id="edge6" class="edge">
<title>PCS3412&#45;&gt;PCS3422</title>
<path fill="none" stroke="black" d="M608.03,-147.92C579.06,-138.04 542.99,-125.73 512.63,-115.37"/>
<polygon fill="black" stroke="black" points="513.59,-112 502.99,-112.08 511.33,-118.63 513.59,-112"/>
</g>
<!-- PCS3446 -->
<g id="node19" class="node">
<title>PCS3446</title>
<polygon fill="none" stroke="black" points="750.5,-111 571.5,-111 571.5,-75 750.5,-75 750.5,-111"/>
<text text-anchor="middle" x="661" y="-89.3" font-family="Times,serif" font-size="14.00">Sistemas Operacionais</text>
</g>
<!-- PCS3412&#45;&gt;PCS3446 -->
<g id="edge7" class="edge">
<title>PCS3412&#45;&gt;PCS3446</title>
<path fill="none" stroke="black" d="M661,-147.83C661,-139.89 661,-130.41 661,-121.63"/>
<polygon fill="black" stroke="black" points="664.5,-121.42 661,-111.42 657.5,-121.42 664.5,-121.42"/>
</g>
<!-- PCS3432 -->
<g id="node20" class="node">
<title>PCS3432</title>
<polygon fill="none" stroke="black" points="893.5,-112 768.5,-112 768.5,-74 893.5,-74 893.5,-112"/>
<text text-anchor="middle" x="831" y="-96.8" font-family="Times,serif" font-size="14.00">Laboratório de</text>
<text text-anchor="middle" x="831" y="-81.8" font-family="Times,serif" font-size="14.00"> Processadores</text>
</g>
<!-- PCS3412&#45;&gt;PCS3432 -->
<g id="edge9" class="edge">
<title>PCS3412&#45;&gt;PCS3432</title>
<path fill="none" stroke="black" stroke-dasharray="5,2" d="M703.9,-147.83C726.74,-138.16 755,-126.19 779.07,-115.99"/>
<polygon fill="black" stroke="black" points="780.57,-119.16 788.41,-112.04 777.84,-112.72 780.57,-119.16"/>
</g>
<!-- PCS3550 -->
<g id="node23" class="node">
<title>PCS3550</title>
<polygon fill="none" stroke="black" points="1018.5,-112 911.5,-112 911.5,-74 1018.5,-74 1018.5,-112"/>
<text text-anchor="middle" x="965" y="-96.8" font-family="Times,serif" font-size="14.00">Projeto de</text>
<text text-anchor="middle" x="965" y="-81.8" font-family="Times,serif" font-size="14.00"> Formatura I</text>
</g>
<!-- PCS3412&#45;&gt;PCS3550 -->
<g id="edge11" class="edge">
<title>PCS3412&#45;&gt;PCS3550</title>
<path fill="none" stroke="black" d="M747.17,-147.96C790.74,-138.53 844.62,-126.43 901.53,-112.05"/>
<polygon fill="black" stroke="black" points="902.61,-115.39 911.44,-109.53 900.89,-108.6 902.61,-115.39"/>
</g>
<!-- PCS3216 -->
<g id="node5" class="node">
<title>PCS3216</title>
<polygon fill="none" stroke="black" points="1443.5,-185 1240.5,-185 1240.5,-149 1443.5,-149 1443.5,-185"/>
<text text-anchor="middle" x="1342" y="-163.3" font-family="Times,serif" font-size="14.00">Sistemas de Programação</text>
</g>
<!-- PCS3335 -->
<g id="node6" class="node">
<title>PCS3335</title>
<polygon fill="none" stroke="blue" points="949.5,-185 782.5,-185 782.5,-149 949.5,-149 949.5,-185"/>
<text text-anchor="middle" x="866" y="-163.3" font-family="Times,serif" font-size="14.00" fill="blue">Laboratório Digital A</text>
</g>
<!-- PCS3335&#45;&gt;PCS3432 -->
<g id="edge8" class="edge">
<title>PCS3335&#45;&gt;PCS3432</title>
<path fill="none" stroke="black" d="M857.71,-148.94C853.71,-140.73 848.83,-130.68 844.34,-121.43"/>
<polygon fill="black" stroke="black" points="847.37,-119.66 839.85,-112.2 841.07,-122.72 847.37,-119.66"/>
</g>
<!-- PME3332 -->
<g id="node7" class="node">
<title>PME3332</title>
<polygon fill="none" stroke="black" points="1632,-185 1462,-185 1462,-149 1632,-149 1632,-185"/>
<text text-anchor="middle" x="1547" y="-163.3" font-family="Times,serif" font-size="14.00">Mecânica dos Flúidos</text>
</g>
<!-- PTC3307 -->
<g id="node8" class="node">
<title>PTC3307</title>
<polygon fill="none" stroke="blue" points="1793.5,-185 1650.5,-185 1650.5,-149 1793.5,-149 1793.5,-185"/>
<text text-anchor="middle" x="1722" y="-163.3" font-family="Times,serif" font-size="14.00" fill="blue">Sistemas e Sinais</text>
</g>
<!-- PTC3361 -->
<g id="node16" class="node">
<title>PTC3361</title>
<polygon fill="none" stroke="black" points="1826,-112 1598,-112 1598,-74 1826,-74 1826,-112"/>
<text text-anchor="middle" x="1712" y="-96.8" font-family="Times,serif" font-size="14.00">Introdução ao Processamento</text>
<text text-anchor="middle" x="1712" y="-81.8" font-family="Times,serif" font-size="14.00"> Digital de Sinais</text>
</g>
<!-- PTC3307&#45;&gt;PTC3361 -->
<g id="edge4" class="edge">
<title>PTC3307&#45;&gt;PTC3361</title>
<path fill="none" stroke="black" d="M1719.63,-148.94C1718.53,-140.99 1717.18,-131.31 1715.93,-122.31"/>
<polygon fill="black" stroke="black" points="1719.37,-121.62 1714.53,-112.2 1712.44,-122.59 1719.37,-121.62"/>
</g>
<!-- PTC3360 -->
<g id="node17" class="node">
<title>PTC3360</title>
<polygon fill="none" stroke="black" points="2028,-112 1844,-112 1844,-74 2028,-74 2028,-112"/>
<text text-anchor="middle" x="1936" y="-96.8" font-family="Times,serif" font-size="14.00">Introdução a</text>
<text text-anchor="middle" x="1936" y="-81.8" font-family="Times,serif" font-size="14.00"> Redes e Comunicações</text>
</g>
<!-- PTC3307&#45;&gt;PTC3360 -->
<g id="edge5" class="edge">
<title>PTC3307&#45;&gt;PTC3360</title>
<path fill="none" stroke="black" d="M1772.72,-148.94C1802.62,-138.87 1840.73,-126.05 1872.61,-115.33"/>
<polygon fill="black" stroke="black" points="1873.92,-118.58 1882.29,-112.07 1871.69,-111.94 1873.92,-118.58"/>
</g>
<!-- PME3344 -->
<g id="node9" class="node">
<title>PME3344</title>
<polygon fill="none" stroke="black" points="2012.5,-185 1821.5,-185 1821.5,-149 2012.5,-149 2012.5,-185"/>
<text text-anchor="middle" x="1917" y="-163.3" font-family="Times,serif" font-size="14.00">Termodinâmica Aplicada</text>
</g>
<!-- PEA3306 -->
<g id="node10" class="node">
<title>PEA3306</title>
<polygon fill="none" stroke="blue" points="2257.5,-186 2050.5,-186 2050.5,-148 2257.5,-148 2257.5,-186"/>
<text text-anchor="middle" x="2154" y="-170.8" font-family="Times,serif" font-size="14.00" fill="blue">Converção Eletromecânica</text>
<text text-anchor="middle" x="2154" y="-155.8" font-family="Times,serif" font-size="14.00" fill="blue"> de Energia</text>
</g>
<!-- PEA3311 -->
<g id="node11" class="node">
<title>PEA3311</title>
<polygon fill="none" stroke="blue" points="2261.5,-112 2046.5,-112 2046.5,-74 2261.5,-74 2261.5,-112"/>
<text text-anchor="middle" x="2154" y="-96.8" font-family="Times,serif" font-size="14.00" fill="blue">Laboratório de Converção</text>
<text text-anchor="middle" x="2154" y="-81.8" font-family="Times,serif" font-size="14.00" fill="blue"> Eletromecânica de Energia</text>
</g>
<!-- PEA3306&#45;&gt;PEA3311 -->
<g id="edge2" class="edge">
<title>PEA3306&#45;&gt;PEA3311</title>
<path fill="none" stroke="black" stroke-dasharray="5,2" d="M2148.05,-147.83C2147.3,-140.13 2147.08,-130.97 2147.38,-122.42"/>
<polygon fill="black" stroke="black" points="2150.88,-122.62 2148.02,-112.41 2143.89,-122.17 2150.88,-122.62"/>
</g>
<!-- PEA3311&#45;&gt;PEA3306 -->
<g id="edge1" class="edge">
<title>PEA3311&#45;&gt;PEA3306</title>
<path fill="none" stroke="black" stroke-dasharray="5,2" d="M2159.98,-112.41C2160.71,-120.06 2160.92,-129.11 2160.62,-137.57"/>
<polygon fill="black" stroke="black" points="2157.1,-137.63 2159.95,-147.83 2164.09,-138.08 2157.1,-137.63"/>
</g>
<!-- PCS3438 -->
<g id="node12" class="node">
<title>PCS3438</title>
<polygon fill="none" stroke="black" points="2442,-185 2276,-185 2276,-149 2442,-149 2442,-185"/>
<text text-anchor="middle" x="2359" y="-163.3" font-family="Times,serif" font-size="14.00">Inteligência Artificial</text>
</g>
<!-- PSI3322 -->
<g id="node13" class="node">
<title>PSI3322</title>
<polygon fill="none" stroke="blue" points="2565.5,-185 2460.5,-185 2460.5,-149 2565.5,-149 2565.5,-185"/>
<text text-anchor="middle" x="2513" y="-163.3" font-family="Times,serif" font-size="14.00" fill="blue">Eletrônica II</text>
</g>
<!-- PSI3323 -->
<g id="node14" class="node">
<title>PSI3323</title>
<polygon fill="none" stroke="black" points="2574,-112 2452,-112 2452,-74 2574,-74 2574,-112"/>
<text text-anchor="middle" x="2513" y="-96.8" font-family="Times,serif" font-size="14.00">Laboratório de</text>
<text text-anchor="middle" x="2513" y="-81.8" font-family="Times,serif" font-size="14.00"> Eletrônica</text>
</g>
<!-- PSI3322&#45;&gt;PSI3323 -->
<g id="edge3" class="edge">
<title>PSI3322&#45;&gt;PSI3323</title>
<path fill="none" stroke="black" stroke-dasharray="5,2" d="M2513,-148.94C2513,-140.99 2513,-131.31 2513,-122.31"/>
<polygon fill="black" stroke="black" points="2516.5,-122.2 2513,-112.2 2509.5,-122.2 2516.5,-122.2"/>
</g>
<!-- PTC3314 -->
<g id="node15" class="node">
<title>PTC3314</title>
<polygon fill="none" stroke="blue" points="2710,-185 2584,-185 2584,-149 2710,-149 2710,-185"/>
<text text-anchor="middle" x="2647" y="-163.3" font-family="Times,serif" font-size="14.00" fill="blue">Ondas e Linhas</text>
</g>
<!-- PCS3414 -->
<g id="node21" class="node">
<title>PCS3414</title>
<polygon fill="none" stroke="black" points="1222,-185 1022,-185 1022,-149 1222,-149 1222,-185"/>
<text text-anchor="middle" x="1122" y="-163.3" font-family="Times,serif" font-size="14.00">Redes de Computadores I</text>
</g>
<!-- PCS3434 -->
<g id="node22" class="node">
<title>PCS3434</title>
<polygon fill="none" stroke="black" points="1207,-112 1037,-112 1037,-74 1207,-74 1207,-112"/>
<text text-anchor="middle" x="1122" y="-96.8" font-family="Times,serif" font-size="14.00">Laboratório de Redes</text>
<text text-anchor="middle" x="1122" y="-81.8" font-family="Times,serif" font-size="14.00"> de Computadores</text>
</g>
<!-- PCS3414&#45;&gt;PCS3434 -->
<g id="edge10" class="edge">
<title>PCS3414&#45;&gt;PCS3434</title>
<path fill="none" stroke="black" stroke-dasharray="5,2" d="M1122,-148.94C1122,-140.99 1122,-131.31 1122,-122.31"/>
<polygon fill="black" stroke="black" points="1125.5,-122.2 1122,-112.2 1118.5,-122.2 1125.5,-122.2"/>
</g>
<!-- PCS3414&#45;&gt;PCS3550 -->
<g id="edge12" class="edge">
<title>PCS3414&#45;&gt;PCS3550</title>
<path fill="none" stroke="black" d="M1084.79,-148.94C1063.51,-139.18 1036.58,-126.82 1013.64,-116.3"/>
<polygon fill="black" stroke="black" points="1014.96,-113.06 1004.41,-112.07 1012.04,-119.42 1014.96,-113.06"/>
</g>
<!-- PCS3424 -->
<g id="node24" class="node">
<title>PCS3424</title>
<polygon fill="none" stroke="black" points="1409,-111 1225,-111 1225,-75 1409,-75 1409,-111"/>
<text text-anchor="middle" x="1317" y="-89.3" font-family="Times,serif" font-size="14.00">Redes Computadores II</text>
</g>
<!-- PCS3414&#45;&gt;PCS3424 -->
<g id="edge13" class="edge">
<title>PCS3414&#45;&gt;PCS3424</title>
<path fill="none" stroke="black" d="M1168.21,-148.94C1196.04,-138.66 1231.66,-125.51 1261.07,-114.65"/>
<polygon fill="black" stroke="black" points="1262.61,-117.81 1270.78,-111.07 1260.19,-111.25 1262.61,-117.81"/>
</g>
<!-- PCS3560 -->
<g id="node25" class="node">
<title>PCS3560</title>
<polygon fill="none" stroke="black" points="1021,-38 909,-38 909,0 1021,0 1021,-38"/>
<text text-anchor="middle" x="965" y="-22.8" font-family="Times,serif" font-size="14.00">Projeto de</text>
<text text-anchor="middle" x="965" y="-7.8" font-family="Times,serif" font-size="14.00"> Formatura II</text>
</g>
<!-- PCS3550&#45;&gt;PCS3560 -->
<g id="edge14" class="edge">
<title>PCS3550&#45;&gt;PCS3560</title>
<path fill="none" stroke="black" d="M965,-73.83C965,-66.13 965,-56.97 965,-48.42"/>
<polygon fill="black" stroke="black" points="968.5,-48.41 965,-38.41 961.5,-48.41 968.5,-48.41"/>
</g>
</g>
</svg>
