<?xml version="1.0" encoding="UTF-8" standalone="no"?>
<!DOCTYPE svg PUBLIC "-//W3C//DTD SVG 1.1//EN"
 "http://www.w3.org/Graphics/SVG/1.1/DTD/svg11.dtd">
<!-- Generated by graphviz version 2.43.0 (0)
 -->
<!-- Title: g Pages: 1 -->
<svg width="1601pt" height="194pt"
 viewBox="0.00 0.00 1601.00 194.00" xmlns="http://www.w3.org/2000/svg" xmlns:xlink="http://www.w3.org/1999/xlink">
<g id="graph0" class="graph" transform="scale(1 1) rotate(0) translate(4 190)">
<title>g</title>
<polygon fill="white" stroke="transparent" points="-4,4 -4,-190 1597,-190 1597,4 -4,4"/>
<!-- PTC3313 -->
<g id="node1" class="node">
<title>PTC3313</title>
<polygon fill="none" stroke="black" points="133,-185 0,-185 0,-149 133,-149 133,-185"/>
<text text-anchor="middle" x="66.5" y="-163.3" font-family="Times,serif" font-size="14.00">Sistemas de Controle</text>
</g>
<!-- PEA3301 -->
<g id="node2" class="node">
<title>PEA3301</title>
<polygon fill="none" stroke="blue" points="287.5,-186 151.5,-186 151.5,-148 287.5,-148 287.5,-186"/>
<text text-anchor="middle" x="219.5" y="-170.8" font-family="Times,serif" font-size="14.00" fill="blue">Introdução aos</text>
<text text-anchor="middle" x="219.5" y="-155.8" font-family="Times,serif" font-size="14.00" fill="blue"> Sistemas de Potência</text>
</g>
<!-- PCS3412 -->
<g id="node3" class="node">
<title>PCS3412</title>
<polygon fill="none" stroke="blue" points="465.5,-186 305.5,-186 305.5,-148 465.5,-148 465.5,-186"/>
<text text-anchor="middle" x="385.5" y="-170.8" font-family="Times,serif" font-size="14.00" fill="blue">Organização e Arquitetura</text>
<text text-anchor="middle" x="385.5" y="-155.8" font-family="Times,serif" font-size="14.00" fill="blue"> de Computadores I</text>
</g>
<!-- PCS3422 -->
<g id="node10" class="node">
<title>PCS3422</title>
<polygon fill="none" stroke="black" points="228.5,-112 68.5,-112 68.5,-74 228.5,-74 228.5,-112"/>
<text text-anchor="middle" x="148.5" y="-96.8" font-family="Times,serif" font-size="14.00">Organização e Arquitetura</text>
<text text-anchor="middle" x="148.5" y="-81.8" font-family="Times,serif" font-size="14.00"> de Computadores II</text>
</g>
<!-- PCS3412&#45;&gt;PCS3422 -->
<g id="edge2" class="edge">
<title>PCS3412&#45;&gt;PCS3422</title>
<path fill="none" stroke="black" d="M326,-147.92C293.18,-137.95 252.25,-125.52 217.97,-115.1"/>
<polygon fill="black" stroke="black" points="218.61,-111.64 208.02,-112.08 216.57,-118.34 218.61,-111.64"/>
</g>
<!-- PCS3446 -->
<g id="node11" class="node">
<title>PCS3446</title>
<polygon fill="none" stroke="black" points="386.5,-111 246.5,-111 246.5,-75 386.5,-75 386.5,-111"/>
<text text-anchor="middle" x="316.5" y="-89.3" font-family="Times,serif" font-size="14.00">Sistemas Operacionais</text>
</g>
<!-- PCS3412&#45;&gt;PCS3446 -->
<g id="edge3" class="edge">
<title>PCS3412&#45;&gt;PCS3446</title>
<path fill="none" stroke="black" d="M368.09,-147.83C359.65,-139.02 349.38,-128.31 340.23,-118.76"/>
<polygon fill="black" stroke="black" points="342.64,-116.22 333.19,-111.42 337.58,-121.06 342.64,-116.22"/>
</g>
<!-- PCS3432 -->
<g id="node12" class="node">
<title>PCS3432</title>
<polygon fill="none" stroke="blue" points="502,-112 405,-112 405,-74 502,-74 502,-112"/>
<text text-anchor="middle" x="453.5" y="-96.8" font-family="Times,serif" font-size="14.00" fill="blue">Laboratório de</text>
<text text-anchor="middle" x="453.5" y="-81.8" font-family="Times,serif" font-size="14.00" fill="blue"> Processadores</text>
</g>
<!-- PCS3412&#45;&gt;PCS3432 -->
<g id="edge4" class="edge">
<title>PCS3412&#45;&gt;PCS3432</title>
<path fill="none" stroke="black" stroke-dasharray="5,2" d="M402.66,-147.83C410.65,-139.37 420.3,-129.15 429.04,-119.9"/>
<polygon fill="black" stroke="black" points="431.79,-122.09 436.11,-112.41 426.7,-117.28 431.79,-122.09"/>
</g>
<!-- PCS3550 -->
<g id="node15" class="node">
<title>PCS3550</title>
<polygon fill="none" stroke="black" points="606.5,-112 520.5,-112 520.5,-74 606.5,-74 606.5,-112"/>
<text text-anchor="middle" x="563.5" y="-96.8" font-family="Times,serif" font-size="14.00">Projeto de</text>
<text text-anchor="middle" x="563.5" y="-81.8" font-family="Times,serif" font-size="14.00"> Formatura I</text>
</g>
<!-- PCS3412&#45;&gt;PCS3550 -->
<g id="edge6" class="edge">
<title>PCS3412&#45;&gt;PCS3550</title>
<path fill="none" stroke="black" d="M430.42,-147.83C454.89,-137.93 485.32,-125.62 510.9,-115.28"/>
<polygon fill="black" stroke="black" points="512.48,-118.41 520.44,-111.42 509.86,-111.92 512.48,-118.41"/>
</g>
<!-- PCS3216 -->
<g id="node4" class="node">
<title>PCS3216</title>
<polygon fill="none" stroke="blue" points="951.5,-185 793.5,-185 793.5,-149 951.5,-149 951.5,-185"/>
<text text-anchor="middle" x="872.5" y="-163.3" font-family="Times,serif" font-size="14.00" fill="blue">Sistemas de Programação</text>
</g>
<!-- PTC3307 -->
<g id="node5" class="node">
<title>PTC3307</title>
<polygon fill="none" stroke="blue" points="1085.5,-185 973.5,-185 973.5,-149 1085.5,-149 1085.5,-185"/>
<text text-anchor="middle" x="1029.5" y="-163.3" font-family="Times,serif" font-size="14.00" fill="blue">Sistemas e Sinais</text>
</g>
<!-- PTC3361 -->
<g id="node9" class="node">
<title>PTC3361</title>
<polygon fill="none" stroke="black" points="1118,-112 941,-112 941,-74 1118,-74 1118,-112"/>
<text text-anchor="middle" x="1029.5" y="-96.8" font-family="Times,serif" font-size="14.00">Introdução ao Processamento</text>
<text text-anchor="middle" x="1029.5" y="-81.8" font-family="Times,serif" font-size="14.00"> Digital de Sinais</text>
</g>
<!-- PTC3307&#45;&gt;PTC3361 -->
<g id="edge1" class="edge">
<title>PTC3307&#45;&gt;PTC3361</title>
<path fill="none" stroke="black" d="M1029.5,-148.94C1029.5,-140.99 1029.5,-131.31 1029.5,-122.31"/>
<polygon fill="black" stroke="black" points="1033,-122.2 1029.5,-112.2 1026,-122.2 1033,-122.2"/>
</g>
<!-- PME3344 -->
<g id="node6" class="node">
<title>PME3344</title>
<polygon fill="none" stroke="black" points="1259,-185 1104,-185 1104,-149 1259,-149 1259,-185"/>
<text text-anchor="middle" x="1181.5" y="-163.3" font-family="Times,serif" font-size="14.00">Termodinâmica Aplicada</text>
</g>
<!-- PEA3306 -->
<g id="node7" class="node">
<title>PEA3306</title>
<polygon fill="none" stroke="blue" points="1441.5,-186 1277.5,-186 1277.5,-148 1441.5,-148 1441.5,-186"/>
<text text-anchor="middle" x="1359.5" y="-170.8" font-family="Times,serif" font-size="14.00" fill="blue">Converção Eletromecânica</text>
<text text-anchor="middle" x="1359.5" y="-155.8" font-family="Times,serif" font-size="14.00" fill="blue"> de Energia</text>
</g>
<!-- PCS3438 -->
<g id="node8" class="node">
<title>PCS3438</title>
<polygon fill="none" stroke="black" points="1593,-185 1460,-185 1460,-149 1593,-149 1593,-185"/>
<text text-anchor="middle" x="1526.5" y="-163.3" font-family="Times,serif" font-size="14.00">Inteligência Artificial</text>
</g>
<!-- PCS3414 -->
<g id="node13" class="node">
<title>PCS3414</title>
<polygon fill="none" stroke="blue" points="770.5,-185 612.5,-185 612.5,-149 770.5,-149 770.5,-185"/>
<text text-anchor="middle" x="691.5" y="-163.3" font-family="Times,serif" font-size="14.00" fill="blue">Redes de Computadores I</text>
</g>
<!-- PCS3434 -->
<g id="node14" class="node">
<title>PCS3434</title>
<polygon fill="none" stroke="blue" points="758.5,-112 624.5,-112 624.5,-74 758.5,-74 758.5,-112"/>
<text text-anchor="middle" x="691.5" y="-96.8" font-family="Times,serif" font-size="14.00" fill="blue">Laboratório de Redes</text>
<text text-anchor="middle" x="691.5" y="-81.8" font-family="Times,serif" font-size="14.00" fill="blue"> de Computadores</text>
</g>
<!-- PCS3414&#45;&gt;PCS3434 -->
<g id="edge5" class="edge">
<title>PCS3414&#45;&gt;PCS3434</title>
<path fill="none" stroke="black" stroke-dasharray="5,2" d="M691.5,-148.94C691.5,-140.99 691.5,-131.31 691.5,-122.31"/>
<polygon fill="black" stroke="black" points="695,-122.2 691.5,-112.2 688,-122.2 695,-122.2"/>
</g>
<!-- PCS3414&#45;&gt;PCS3550 -->
<g id="edge7" class="edge">
<title>PCS3414&#45;&gt;PCS3550</title>
<path fill="none" stroke="black" d="M661.17,-148.94C644.27,-139.43 622.99,-127.46 604.61,-117.12"/>
<polygon fill="black" stroke="black" points="606.29,-114.05 595.85,-112.2 602.85,-120.15 606.29,-114.05"/>
</g>
<!-- PCS3424 -->
<g id="node16" class="node">
<title>PCS3424</title>
<polygon fill="none" stroke="black" points="922.5,-111 776.5,-111 776.5,-75 922.5,-75 922.5,-111"/>
<text text-anchor="middle" x="849.5" y="-89.3" font-family="Times,serif" font-size="14.00">Redes Computadores II</text>
</g>
<!-- PCS3414&#45;&gt;PCS3424 -->
<g id="edge8" class="edge">
<title>PCS3414&#45;&gt;PCS3424</title>
<path fill="none" stroke="black" d="M728.94,-148.94C751.1,-138.84 779.35,-125.97 802.93,-115.22"/>
<polygon fill="black" stroke="black" points="804.4,-118.4 812.05,-111.07 801.5,-112.03 804.4,-118.4"/>
</g>
<!-- PCS3560 -->
<g id="node17" class="node">
<title>PCS3560</title>
<polygon fill="none" stroke="black" points="608.5,-38 518.5,-38 518.5,0 608.5,0 608.5,-38"/>
<text text-anchor="middle" x="563.5" y="-22.8" font-family="Times,serif" font-size="14.00">Projeto de</text>
<text text-anchor="middle" x="563.5" y="-7.8" font-family="Times,serif" font-size="14.00"> Formatura II</text>
</g>
<!-- PCS3550&#45;&gt;PCS3560 -->
<g id="edge9" class="edge">
<title>PCS3550&#45;&gt;PCS3560</title>
<path fill="none" stroke="black" d="M563.5,-73.83C563.5,-66.13 563.5,-56.97 563.5,-48.42"/>
<polygon fill="black" stroke="black" points="567,-48.41 563.5,-38.41 560,-48.41 567,-48.41"/>
</g>
</g>
</svg>
