<?xml version="1.0" encoding="UTF-8" standalone="no"?>
<svg
   xmlns:dc="http://purl.org/dc/elements/1.1/"
   xmlns:cc="http://creativecommons.org/ns#"
   xmlns:rdf="http://www.w3.org/1999/02/22-rdf-syntax-ns#"
   xmlns:svg="http://www.w3.org/2000/svg"
   xmlns="http://www.w3.org/2000/svg"
   xmlns:sodipodi="http://sodipodi.sourceforge.net/DTD/sodipodi-0.dtd"
   xmlns:inkscape="http://www.inkscape.org/namespaces/inkscape"
   inkscape:version="1.0 (6e3e5246a0, 2020-05-07)"
   sodipodi:docname="poli.pdf"
   viewBox="0 0 949 1080"
   height="1080"
   width="949"
   id="svg168"
   version="1.1">
  <metadata
     id="metadata174">
    <rdf:RDF>
      <cc:Work
         rdf:about="">
        <dc:format>image/svg+xml</dc:format>
        <dc:type
           rdf:resource="http://purl.org/dc/dcmitype/StillImage" />
        <dc:title></dc:title>
      </cc:Work>
    </rdf:RDF>
  </metadata>
  <defs
     id="defs172" />
  <sodipodi:namedview
     borderlayer="false"
     inkscape:pagecheckerboard="true"
     inkscape:current-layer="g176"
     inkscape:window-maximized="1"
     inkscape:window-y="27"
     inkscape:window-x="72"
     inkscape:cy="586.94332"
     inkscape:cx="490.63012"
     inkscape:zoom="0.80555556"
     showgrid="false"
     id="namedview170"
     inkscape:window-height="1016"
     inkscape:window-width="1848"
     inkscape:pageshadow="2"
     inkscape:pageopacity="0"
     guidetolerance="10"
     gridtolerance="10"
     objecttolerance="10"
     borderopacity="1"
     bordercolor="#666666"
     pagecolor="#ffffff" />
  <g
     id="g176"
     inkscape:label="Image"
     inkscape:groupmode="layer">
    <path
       id="path180"
       d="m 363.38868,60.411529 c -1.045,-5.088 -0.982,-12.2324 -4.886,-16.1055 -2.16,-2.1435 -5.218,-2.8076 -8.12,-3.2568 -7.429,-1.1502 -23.158,-5.1421 -29.264,0.2704 -4.364,3.8684 -5.617,10.9116 -7.798,16.0919 -3.261,7.7437 -7.499,14.603002 -12.932,21.000002 -0.982,-7.7416 -0.901,-18.470302 -5.908,-24.778002 -5.76,-7.2569 -15.534,-8.0778 -24.092,-8.8597 -7.47,-0.6825 -16.845,-1.5417 -24,1.0846 -8.463,3.1064 -15.645,10.3218 -23,15.3794 -6.435,4.4247 -14.106,8.1753 -19.075,14.347802 -5.971,7.4168 -4.935,16.0492 -6.42,24.824899 -0.562,3.323 -1.921,8.626 -5.548,9.914 -2.548,0.905 -4.71,-1.396 -6.211,-3.125 -3.954,-4.558 -6.222,-10.486399 -11.863,-13.350999 -5.21,-2.6456 -11.226,-2.2508 -16.883,-2.5714 -14.205,-0.8049 -25.221,-1.0705 -36.45,9.017799 -11.897,10.6886 -21.0608,23.6636 -27.823602,38.1166 -2.7189,5.811 -5.9636,12.4 -4.9475,19 1.2752,8.282 8.0374,13.763 15.221102,17.111 13.494,6.288 32.471,7.836 47,4.889 -9.006,11.21 -19.778,21.028 -29.119,32 -22.6459,26.599 -45.179802,57.674 -58.881002,90 h -2 c -4.0931,-7.447 -9.0798,-3.861 -12.9938,2.02 -5.7693,8.668 -8.1703,18.731 -9.0062,28.98 l -5,-4 -3,33 -5,-3 -2.2663,20 0.63,14 -6.3637,22 -4,-5 h -1 l -2,29 -5,-2 c -1.5698,9.935 0.76431,20.594 4,30 l -4,-1 3.52738,28 -1.52738,26 -7,-4 c 2e-5,13.385 -0.16791,26.767 6,39 l -6,-1 8,29 -6,-1 c 0.80382,14.551 4.20051,28.093 11,41 l -5,-1 c 3.2304,13.348 9.2768,24.747 17,36 h -5 c 6.4895,13.771 18.7201,20.339 28.0067,31.512 7.4831,9.004 10.898,22.196 16.3651,32.488 5.1568,9.707 14.502,21.158 16.5038,32 1.4675,7.948 -1.2674,13.587 -3.1245,21 -3.6846,14.708 -10.1434,28.646 -11.47,44 -0.5231,6.054 -1.7235,15.212 1.4426,20.681 2.4093,4.161 7.0361,5.286 10.6861,7.955 6.0624,4.433 8.6405,9.199 16.5911,10.952 7.308102,1.611 16.389102,1.103 22.836102,-3.052 3.074,-1.981 5.056,-5.049 7.854,-7.331 2.755,-2.247 6.23,-3.429 8.798,-5.932 4.168,-4.063 4.375,-9.822 4.511,-15.273 h 1 c 8.05,12.001 21.169,21.96 32,31.399 19.885,17.32804 41.39,33.02704 64,46.60104 10.333,6.203 20.568,12.985 32,17 v 1 c -8.423,3.468 -13.448,10.74 -13.603,20 -0.098,5.82 2.537,11.971 8.651,13.436 17.442,4.179 34.349,-10.825 50.952,-11.979 5.693,-0.395 11.67,2.817 17,4.478 12.066,3.761 24.465,8.25 37,10.065 v 1 c -4.882,1.75 -15.537,3.865 -18.042,8.866 -2.587,5.16396 4.346,14.42696 7.482,18.04396 11.975,13.81197 28.852,24.72997 44.56,33.78997 5.372,3.1 12.207,5.72 16.207,10.63 5.083,6.24 0.518,14.17 -7.213,14.51 -6.97,0.31 -12.766,-4.97 -17.994,-8.84 2.575,17.7 15.953,34.36 35,34.86 6.853,0.18 12.76,-2.4 19,-4.86 8.718,12.83 26.742,17.45 40.999,11.53 5.351,-2.23 9.608,-8.08 15.198,-9.32 6.075,-1.34 13.255,3.1 19.803,2.54 18.425,-1.55 29.999,-17.79 33,-34.75 -5.232,3.78 -11.088,9.13 -17.994,8.84 -7.737,-0.32 -12.289,-8.28 -7.213,-14.51 4,-4.91 10.835,-7.53 16.207,-10.63 15.629,-9.01 32.328,-19.74 44.256,-33.46097 3.271,-3.762 10.524,-12.971 7.791,-18.37296 -2.531,-5.003 -13.149,-7.11 -18.047,-8.866 v -1 c 12.615,-1.824 24.875,-6.384 37,-10.174 5.372,-1.679 11.255,-4.673 17,-4.28 16.622,1.138 33.5,16.071 50.952,11.89 11.894,-2.85 9.717,-19.775 4.05,-27.211 -2.157,-2.83 -4.935,-4.552 -8.002,-6.225 v -1 c 48.596,-21.688 90.753,-57.75204 128,-95.00004 0.136,5.451 0.343,11.21 4.511,15.273 2.568,2.503 6.043,3.685 8.798,5.932 3.097,2.525 5.232,5.886 8.788,7.891 8.248,4.649 21.507,4.601 29.684,-0.217 3.585,-2.113 5.519,-5.824 8.808,-8.248 3.633,-2.678 8.159,-3.913 10.593,-8.025 3.36,-5.676 2.075,-15.312 1.442,-21.606 -1.5,-14.924 -7.727,-28.662 -11.379,-43 -1.926,-7.557 -4.507,-12.893 -3.029,-21 2.048,-11.238 11.674,-22.91 16.941,-33 5.204,-9.971 8.509,-22.852 15.802,-31.488 3.44,-4.072 8.157,-7.017 12.023,-10.668 6.426,-6.07 11.98,-12.971 16.018,-20.844 h -5 c 7.641,-11.138 13.919,-22.757 17,-36 l -5,1 c 6.685,-12.919 10.457,-26.429 11,-41 l -6,1 8,-29 -6,1 c 6.168,-12.233 6,-25.615 6,-39 l -7,4 -1.532,-26 3.532,-28 -4,1 c 2.934,-9.486 5.651,-20.049 4,-30 l -5,2 -2,-29 h -1 l -4,5 -6.364,-22 0.63,-14 -2.266,-20 -5,3 -3,-33 -5,4 c -0.83,-10.176 -3.089,-20.375 -8.845,-28.98 -3.941,-5.893 -9.052,-9.476 -13.155,-2.02 h -2 c -5.543,-14 -14.144,-27.407 -22.326,-40 -19.133,-29.449 -41.558,-54.734 -64.674,-81 18.132,0 44.666,1.923 57.25,-14.113 6.734,-8.581 3.659,-17.953 -0.455,-26.887 -6.094,-13.231 -14.3,-25.448 -24.716,-35.693 -4.684,-4.607399 -9.743,-9.276099 -16.08,-11.423199 -8.225,-2.7871 -16.571,-1.3602 -24.999,-0.9689 -5.666,0.2631 -11.739,0.0183 -16.798,3.027 -5.043,2.9987 -7.372,8.555099 -11.076,12.846099 -1.691,1.96 -4.17,4.415 -6.896,2.763 -3.889,-2.358 -4.729,-8.478 -5.088,-12.550999 -0.681,-7.7098 -0.875,-15.497 -5.97,-21.8259 -4.959,-6.159602 -12.73,-9.947302 -19.172,-14.338702 -7.33,-4.9968 -14.628,-12.2784 -23,-15.3836 -7.136,-2.6469 -16.543,-1.7709 -24,-1.0895 -8.571,0.7832 -18.256,1.6492 -24.017,8.9207 -5.021,6.3365 -4.998,16.951702 -5.983,24.717002 -6.187,-6.7109 -10.097,-14.655502 -13.628,-23.000002 -1.958,-4.6277 -3.203,-10.6357 -7.102,-14.0919 -6.178,-5.4761 -21.784,-1.4392 -29.264,-0.2716 -2.902,0.453 -5.959,1.1134 -8.12,3.258 -3.904,3.8731 -3.841,11.0175 -4.886,16.1055 -3.77,-9.3367 -5.893,-18.967 -6.724,-29 -0.503,-6.0768 0.757,-13.2471 -2.36,-18.7754 -2.892,-5.1303602 -8.502,-6.4907102 -13.916,-7.2629302 -8.682,-1.23828 -17.327,-2.57056 -26,-3.87549 -4.585,-0.68994 -9.565,-1.46558 -13.669,1.27356 -7.667,5.11755 -9.815,16.9926602 -16.331,23.6402602 -10.108,-29.5092802 -54.463,-28.4360402 -65,0 h -2 c -3.589,-7.3743 -7.512,-18.8768302 -14.491,-23.6402602 -3.748,-2.55786 -8.265,-2.03552 -12.509,-1.42493 -9.009,1.29627 -17.996,2.74561 -26.999,4.07666 -5.099,0.75379 -10.218,1.65003 -13.295,6.2456302 -3.809,5.6907 -2.447,13.2805 -2.982,19.7429 -0.83,10.033 -2.954,19.6633 -6.724,29 m 46,-53.0000002 c -14.485,18.9777002 -19.332,41.1310002 -24.801,64.0000022 -1.354,5.6649 -2.706,11.5654 -5.02,16.9297 -0.877,2.0335 -2.136,4.7981 -4.543,5.3491 -3.173,0.7263 -5.121,-2.9637 -6.08,-5.3491 -2.499,-6.2122 -3.997,-14.4138 -2.105,-20.929702 3.257,-11.2189 7.492,-21.1221 8.348,-33 0.486,-6.7516 -0.927,-15.9563 4.803,-20.9324 6.644,-5.7685302 21.008,-5.1832002 29.398,-6.0676002 m 9,42.0000002 c -4.152,-6.7697 -9.36,-13.6526 -12.404,-21 -3.486,-8.415 6.91,-21.4697302 16.155,-19.7197302 6.592,1.24781 11.281,14.3077302 13.819,19.7082302 1.074,2.2859 2.141,4.902 0.842,7.3296 -2.897,5.41 -13.269,10.4158 -18.412,13.6819 m 123,-42.0000002 c 8.391,1.36975 21.681,0.31152 28.446,6.0676002 5.79,4.9264 4.265,14.1802 4.755,20.9324 0.833,11.481 4.51,21.2472 8.117,32 2.278,6.791902 0.764,15.382502 -1.874,21.929702 -0.978,2.4274 -2.946,6.0721 -6.154,5.3491 -2.431,-0.5478 -3.655,-3.2909 -4.516,-5.3491 -2.385,-5.7045 -3.784,-11.9314 -5.21,-17.9297 -4.957,-20.860202 -8.72,-46.350002 -24.564,-62.0000022 l 1,-1 m -10,42.0000002 c -5.107,-3.3881 -15.52,-8.2349 -18.406,-13.6819 -1.301,-2.4551 -0.151,-5.0731 1.01,-7.3296 2.717,-5.2826 8.011,-18.26475 14.611,-19.2162802 8.633,-1.24488 17.5,10.2871802 14.949,18.2277802 -2.476,7.705 -8.129,15.0165 -12.164,22 m -58,-37.4585 c 29.485,-1.69787 40.582,38.7335 14.99,52.9602 -3.685,2.0484 -7.795,3.0889 -11.99,3.3213 -29.235,1.6191 -40.934,-39.0474 -14.981,-52.9988 3.649,-1.9617 7.852,-3.0449 11.981,-3.2827 m -3.999,8.2881 c -25.965,6.7408 -14.584,46.6858 10.999,39.7695 25.836,-6.9848 14.78,-46.4623 -10.999,-39.7695 m 2.011,6.8892 c 17.132,-4.3624 23.996,21.4564 6.965,26.2593 -16.814,4.7417 -24.219,-21.866 -6.965,-26.2593 m -70.012,4.2812 11,19 -17,3 6,-22 m 148,0 5,22 -17,-3 10,-19 h 2 m -110,12 4,14 c -18.85,13.531102 -32.534,32.059902 -33.496,56.000001 -0.311,7.727 1.6,15.37 2.496,23 -21.651,3.81 -45.789,13.65 -68,9.08 -17.331,-3.566 -27.488,-22.582 -47,-19.907 -9.126,1.252 -18.635,7.866 -21.631,16.827 -2.623,7.845 2.365,19.972 11.634,20.522 8.8,0.522 9.555,-8.922 15.127,-12.839 3.487,-2.449 9.119,-0.5 12.87,0.317 -0.983,5.311 -2.505,10.407 -5.516,14.962 -9.845,14.897 -31.444,15.937 -42.563,1.925 -7.7,-9.701 -8.66,-23.663 -3.977,-34.886 7.689,-18.426 32.152,-24.111 50.056,-20.426 12.379,2.548 19.938,11.229 31,16.097 10.141,4.463 23.521,1.622 34,-0.311 3.998,-0.737 8.977,-1.139 12.454,-3.415 3.721,-2.435 3.435,-7.011 3.594,-10.948 0.258,-6.376 1.116,-12.834 2.794,-18.997999 5.584,-20.5082 20.865,-44.361002 42.158,-51.000002 m 98,93.000001 c 0.858,-7.304 2.766,-14.605 2.501,-22 -0.858,-23.932299 -14.056,-43.779799 -33.501,-57.000001 l 4,-14 c 21.109,6.5818 36.046,29.779502 41.877,50.000002 1.866,6.4703 2.803,13.277999 3.075,19.997999 0.178,4.394 -0.012,9.063 4.397,11.426 3.75,2.011 8.514,2.459 12.651,3.154 9.653,1.621 21.498,4.143 31,0.81 7.735,-2.713 13.689,-9.182 21,-12.821 15.319,-7.624 34.195,-6.46 48.995,1.841 14.076,7.893 19.187,25.759 13.75,40.592 -5.58,15.22 -22.709,24.224 -37.735,15.835 -5.826,-3.253 -10.363,-8.604 -12.753,-14.823 -2.193,-5.707 -0.845,-9.747 5.691,-10.251 8.912,-0.687 9.369,12.097 18.063,13.642 8.464,1.504 14.874,-9.044 14.412,-16.403 -0.368,-5.862 -4.145,-10.834 -8.48,-14.506 -2.373,-2.011 -5.041,-3.662 -7.943,-4.791 -21.943,-8.535 -34.008,14.46 -53,18.377 -22.204,4.579 -46.355,-5.271 -68,-9.08 m -187,-89.000001 c -1.763,7.6492 -4.339,14.9467 -7.799,22 -4.522,9.216602 -11.046,20.440102 -20.205,25.718402 -6.609,3.8082 -15.013,-0.4174 -16.882,-7.7307 -1.626,-6.3607 5.37,-12.929 8.306,-17.987702 3.592,-6.1876 5.87,-19.5239 12.219,-23.2363 5.988,-3.5021 17.873,0.3346 24.361,1.2363 m 250,-1 c 6.521,-0.2404 16.457,-3.3456 22.566,-0.6882 4.529,1.9696 5.947,8.5567 7.657,12.6883 2.02,4.8801 4.342,9.5481 7.193,13.999902 4.075,6.3627 9.908,12.5826 3.847,19.7407 -6.824,8.058899 -15.036,3.5861 -21.023,-2.7899 -10.605,-11.2949 -17.97,-27.672802 -20.24,-42.950802 m -321,5 c -17.57,7.791 -38.013,15.5963 -48.604,33.000302 -7.291,11.9822 1.36,37.611699 -18.401,40.373699 -4.597,0.643 -15.384,-1.986 -14.735,-8.283 0.464,-4.503 4.43,-8.423 5.235,-13.093 1.274,-7.387799 0.087,-14.994999 3.742,-21.898499 3.8,-7.1793 12.245,-11.607402 18.763,-15.988302 7.5,-5.0411 15.344,-12.0338 24,-14.9189 9.132,-3.044 20.807,-1.0767 30,0.8077 m 391,1 c 8.338,-3.9321 22.334,-4.8153 31,-1.4453 8.604,3.3457 16.385,10.107 24,15.2266 7.188,4.832602 15.975,9.617902 19.01,18.237402 2.186,6.2066 1.399,12.6233 2.495,18.979299 0.805,4.67 4.771,8.59 5.235,13.093 0.649,6.297 -10.138,8.926 -14.735,8.283 -19.028,-2.66 -11.607,-26.377399 -17.321,-38.373999 -2.563,-5.3823 -7.272,-9.7047 -11.686,-13.577 -10.798,-9.472702 -23.792,-17.508902 -37.998,-20.423002 m -314,-2 11,49.000002 c -6.039,1.439999 -15.553,4.772999 -21.469,1.720999 -4.715,-2.431699 -4.812,-9.150599 -4.256,-13.721099 0.786,-6.46 4.705,-12.1788 7.346,-17.999902 2.816,-6.2058 4.632,-12.7795 7.379,-19 m 238,1 c 2.396,6.7773 4.77,13.485 7.836,20.000002 2.267,4.8176 5.672,9.6675 6.531,15 1.704,10.5836 -4.059,16.702999 -14.367,15.351999 -4.047,-0.53 -8.034,-1.4063 -12,-2.351999 l 7.235,-22 4.765,-26.000002 m -286,50.000001 c -5.515,0 -11.706,0.678 -16.995,-1.1686 -9.257,-3.231399 -13.645,-13.418599 -16.99,-21.831399 -1.607,-4.0399 -4.872,-9.978802 -3.816,-14.455102 1.384,-5.8672 15.241,-8.9909 19.479,-5.1331 4.06,3.6965 3.987,12.572502 5.443,17.588202 2.74,9.4355 7.164,17.0919 12.879,24.999999 m 373,-39.000001 c -4.372,12.271402 -8.744,31.860502 -22.01,37.454202 -5.495,2.316799 -12.16,1.545799 -17.99,1.545799 6.496,-8.766999 11.313,-17.350699 14.034,-27.999999 1.128,-4.414702 1.169,-13.233602 5.726,-15.672902 5.865,-3.1394 15.09,2.0124 20.24,4.6729 m -271,-5 c -5.312,8.6108 -9.782,12.825102 -20,14.000002 1.788,-12.037202 8.844,-13.577902 20,-14.000002 m 149,14.000002 c -10.201,-1.1729 -14.796,-5.309302 -20,-14.000002 11.352,0.4296 17.886,2.0148 20,14.000002 m -30,68.999999 c 17.791,4.353 35.765,9.074 54,11.106 6.867,0.765 14.109,2.088 21,1.039 19.471,-2.964 37.475,-32.872 58.848,-16.375 2.603,2.009 4.38,4.511 6.152,7.23 l -1,1 -39,1 c 0.04,4.751 0.199,9.415 1.59,14 4.646,15.317 18.015,23.169 32.41,27.716 13.169,4.16 26.605,7.104 40,10.404 10.617,2.616 21.128,4.966 29.962,11.834 6.42,4.991 11.095,11.965 12.499,20.046 2.19,12.604 -1.203,25.954 7.269,36.962 3.65,4.741 8.587,8.5 14.27,10.417 7.819,2.637 16.545,2.884 20.2,11.666 3.218,7.734 0.488,15.951 1.034,23.955 1.171,17.171 13.211,36.188 31.766,37.738 9.944,0.831 19.559,-3.993 27,-10.229 6.449,-5.404 11.362,-11.908 20,-13.509 v 80 c 0,11.724 2.504,26.886 -1.706,37.998 -3.903,10.3 -13.55,16.274 -20.685,24.093 -5.674,6.219 -9.481,14.23 -15.609,19.909 -0.03,-31.707 -8.005,-64.092 -18.001,-94 -10.306,-30.837 -25.511,-60.266 -43.971,-87 -28.076,-40.661 -64.96,-75.818 -107.028,-101.767 -94.099,-58.046 -214.428,-69.119 -317,-27.187 -93.676,38.295 -168.915,115.575 -203.264,210.954 -6.758,18.767 -12.194,38.303 -15.412,58 -2.266,13.867 -2.531,28.294 -5.324,42 -5.129,-8.429 -10.265,-16.674 -17.29,-23.71 -6.122002,-6.131 -14.394202,-11.026 -17.909702,-19.291 -4.5637,-10.728 -1.8003,-26.531 -1.8003,-37.999 v -82 c 8.2436,1.64 12.8794,7.739 19.056002,12.923 7.73,6.489 17.557,11.766 27.944,10.794 18.538,-1.736 30.688,-20.407 31.775,-37.717 0.503,-8.01 -2.171,-16.23 1.025,-23.97 3.661,-8.865 12.312,-9.024 20.2,-11.647 5.406,-1.798 10.33,-5.042 13.847,-9.557 8.787,-11.282 5.47,-24.864 7.786,-37.826 1.519,-8.503 6.535,-15.736 13.402,-20.87 8.242,-6.162 18.176,-8.367 27.965,-10.764 14.064,-3.442 28.246,-6.467 42,-11.041 14.289,-4.753 27.635,-12.721 31.619,-28.325 5.079,-19.888 -25.568,-16.212 -37.619,-14 l -1,-1 c 1.776,-2.728 3.561,-5.241 6.152,-7.277 21.149,-16.613 39.563,13.559 58.848,16.427 7.48,1.112 15.556,-0.257 23,-1.22 17.512,-2.266 34.866,-6.741 52,-10.93 -8.643,-20.06 -5.829,-44.438599 7.181,-61.999199 3.75,-5.0619 10.076,-13.357402 16.815,-14.285302 4.771,-0.657 8.627,3.8893 12.276,6.238702 5.507,3.5467 12.146,5.6661 18.728,5.5465 6.447,-0.1171 12.642,-2.3137 18,-5.8277 3.518,-2.307602 7.397,-6.562702 12,-5.952102 7.029,0.9325 13.769,9.895202 17.489,15.279402 12.295,17.7935 14.991,41.033699 6.511,60.999699 m -255,-47.999999 -43,23.999999 c 0.906,-8.599 0.199,-20.009299 3.419,-27.995599 2.401,-5.9525 7.693,-10.6473 12.599,-14.5555 3.518,-2.8025 11.158,-9.458502 15.952,-6.056902 2.617,1.8564 3.571,5.769402 4.625,8.611202 1.999,5.3939 4.168,10.6981 6.405,15.9968 m 444,23.999999 -43,-23.999999 c 2.514,-5.9564 4.813,-11.9774 7.202,-17.9824 0.973,-2.4445 2.029,-5.807002 4.59,-7.056402 4.81,-2.3477 11.773,3.773102 15.198,6.487702 4.695,3.7199 9.627,8.0198 12.188,13.5603 3.717,8.0412 2.893,20.174799 3.822,28.990799 m -320,-39.999999 c -5.991,14.1923 -9.154,27.593999 -10,42.999999 -12.101,2.639 -27.79,7.386 -40,3.57 -11.953,-3.735 -20.67,-13.237 -33,-16.57 v -1 l 20,-12.999999 c 0.475,4.7913 1.302,9.726999 5.392,12.851999 3.099,2.368 6.862,2.592 10.608,2.444 8.047,-0.317 19.031,-0.267 25.717,-5.35 7.031,-5.346299 8.699,-15.790999 10.283,-23.945999 l 11,-2 m 216,16 20,12.999999 v 1 c -12.342,3.337 -21.013,12.896 -33,16.579 -12.223,3.756 -27.878,-0.961 -40,-3.579 -0.565,-15.305 -3.903,-29.001299 -10,-42.999999 3.958,0.4995 8.364,0.9012 10.696,4.6024 4.204,6.6745 3.297,15.0268 9.723,20.639599 6.572,5.74 18.286,5.799 26.581,6.234 3.764,0.197 7.531,-0.226 10.608,-2.611 4.077,-3.158 4.915,-8.053999 5.392,-12.864999 m -449,4 v 1 c -13.966,9.056999 -25.305,20.439999 -33.5,34.999999 -3.993,7.096 -7.534,15.677 -6.917,24 0.499,6.74 4.366,12.198 7.417,18 -11.522,-0.891 -28.175,-1.597 -35.398702,-12.215 -5.1041,-7.503 -1.9711,-15.47 1.665002,-22.785 7.1877,-14.459 18.4747,-32.114 32.7337,-40.456199 9.942,-5.8162 23.166,-2.7979 34,-2.5438 m 652,77.999999 c 2.937,-5.833 6.91,-11.287 7.416,-18 0.627,-8.318 -2.926,-16.91 -6.916,-24 -8.195,-14.56 -19.534,-25.943 -33.5,-34.999999 9.768,-2.6578 23.698,-3.6157 33,1.0792 11.993,6.052799 22.142,20.685799 28.934,31.920799 5.413,8.954 13.359,21.651 6.465,31.785 -7.224,10.618 -23.877,11.324 -35.399,12.215 m -531,-69 c -18.167,10.065 -36.605,19.248 -54,30.685 -46.609,30.643 -88.315,69.555 -120.387,115.315 -9.247,13.194 -17.736602,26.842 -25.423702,41 -3.4992,6.445 -7.7184,12.974 -9.9524,20 -3.8696,12.17 -1.2369,28.317 -1.2369,41 0,16.368 1,32.636 1,49 0,12.444 -1.2495,25.65 0.3519,38 2.191,16.897 19.2213,24.569 28.701102,37 12.374,16.228 14.719,35.19 14.543,55 -0.147,16.589 -9.452,34.234 -20.8134,45.854 -6.996602,7.157 -16.604702,12.5 -20.556502,22.146 -3.8408,9.375 -2.2261,21.088 -2.2261,31 v 60 c -15.3503,-22.296 -13,-47.339 -13,-73 0,-9.98 -1.6337,-21.946 3.8433,-30.854 4.2784,-6.959 12.1704,-11.161 18.1559,-16.478 12.1032,-10.75 21.354802,-24.022 21.940802,-40.668 0.666,-18.915 -4.337,-35.635 -17.292702,-49.747 -8.1809,-8.911 -21.2875,-15.235 -25.2934,-27.253 -2.1951,-6.586 -1.3539,-14.161 -1.3539,-21 v -38 -55 c 0,-9.227 -1.5117,-20.036 0.9388,-29 2.4903,-9.109 8.535,-17.912 13.2689,-26 9.2764,-15.849 19.1413,-31.167 29.974302,-46 33.599,-46.003 75.753,-85.196 123.818,-115.718 10.056,-6.386 20.457,-12.059 31,-17.586 4.142,-2.171 9.105,-6.007199 13.993,-5.849399 4.158,0.1342 7.239,3.446399 10.007,6.153399 m 588,586 h -1 v -60 c 0,-9.946 1.501,-21.559 -2.26,-31 -3.848,-9.659 -13.554,-15.017 -20.523,-22.146 -11.162,-11.417 -20.305,-28.584 -20.729,-44.854 -0.524,-20.062 1.947,-39.592 14.459,-56 9.48,-12.431 26.51,-20.103 28.701,-37 1.601,-12.35 0.352,-25.556 0.352,-38 0,-16.364 1,-32.632 1,-49 0,-12.683 2.633,-28.829 -1.237,-41 -2.448,-7.7 -7.086,-14.971 -10.987,-22 -8.056,-14.516 -16.892,-28.535 -26.609,-42 -31.815,-44.085 -71.857,-81.688 -117.167,-111.656 -17.704,-11.708 -36.479,-21.084 -55,-31.344 2.748,-2.765 5.813,-6.047199 10.007,-6.161799 4.895,-0.1338 9.842,3.681799 13.993,5.857799 10.204,5.349 20.217,10.9 30,16.998 48.264,30.081 90.42,69.505 124.086,115.306 11.34,15.427 21.671,31.403 31.206,48 4.518,7.864 10.357,16.175 12.769,25 2.451,8.964 0.939,19.773 0.939,29 v 55 38 c 0,6.84 0.841,14.414 -1.354,21 -4.027,12.082 -17.194,18.376 -25.473,27.253 -12.243,13.125 -17.297,29.031 -17.163,46.747 0.133,17.507 8.264,31.154 20.992,42.768 6.474,5.908 15.253,10.484 19.64,18.326 5.179,9.257 3.358,21.71 3.358,31.906 0,13.541 1.865,28.657 -0.561,42 -1.822,10.02 -7.39,19.734 -11.439,29 m -127,-563 c 6.919,-4.501 12.98,-9.637 18.278,-16.002 2.839,-3.409 5.725,-9.297 10.101,-10.921 5.059,-1.877799 13.847,4.36 12.351,9.979 -1.011,3.802 -4.859,6.908 -7.743,9.311 -8.948,7.457 -21.633,12.386 -32.987,7.633 m -544,0 c -11.996,4.606 -23.495,-0.165 -32.996,-7.813 -3,-2.414 -6.94,-5.408 -8.283,-9.173 -2.107,-5.909 6.089,-10.488 11.049,-8.7 4.681,1.688 8.015,7.229 11.329,10.678 5.672,5.903 11.706,11.074 18.901,15.008 m -1,7 -34,28 c -3.473,-17.942 -18.489,-19.229 -33,-25 2.501,-6.937 6.27,-13.517 11.347,-18.916 1.96,-2.083 4.513,-4.715 7.6,-4.742 6.166,-0.055 13.191,10.371 18.071,13.71 9.303,6.364 19.058,7.334 29.982,6.948 m 612,3 c -14.512,5.771 -29.527,7.058 -33,25 l -34,-28 c 10.884,0.584 20.76,-0.584 29.967,-6.951 4.915,-3.398 11.763,-13.807 18.071,-13.716 3.057,0.044 5.495,2.666 7.401,4.751 5.04,5.513 9.026,11.905 11.561,18.916 m -554,-12 c -6.384,15.771 -7.154,32.668 5.276,45.887 3.977,4.229 8.761,7.201 13.724,10.113 v 1 c -9.378,1.884 -18.701,4.593 -28,6.88 -20.058,4.934 -40.812,9.694 -50.67,30.12 -6.653,13.784 -0.368,31.299 -9.791,43.723 -8.248,10.874 -24.315,7.015 -32.499,18.391 -6.212,8.635 -3.058,19.148 -3.11,28.886 -0.078,14.66 -9.175,29.326 -23.93,33.031 -22.344,5.611 -30.274,-19.82 -49.000002,-24.031 0.0656,-2.984 -0.1765,-6.656 1.7237,-9.184 3.9286,-5.227 13.1164,-1.201 16.967302,2.027 9.635,8.079 13.297,24.961 29.304,18.435 2.076,-0.847 4.052,-1.963 5.824,-3.339 2.451,-1.903 4.484,-4.28 6.016,-6.977 4.332,-7.627 2.012,-14.824 1.382,-22.962 -0.563,-7.279 0.499,-14.594 4.486,-20.844 4.554,-7.14 11.661,-10.742 19.297,-13.719 6.952,-2.71 15.455,-6.267 17.193,-14.442 3.955,-18.611 -23.565,-23.076 -22.755,-40.994 0.53,-11.732 13.662,-20.245 21.562,-27.342 22.942,-20.609 49.074,-41.21 77,-54.659 m 430,0 c 25.625,15.491 50.541,31.979 73,51.897 7.817,6.932 19.961,14.917 23.581,25.105 7.27,20.458 -23.004,25.134 -22.098,43.993 0.399,8.297 7.647,12.466 14.518,15.273 8.919,3.643 17.758,7.062 22.87,15.832 8.282,14.211 -2.577,30.459 5.874,43.833 1.663,2.633 3.819,4.902 6.368,6.691 1.81,1.27 3.807,2.291 5.889,3.034 15.451,5.514 19.03,-11.036 28.307,-18.815 3.851,-3.228 13.039,-7.254 16.967,-2.027 1.9,2.528 1.658,6.2 1.724,9.184 -18.726,4.212 -26.656,29.642 -49,24.031 -14.754,-3.705 -23.852,-18.372 -23.93,-33.031 -0.052,-9.738 3.102,-20.251 -3.11,-28.886 -8.184,-11.376 -24.251,-7.517 -32.499,-18.391 -9.551,-12.593 -3.329,-30.699 -10.296,-44.723 -9.942,-20.009 -31.436,-24.553 -51.165,-29.366 -8.974,-2.189 -17.954,-4.816 -27,-6.634 4.26,-4.119 9.626,-6.718 13.724,-11.094 7.76,-8.286 11.354,-19.654 9.815,-30.906 -0.7,-5.125 -2.755,-9.906 -3.539,-15 m -549,20 c -0.828,1.146 -1.545,2.471 -2.733,3.314 -6.024,4.275 -8.519,-4.641 -1.305,-4.232 1.351,0.077 2.75,0.582 4.038,0.918 m 667,0 c 1.287,-0.336 2.687,-0.841 4.038,-0.918 7.214,-0.409 4.719,8.507 -1.305,4.232 -1.188,-0.843 -1.905,-2.168 -2.733,-3.314 m -513,2 c -2.923,9.411 -10.996,10.168 -15,1 l 15,-1 m 374,1 c -4.015,9.328 -12.063,8.548 -15,-1 l 15,1 m -538,8 c 8.127,1.208 12.29,-5.922 19.995,-5.584 8.724,0.382 12.574,10.342 7.59,17.109 -3.916,5.317 -11.809,5.884 -17.517,3.469 -2.658,-1.124 -4.924,-2.933 -6.612,-5.274 -2.113,-2.933 -2.876,-6.229 -3.456,-9.72 m 687,0 c -0.577,3.474 -1.334,6.739 -3.456,9.645 -1.697,2.323 -3.975,4.153 -6.612,5.302 -5.589,2.436 -13.668,1.923 -17.48,-3.394 -4.826,-6.733 -1.099,-16.758 7.551,-17.137 7.698,-0.338 11.839,6.79 19.997,5.584 m -362,3.452 c 42.678,-3.503 88.651,3.516 129,17.488 42.918,14.861 82.427,37.059 117,66.596 104.372,89.172 145.326,236.944 104.935,367.464 -13.511,43.658 -36.028,83.532 -64.666,119 -26.461,32.771 -60.543,60.529 -97.269,80.999 -44.282,24.682 -93.439,39.661 -144,43.727 -43.804,3.523 -89.094,-1.915 -131,-15.104 -42.029,-13.228 -80.525,-34.569 -115,-61.877 -28.19,-22.329 -53.157,-50.427 -72.448,-80.745 -66.68,-104.796 -73.87,-236.786 -18.26,-348 14.581,-29.162 34.193,-55.93 56.07,-80 21.916,-24.113 48.719,-44.696 76.638,-61.36 48.837,-29.151 102.702,-43.568 159,-48.188 m 344,18.548 -1,1 1,-1 m -485,474 c 5.906,3.325 15.524,6.446 19.662,11.938 2.13,2.828 1.963,6.824 3.182,10.053 2.39,6.329 7.109,9.611 13.156,12.009 -2.429,4.16 -4.587,9.352 -9.23,11.456 -9.103,4.127 -23.093,0.813 -30.594,8.887 -3.805,4.094 -2.425,12.836 1.505,16.339 4.182,3.725 10.452,5.539 15.319,8.249 8.779,4.887 17.123,10.709 25,16.936 15.574,12.311 29.416,26.629 42.897,41.142 7.793,8.389 14.643,18.179 24.136,24.77 13.195,9.163 29.11,13.672 44.967,14.947 11.085,0.892 23.222,-0.136 33.967,-3.073 3.881,-1.06 7.293,-3.271 11.169,-4.307 14.371,-3.842 29.412,-5.23 43.864,-9.261 11.565,-3.226 22.441,-9.066 34,-12.046 5.162,-1.331 9.921,0.643 15,1.398 8.81,1.31 19.403,0.241 25.022,-7.584 6.415,-8.934 1.713,-25.922 -0.243,-35.853 -4.161,-21.123 -14.574,-40.829 -36.779,-46.715 -8.997,-2.384 -19.461,-0.08 -28,-3.126 -5.994,-2.138 -11.275,-6.551 -17,-9.36 -9.802,-4.808 -20.255,-7.948 -31,-9.799 5.717,-12.472 10.623,-32.962 23.067,-40.38 4.821,-2.874 10.518,-2.633 15.933,-2.615 11.018,0.037 21.95,1.143 33,0.976 8.128,-0.122 17.61,-1.844 21.38,-10.094 4.178,-9.143 -1.792,-18.646 0.35,-27.887 2.344,-10.109 14.048,-14.736 5.27,-25 v -1 c 3.526,-2.448 7.536,-5.277 7.699,-10.021 0.206,-6.004 -5.488,-11.605 -2.646,-17.696 4.471,-9.586 20.147,-5.213 24.253,-16.353 3.189,-8.649 -4.71,-18.158 -9.037,-24.93 -9.013,-14.106 -17.743,-30.519 -21.269,-47 24.386,-0.009 49.613,-4.333 73,-11.166 8.508,-2.486 22.967,-8.088 17.065,-19.754 -4.815,-9.517 -15.255,-7.078 -22.738,-12.222 -8.355,-5.745 -14.46,-15.554 -22.327,-22.154 -6.859,-5.753 -17.975,-10.92 -22.373,-18.935 -2.393,-4.361 -1.504,-9.986 -1.824,-14.769 -0.581,-8.661 -1.307,-17.49 -3.061,-26 -7.314,-35.494 -32.423,-67.718 -68.742,-77 l 5,-10 -20,-6 c 2.189,-4.851 4.725,-11.9 10.176,-13.927 6.251,-2.325 15.972,3.83 21.824,5.927 l 18,-33 c -101.6,-47.877 -235.471,-10.129 -297.233,84 -25.133,38.306 -36.091,83.494 -34.711,129 0.703,23.209 6.211,46.377 14.416,68 7.056,18.598 16.27,36.3 23.072,55 9.408,25.859 13.453,53.551 13.456,81 10e-4,8.97 0.608,18.142 -1,27 m 275,-441 c -2.929,5.772 -7.834,19.315 -14.475,21.426 -3.409,1.083 -7.382,-1.022 -10.525,-2.138 -6.884,-2.444 -13.9,-4.756 -21,-6.482 -21.587,-5.247 -42.834,-7.143 -65,-5.607 -63.051,4.368 -124.623,36.458 -158.428,90.801 -17.017,27.356 -28.116,59.62 -29.482,92 -1.086,25.723 4.265,52.641 12.254,77 6.349,19.356 15.023,37.841 21.92,57 8.826,24.518 14.976,50 16.924,76 1.139,15.206 2.426,32.245 -2.188,47 -5.709,-1.51 -15.786,-4.413 -18.182,-10.487 -1.583,-4.012 -0.818,-9.288 -0.818,-13.513 0,-9.63 0.446,-19.388 -0.197,-29 -1.783,-26.644 -8.057,-52.34 -18.261,-77 -7.061,-17.065 -15.855,-33.399 -21.523,-51 -12.524,-38.889 -14.416,-80.447 -3.834,-120 7.115,-26.595 18.661,-51.755 34.971,-74 42.626,-58.139 114.219,-87.893 184.844,-90.055 31.322,-0.959 64.808,3.432 93,18.055 m -436,5 1,22 h 9 c -1.109,5.774 -2.404,11.493 4,14 -3.69,6.169 -11.494,8.309 -16.9,12.824 -11.584,9.675 -15.406,22.672 -13.1,37.176 -4.867,-0.749 -11.037,0.917 -15.547,-0.583 -8.085,-2.689 -9.843,-17.336 -10.453,-24.417 l 8,3 1,-31 8,4 6,-21 6,4 c 2.022,-8.325 5.676,-15.267 13,-20 m 654,20 6,-4 6,21 8,-4 1,31 8,-3 c -0.797,7.101 -2.283,21.7 -10.453,24.417 -4.51,1.5 -10.68,-0.166 -15.547,0.583 2.307,-14.504 -1.516,-27.502 -13.1,-37.176 -5.406,-4.515 -13.21,-6.655 -16.9,-12.824 6.435,-2.52 4.982,-8.21 4,-14 h 9 l 1,-22 c 7.324,4.733 10.978,11.675 13,20 m -257,-5 -9.221,15.834 -17.779,5.959 -23,15.207 c 1.444,-10.165 6.842,-17.303 16,-22 -9.545,-7.302 -15.103,-5.934 -26,-3.253 -5.476,1.347 -10.77,0.607 -16,3.194 -5.527,2.735 -11.829,5.788 -16.869,9.327 -3.188,2.239 -5.398,5.766 -8.776,7.703 -3.339,1.914 -7.637,2.136 -11.355,2.793 -20.442,3.609 -40.82,10.05 -59,20.167 -13.088,7.282 -24.525,16.326 -34.942,27.071 -21.347,22.017 -35.083,53.226 -35.951,83.998 -0.487,17.283 3.241,35.287 7.286,52 14.489,59.88 42.607,116.331 42.607,179 h 6 c -2.612,8.807 -9.029,14.787 -17,19 1.493,-8.223 1.005,-16.672 1,-25 -0.015,-25.315 -4.578,-51.054 -12.759,-75 -13.353,-39.08 -33.355,-75.301 -37.874,-117 -2.157,-19.901 -1.087,-39.439 3.322,-59 4.607,-20.442 12.117,-40.074 23.049,-58 46.742,-76.643 143.414,-104.392 227.262,-82 m -378,21 1,-6 h -6 c 0.853,-6.645 1.732,-13.074 -6,-15 v -4 c 9.046,3.423 24.519,17.112 11,25 m 614,-25 v 4 c -7.732,1.926 -6.853,8.355 -6,15 h -6 l 1,6 c -13.732,-8.002 2.055,-21.365 11,-25 m -281,19 c -4.05,5.401 -9.406,11.012 -10.291,18 -0.975,7.688 4.615,14.635 9.409,19.982 9.11,10.16 19.958,19.503 25.882,32.018 h 2 c -1.128,-11.072 -12.344,-16.042 -14.893,-25.991 -0.954,-3.726 1.707,-6.871 4.239,-9.254 5.82,-5.474 12.836,-8.016 20.654,-8.755 l 2,-13 -7.927,7.503 -10.074,4.814 -13.999,12.683 c -11.406,-7.826 -4.316,-15.883 5,-21.863 12.603,-8.09 26.018,-8.448 40,-4.137 -1.201,3.785 -3.57,7.934 -3.083,12.001 0.553,4.619 3.904,8.954 5.988,12.999 3.076,5.971 5.639,12.461 7.225,19 0.925,3.817 0.955,13.559 -5.647,12.206 -3.414,-0.699 -5.028,-6.024 -7.186,-8.352 -4.328,-4.668 -10.149,-8.164 -15.297,-11.854 -0.396,4.005 -0.945,8.015 -0.084,12.001 1.989,9.206 9.404,15.33 14.21,22.999 1.913,3.054 3.322,11.46 7.229,12.459 5.026,1.284 9.754,-9.099 14.701,-10.451 5.417,-1.48 9.628,2.623 13.141,6.116 6.791,6.751 12.247,12.924 15.803,21.876 l -10,1 c -0.549,-10.248 -7.986,-14.008 -16,-19 l -13,19 v 1 l 26.018,26.844 20.982,17.156 -15.122,-5.531 -43.742,-28.401 -13.145,2.134 -24.991,4.798 c -0.013,-5.854 0.053,-11.63 -2.639,-16.998 -8.352,-16.657 -30.87,-23.51 -47.361,-15.607 -16.54,7.926 -25.736,26.092 -28,43.605 -2.128,-0.886 -4.117,-1.756 -6.014,-3.093 -1.199,-0.845 -2.459,-1.776 -3.43,-2.885 -7.443,-8.505 7.19,-13.96 11.502,-20.045 3.664,-5.171 5.875,-14.495 -0.468,-18.721 -7.19,-4.792 -16.082,5.367 -21.042,9.44 -13.221,10.857 -32.194,11.381 -40.548,-5.696 6.857,0.701 14.028,-0.14 19.965,-3.902 10.856,-6.879 18.719,-23.238 34.017,-15.973 2.399,1.14 4.603,2.705 6.539,4.518 2.31,2.163 3.915,4.64 5.479,7.357 6.163,-7.686 10.737,-14.297 21,-16 l 3,-11 c -5.671,-3.282 -10.726,-7.803 -9.862,-15.001 0.45,-3.748 2.547,-7.154 2.344,-10.999 -0.378,-7.169 -5.931,-13.469 -3.544,-20.953 1.823,-5.715 7.33,-7.592 12.063,-10.301 3.309,-1.894 6.335,-4.366 9.999,-5.57 3.568,-1.172 7.362,-0.753 11,-1.544 5.641,-1.226 10.104,-3.052 16,-2.632 m -393,14 1,12 -8,-1 3.246,21 8.959,17 -0.205,16 c -5.519,-5.179 -8.508,-12.449 -14.212,-17.358 -4.8393,-4.166 -10.599902,-5.356 -16.788002,-5.642 5.7805,-14.55 15.744002,-30.191 26.000002,-42 m 724,0 25,42 c -6.601,0.312 -12.708,1.835 -17.676,6.494 -5.215,4.892 -7.976,11.637 -13.324,16.506 l 0.109,-17 8.637,-16 3.254,-21 -8,1 2,-12 m -387,9 1,7 c -17.884,1.993 -35.569,7.349 -52,14.591 -13.159,5.799 -25.391,14.002 -35.991,23.699 -8.193,7.497 -15.136,16.278 -20.967,25.71 -7.061,11.422 -12.577,23.865 -15.554,37 -4.663,20.578 -1.882,41.665 2.625,62 7.55,34.063 21.36,66.24 29.887,100 25.575,-8.146 46.694,-23.594 67,-40.774 6.017,-5.09 12.064,-10.165 18,-15.348 4.924,-4.3 9.195,-8.655 16,-8.878 -16.381,21.299 -36.628,37.816 -59,52.645 -12.027,7.972 -25.519,16.193 -40,18.355 l 9.325,46 2.302,20.046 7.39,2.023 15.983,-0.069 64,6 c 0,-10.646 0.353,-21.362 -0.089,-32 -0.743,-17.847 -2.329,-34.9 4.089,-52 l 10,11 c -3.431,12.999 -5.601,24.435 -4.864,38 0.807,14.835 4.547,30.216 1.864,45 -35.198,-6.889 -72.321,-7.957 -108,-6 -0.134,-64.758 -32.807,-123.723 -45.755,-186 -9.522,-45.802 -0.435,-94.796 35.492,-127.332 10.993,-9.955 23.724,-18.153 37.263,-24.202 18.919,-8.452 39.39,-14.172 60,-16.466 m 112,1 c 33.583,12.51 55.949,38.941 62.949,74 1.696,8.493 2.601,17.349 2.962,26 0.21,5.039 -0.832,11.157 1.716,15.745 4.015,7.228 14.006,11.808 20.373,16.744 11.818,9.161 23.338,20.425 29,34.511 -49.382,15.271 -106.003,13.686 -156,2.314 -5.737,-1.305 -17.695,-2.089 -21.373,-7.183 -2.159,-2.992 -1.669,-7.682 -1.317,-11.131 0.982,-9.623 5.305,-18.338 9.321,-26.988 1.836,-3.954 3.412,-7.96 7.642,-9.841 7.343,-3.266 16.014,-2.723 23.727,-4.608 4.262,-1.042 8.524,-3.505 13,-2.284 11.225,3.063 20.241,13.14 29,20.089 3.983,3.16 8.481,5.224 12.808,7.818 2.831,1.697 5.306,4.426 8.479,5.47 6.371,2.097 16.328,-1.259 22.713,-2.656 l -40.038,-33.018 -10.866,-14.979 4.904,-11.003 c 7.267,4.477 8.36,9.883 9,18 l 23,-3 c -4.337,-13.054 -10.64,-21.002 -20.274,-30.611 -3.923,-3.913 -8.708,-8.878 -14.727,-8.65 -5.754,0.218 -10.632,5.018 -14.999,8.261 l -17,-27 c 5.588,3.492 7.54,10.542 13.151,13.577 6.482,3.506 14.954,-4.292 15.811,-10.595 1.934,-14.235 -11.399,-25.752 -12.962,-38.982 m -101,45 -16,15 c -6.64,-3.714 -12.946,-9.171 -21,-8.834 -12.709,0.531 -18.949,12.373 -29,18.077 -8.905,5.054 -18.432,3.087 -28,1.757 7.507,15.78 24.847,33.376 44,24.608 9.658,-4.421 15.995,-13.611 26,-17.608 1.014,5.838 0.176,11.005 -4.377,15.215 -5.458,5.049 -13.372,6.676 -13.24,15.618 0.114,7.685 10.418,11.197 15.006,16.047 4.064,4.297 4.517,10.57 5.611,16.12 -2.933,-0.763 -5.945,-1.686 -9.013,-1.488 -2.489,0.161 -4.817,1.023 -6.848,2.468 -12.103,8.613 -5.062,21.698 -0.139,32.02 0.997,-2.326 1.901,-4.758 3.19,-6.943 3.629,-6.15 10.398,-7.728 14.274,-0.873 2.699,4.774 3.14,10.621 4.659,15.816 1.809,6.191 4.753,11.926 6.877,18 l -35,27 c -1.726,-9.193 -5.646,-16.194 -15,-19 l 2,9 c -4.417,-0.628 -8.641,-1.232 -13,0.106 -3.988,1.224 -9.12,5.059 -13.447,3.348 -4.067,-1.608 -2.922,-6.998 -0.003,-9.118 3.394,-2.464 7.105,-0.895 10.45,0.664 -1.2,-9.78 -6.621,-10.831 -12.729,-17.034 -6.294,-6.393 -8.453,-11.212 -18.271,-11.966 2.233,5.529 4.22,10.931 3.499,17 -1.181,9.951 -6.518,19.786 -3.637,29.995 0.489,1.733 1.236,3.379 2.271,4.858 7.136,10.189 16.31,3.615 25.591,7.066 8.704,3.237 -0.887,10.259 -4.732,12.536 -2.272,1.346 -4.611,2.59 -6.991,3.736 -3.906,1.882 -7.728,3.127 -12.001,3.809 -3.364,-16.641 -10.371,-32.884 -15.656,-49 -13.842,-42.215 -25.478,-86.328 -6.854,-129 4.26,-9.762 10.007,-18.932 16.967,-27 8.656,-10.032 19.087,-18.238 30.543,-24.838 14.602,-8.412 30.633,-14 47,-17.864 4.654,-1.099 12.66,-4.152 17.265,-1.977 6.517,3.078 0.844,12.671 0.923,17.678 0.101,6.383 4.322,11 8.812,15.001 m -404.000002,96 -6,-3 -2,4 -9.3439,-13.945 -9.3229,-11.144 -1.3332,-19.911 9,6 -2,-35 8,6 c 0,-10.779 -0.327,-21.871 4.0299,-31.991 0.9264,-2.152 5.0859,-10.62 8.4581,-6.843 1.7449,1.954 0.9129,5.509 0.7495,7.838 -0.4429,6.31 -0.2375,12.674 -0.2375,18.996 v 79 m 848.000002,-67 8,-6 -2,36 9,-7 -1.31,19.911 -9.346,11.144 -9.344,13.945 -2,-4 -6,3 v -79 c 0,-6.322 0.205,-12.686 -0.237,-18.996 -0.164,-2.329 -0.996,-5.884 0.749,-7.838 3.372,-3.777 7.532,4.691 8.458,6.843 4.357,10.12 4.03,21.212 4.03,31.991 m -782,-17 c 0.123,-3.349 0.42,-6.66 0.745,-9.994 0.269,-2.76 0.172,-6.369 2.43,-8.381 3.078,-2.744 9.76,-1.922 11.513,2.028 1.329,2.995 -0.341,6.629 -2.1,9.065 -1.279,1.771 -2.9,3.256 -4.743,4.421 -2.434,1.539 -5.079,2.22 -7.845,2.861 m 703,0 c -2.766,-0.641 -5.411,-1.322 -7.845,-2.861 -1.843,-1.165 -3.464,-2.65 -4.743,-4.421 -1.759,-2.436 -3.429,-6.07 -2.1,-9.065 1.85,-4.168 9.23,-4.903 12.063,-1.453 1.513,1.842 1.547,4.514 1.754,6.768 0.336,3.676 0.688,7.345 0.871,11.032 m -331,105 -6,-2 c -0.415,-5.819 -4.653,-10.459 -4.946,-16 -0.267,-5.035 3.807,-10.258 5.225,-15 2.286,-7.641 3.539,-17.764 -0.797,-24.919 -8.14,-13.434 -24.371,-7.11 -29.805,4.929 -3.381,7.493 -3.735,16.065 -1.849,23.99 1.019,4.281 3.585,8.547 3.613,13 0.039,6.497 -4.319,11.357 -1.238,17.977 4.713,10.123 29.735,13.344 21.371,26.947 -0.801,1.304 -1.873,2.506 -2.985,3.549 -7.033,6.603 -17.712,5.906 -22.833,-2.561 -5.492,-9.083 -3.956,-21.024 -10.147,-29.773 -3.647,-5.153 -9.503,-8.037 -15.377,-4.653 -2.041,1.175 -3.598,2.858 -5.232,4.514 -2.817,-6.822 -1.383,-17.412 8.025,-17.265 6.419,0.1 12.616,4.145 17.975,7.265 -2,-6.334 -5.124,-12.448 -6.345,-19 -2.657,-14.252 0.99,-29.406 9.646,-40.965 12.843,-17.15 45.214,-22.298 55.473,0.984 5.932,13.463 -3.519,27.857 -8.607,39.981 -3.99,9.51 -5.157,18.773 -5.167,29 m -21.991,-60.175 c 6.543,-1.549 11.615,2.916 12.637,9.196 1.489,9.155 -0.584,28.553 -11.748,31.028 -7.845,1.74 -10.749,-4.417 -12.085,-11.05 -2.033,-10.097 -1.195,-26.24 11.196,-29.174 m 126.991,12.175 v 1 l 25,1 -1,-7 -24,5 m -550.000002,40 2,-6 h 2 c 4.9809,10.706 1.1028,21.918 3.7964,33 1.9564,8.049 8.0436,13.912 14.2036,19 l -2,5 -7,-3 c -2.2081,10.124 -3.8765,19.662 -2,30 l -5,-3 -1,10 -3,-1 -5,4 -16.0001,-16.257 -15.7432,-8.832 -4.2567,-13.911 8,4 -9,-32 7,3 -2,-26 h 1 l 4,5 9,-31 21,28 m 870.000002,-28 9,31 4,-5 h 1 l -2,25 7,-3 -10,33 9,-4 -4.257,13.934 -16.743,9.486 -15,15.58 -5,-5 -3,2 -1,-10 -4,3 -3,-30 -8,3 -1,-5 c 6.206,-4.993 12.257,-10.992 14.204,-19 2.693,-11.082 -1.185,-22.294 3.796,-33 h 2 l 2,6 c 7.664,-9.545 10.127,-20.945 21,-28 m -446.007,22.225 c 13.033,0.63 12.079,20.675 -0.991,20.229 -13.184,-0.451 -12.026,-20.858 0.991,-20.229 m 6.007,24.775 c 2.752,-2.18 5.699,-5.161 9.278,-5.837 5.716,-1.079 13.16,2.35 18.722,3.612 13.302,3.018 26.537,5.759 40,7.973 31.61,5.198 64.259,7.042 96,1.926 14.406,-2.322 27.83,-7.776 42,-10.674 l -2,-8 c 5.627,0.779 20.072,6.131 11.354,13.573 -4.018,3.43 -10.387,4.306 -15.354,5.551 -11.592,2.907 -23.199,5.179 -35,7.04 -38.32,6.042 -78.629,7.614 -117,1.081 -16.099,-2.741 -34.543,-6.52 -48,-16.245 m 21,15 -11,20 h -2 l -8,-6 10,-17 11,3 m -134,2 4,13 h 11 v 1 c -9.029,2.723 -17.927,16.68 -4.91,21.511 5.485,2.036 10.754,-2.202 15.91,-3.432 5.177,-1.236 9.445,0.654 14,2.921 l 2,-8 c 10.783,11.625 -3.33,22.802 -14,27 -2.745,-4.161 -5.826,-7.111 -11.003,-7.709 -5.737,-0.663 -12.382,1.941 -17.507,-1.725 -3.942,-2.82 -4.476,-8.099 -4.309,-12.566 0.404,-10.782 4.193,-21.128 4.819,-32 m 169,6 c -4.282,13.594 -25.129,34.568 -5,44 v 2 c -8.768,-0.145 -15.341,-2.932 -23,-7 0.258,10.483 2.912,18.084 12,24 v 2 c -14.099,4.391 -24.382,-3.049 -28.078,-17 -3.747,-14.144 -1.188,-28.664 6.466,-41 2.196,-3.54 4.507,-8.349 8.172,-10.594 3.176,-1.946 7.045,-0.88 10.441,-0.214 6.336,1.243 12.748,2.184 18.999,3.808 m 72,2 c 4.511,16.79 12.125,33.272 21.315,48 3.556,5.7 11.611,14.277 8.348,21.628 -4.17,9.392 -19.802,5.916 -24.544,16.283 -3.047,6.662 2.594,12.518 1.43,19.05 -1.841,10.331 -21.762,8.006 -29.549,8.039 v 1 c 6.548,1.719 20.442,0.535 24.523,6.805 3.179,4.883 -4.071,11.814 -5.778,16.195 -4.472,11.48 7.847,28.145 -6.826,34.882 -20.618,9.466 -49.5,-9.852 -66.609,8.255 -6.747,7.14 -10.206,16.9 -13.803,25.863 -3.581,8.926 -7.781,17.853 -10.736,27 -2.415,7.476 -2.246,14.893 5.229,19 l -2,-10 c 16.751,5.252 31.673,11.996 43,26 -19.828,0 -39.37,0.143 -59,3.325 -8.097,1.313 -21.101,6.935 -28.982,3.854 -4.301,-1.681 -7.752,-5.592 -11.215,-8.52 -5.73,-4.843 -11.7,-9.419 -17.803,-13.782 -8.073,-5.77 -16.343,-11.344 -25,-16.202 -5.925,-3.325 -13.4,-6.19 -18.369,-10.891 -4.78,-4.521 -2.56,-9.848 2.369,-12.784 6.701,9.725 14.684,14.955 26,18 l -1,-14 16.002,11.412 18.998,3.588 -5,-13 c 8.958,6.836 16.484,11.522 28,12 l -4,-13 c 10.467,6.361 20.035,13.87 29.865,1.841 1.98,-2.424 3.535,-5.163 5.135,-7.841 -7.992,-0.536 -14.88,-6.171 -10.177,-14.768 4.4,-8.044 14.067,-11.37 17.898,-20.234 2.755,-6.375 0.523,-12.566 -0.721,-18.998 9.182,-5.921 12.822,-13.26 13,-24 -4.363,2.843 -12.409,8.346 -15.425,0.776 -3.798,-9.53 10.666,-19.788 14.202,-27.776 3.405,-7.695 3.884,-16.081 0.963,-24 -1.57,-4.258 -5.998,-9.091 -5.696,-13.77 0.294,-4.546 5.762,-9.311 7.956,-13.23 -8.141,1.257 -13.741,-1.99 -16,-10 3.841,1.335 7.878,3.122 12.001,3.228 8.896,0.228 13.73,-7.741 15.999,-15.228 -1.691,0.822 -3.294,1.684 -5.137,2.126 -5.69,1.367 -10.994,-1.82 -9.782,-8.143 1.269,-6.618 6.893,-12.113 9.923,-17.982 1.647,-3.188 2.669,-8.171 5.907,-10.177 4.773,-2.956 13.811,-0.246 19.089,0.04 15.28,0.827 30.703,0.136 46,0.136 m -46,12 c 9.66,8.485 25.677,12.163 38,15 l -3,-3 8,-19 -43,7 m -485.000002,89 c 0,-11.066 -0.5412,-19.74 -5,-30 l -4,5 h -1 l -6,-33 5,4 1,-35 7,3 2,-8 c 33.792002,20.812 33.357002,72.437 1,94 m 445.000002,43 c -2.916,5.812 -6.975,8.762 -13,11 1.563,7.044 4.562,15.064 1.087,21.991 -5.541,11.043 -26.178,18.413 -16.525,33.698 1.417,2.244 3.36,3.733 5.438,5.311 -7.85,13.061 -19.892,-0.701 -27,-7 l -4,16 c -9.014,-2.731 -14.618,-8.482 -20,-16 l -3,17 c -12.198,-1.395 -18.612,-10.123 -26,-19 l -6,17 c -8.219,-3.954 -12.945,-9.432 -16,-18 -7.106,3.47 -12.273,6.909 -14,15 -7.657,-2.025 -14.296,-6.861 -22,-8.621 -5.691,-1.3 -11.86,0.48 -16.021,-4.728 -10.809,-13.528 10.36,-27.114 17.603,-35.659 3.196,-3.77 5.333,-10.519 10.341,-12.192 9.736,-3.251 23.043,-0.479 33.077,0.064 23.39,1.265 47.057,1.692 70,7.136 0.412,-11.175 0.633,-21.809 -0.27,-33 -1.419,-17.594 -4.358,-36.131 2.27,-53 7.745,0.639 18.551,-5.365 13,-14 -1.002,1.658 -1.931,3.324 -3.232,4.777 -7.713,8.608 -14.137,-1.53 -18.862,-7.642 -7.723,-9.988 -16.833,-20.718 -16.694,-34.135 0.15,-14.305 20.308,-31.808 31.915,-16.651 3.47,4.533 1.591,10.482 1.155,15.651 -0.603,7.132 0.046,14.325 2.745,21 2.543,6.289 6.452,12.027 11.996,16.035 4.277,3.092 9.43,3.826 13.864,6.48 6.986,4.18 10.838,13.571 10.739,21.485 -0.092,7.379 -3.199,14.213 -7.592,20 -3.725,4.907 -9.206,9.626 -10.264,16 -1.6,9.646 6.776,14.849 15.23,14 m 351,-137 2,8 7,-3 c 1.857,11.673 2.117,24.349 0,36 l 6,-5 -6,33 h -1 l -4,-5 c -4.459,10.26 -5,18.934 -5,30 -31.8,-22.073 -33.274,-72.891 1,-94 m -279,4 -1,11 -18,-7 19,-4 m -119,49 1,-1 c -5.666,-9.595 -14.812,-22.333 -5.483,-32.665 2.4,-2.658 5.464,-4.483 8.483,-6.335 l -2,-4 c -4.091,1.91 -8.152,3.937 -11.172,7.406 -10.256,11.78 -0.498,28.087 9.172,36.594 m -422.000002,-10 c 7.8805,10.502 8.8989,25.269 9,38 l 6,-6 h 2 c 1.3333,7.346 1.8666,16.01 -1.2711,23 -3.4358,7.654 -9.3209,12.315 -10.7289,21 l -23,-13 1,8 c -6.0128,-2.075 -14.4447,-3.923 -19.3647,-8.019 -5.9438,-4.948 -7.97963,-13.798 -9.6353,-20.981 l 10,3 c -6.5197,-11.775 -10.67659,-23.444 -11,-37 l 8,8 c -1.0868,-14.003 -3.623,-26.58 2,-40 8.4265,2.479 15.0554,6.694 20.0283,14.066 2.7411,4.063 5.0018,11.969 9.6394,14.219 3.2799,1.591 5.6542,-2.109 7.3323,-4.285 m 880.000002,-24 c 5.623,13.42 3.087,25.997 2,40 l 8,-8 c -0.196,13.549 -4.492,25.246 -11,37 l 10,-3 c -1.586,6.882 -3.426,15.222 -8.786,20.248 -4.87,4.567 -13.976,6.598 -20.214,8.752 l 1,-8 -23,13 c -1.408,-8.685 -7.293,-13.346 -10.729,-21 -3.138,-6.99 -2.604,-15.654 -1.271,-23 l 8,6 c 0.105,-13.272 2.133,-26.019 8,-38 h 1 l 6,9 c 4.131,-15.617 15.395,-28.411 31,-33 m -486,4 5.725,19 6.415,14 -4.933,26 0.793,56 -41,-4.803 -38,-0.197 c -0.019,-19.911 -3.875,-39.811 -9,-59 l 48,-26.433 32,-24.567 m -381.000002,17 1,1 -1,-1 m 533.000002,19 c -2.407,5.43 -4.742,19.01 5.879,16.674 4.253,-0.935 7.86,-5.021 11.121,-7.674 v -1 c -3.851,0.663 -11.375,4.69 -14.513,1.122 -1.999,-2.272 -1.85,-6.293 -2.487,-9.122 m -477,18 c 3.547,43.572 20.054,88.045 41.115,126 21.731,39.163 50.505,74.026 84.885,102.744 27.447,22.927 58.89,42.137 92,55.728 116.084,47.64904 252.934,29.466 351.803,-48.305 38.698,-30.441 70.813,-68.107 94.637,-111.167 20.878,-37.736 37.037,-81.729 40.56,-125 h 1 c 4.532,10.501 10.103,19.71 18.094,27.982 6.16,6.376 14.687,11.833 18.59,20.019 4.51,9.457 2.316,22.796 2.316,32.999 v 41 c 0,9.32 1.34,19.843 -0.541,29 -0.944,4.594 -3.523,8.772 -5.459,13 h -1 v -56 c 0,-9.786 1.08,-20.303 -0.335,-29.998 -1.719,-11.771 -14.751,-20.002 -25.62,-13.456 -9.92,5.974 -9.045,16.347 -9.045,26.454 0,12.253 0.751,24.79 -0.362,37 -1.052,11.536 -4.014,22.588 -5.638,34 h -1 c -0.406,-5.344 0.136,-10.901 -1.936,-15.977 -3.235,-7.923 -12.394,-12.401 -19.839,-6.95 -7.544,5.525 -6.231,14.716 -6.225,22.928 v 37.999 c 0,5.622 1.059,12.77 -2.039,17.779 -3.654,5.909 -11.031,4.449 -16.961,5.433 -8.069,1.339 -15.457,4.851 -21.995,9.722 -5.871,4.373 -11.12,9.552 -15.842,15.13 -3.439,4.062 -6.507,9.109 -11.395,11.575 -6.136,3.096 -14.034,3.88 -20.768,4.761 -4.229,0.553 -8.914,0.558 -12.311,3.503 -5.191,4.499 -7.583,12.531 -11.549,18.095 -10.797,15.151 -26.069,27.994 -45.14,30.002 1.11,-3.913 2.224,-7.929 1.196,-11.999 -2.355,-9.326 -13.033,-15.092 -22.196,-13.483 -7.37,1.293 -12.673,6.795 -17,12.482 -6.19,-2.274 -12.513,-3.921 -18.999,-1.651 -8.521,2.983 -16.986,13.224 -13.907,22.64804 1.533,4.693 5.226,7.963 8.906,11.003 v 1 c -18.306,6.878 -36.634,6.708 -55,0 -1.932,10.326 -4.699,19.928 -12.434,27.528 -16.508,16.219 -45.12,14.498 -59.507,-3.628 -5.612,-7.071 -7.457,-15.239 -9.059,-23.9 -18.368,6.709 -36.698,6.876 -55,0 v -1 c 3.684,-3.043 7.365,-6.31 8.908,-11.003 3.101,-9.42804 -5.299,-19.79404 -13.909,-22.73404 -6.463,-2.207 -12.847,-0.523 -18.999,1.737 -4.516,-5.46 -9.666,-11.185 -17,-12.482 -9.161,-1.619 -19.842,4.165 -22.196,13.483 -1.028,4.07 0.086,8.086 1.196,11.999 -18.576,-1.956 -33.807,-14.253 -44.393,-29.004 -4.101,-5.714 -6.809,-13.312 -11.621,-18.376 -3.45,-3.63 -8.365,-3.519 -12.986,-4.124 -6.698,-0.876 -14.675,-1.783 -20.768,-4.857 -7.232,-3.649 -12.217,-12.714 -17.79,-18.432 -12.231,-12.55 -27.701,-20.281 -45.442,-18.207 -5.666,-8.687 -5,-16.974 -5,-27 v -32 c 0.001,-5.709 1.139,-12.742 -1.011,-18.159 -3.955,-9.962 -16.34,-12.287 -22.949,-3.614 -4.31,5.655 -4.026,13.033 -4.04,19.773 h -1 c -1.785,-11.397 -4.587,-22.471 -5.638,-34 -1.023,-11.228 -0.362,-22.734 -0.362,-34 0,-10.008 1.711,-21.277 -7.139,-28.233 -10.234,-8.043 -25.170702,-1.117 -27.409502,11.234 -1.7331,9.56 -0.4515,20.304 -0.4515,29.999 v 57 h -1 c -1.9363,-4.228 -4.5145,-8.406 -5.4587,-13 -1.8817,-9.157 -0.5413,-19.68 -0.5413,-29 v -41 c 0,-10.245 -2.1476,-23.468 2.2977,-32.991 4.3931,-9.41 14.643102,-15.447 21.444302,-23.011 6.822,-7.588 10.644,-16.649 16.258,-24.998 m -81.000002,48 v -9 c 5.9193,2.651 12.129,6.775 14.7307,13.01 3.0938,7.413 1.2693,18.094 1.2693,25.99 v 54 c -10.731,-5.678 -20.2079,-12.808 -27,-23 l 6,-1 c -7.5679,-9.97 -15.9553,-19.572 -19,-32 l 9,3 c -7.8565,-14.869 -14.5547,-27.372 -18,-44 12.3335,1.802 23.3001,4.863 33,13 m 900.000002,-13 c -3.297,16.639 -10.17,29.181 -18,44 l 9,-3 c -3.045,12.428 -11.432,22.03 -19,32 l 6,1 c -6.713,10.073 -16.17,17.698 -27,23 v -54 c 0,-7.896 -1.825,-18.577 1.269,-25.99 2.602,-6.234 8.812,-10.359 14.731,-13.01 v 9 c 9.7,-8.137 20.667,-11.198 33,-13 m -835,50 h -2 c -3.212,13.591 -2.357,28.17 -1.272,42 1.867,23.784 5.446,44.682 14.272,67 -5.346,0.121 -14.342,4.148 -18.9852,0.371 -4.470202,-3.637 -2.014802,-17.167 -2.014802,-22.371 v -65 c 0,-9.295 -1.3698,-19.834 0.4094,-28.977 0.8717,-4.479 4.023602,-8.189 8.613602,-9.117 16.41,-3.318 12.977,22.949 12.977,32.094 0,13.728 -0.353,27.375 1.633,41 4.604,31.581 18.895,61.272 40.546,84.696 16.672,18.037 38.578,31.351 61.821,38.959 6.24,2.042 12.532,3.486 19,4.59 4.024,0.686 8.88,0.828 12.514,2.839 5.367,2.971 8.176,11.052 11.577,15.916 6.173,8.828 13.911,16.836 22.909,22.807 10.585,7.02504 33.037,17.68704 44.648,7.49004 1.189,-1.045 7.36,-10.11004 2.109,-9.51204 -4.026,0.458 -7.716,7.87704 -11.149,1.8 -0.449,-0.796 -0.569,-1.771 -0.704,-2.654 -0.192,-1.252 0.019,-2.652 0.379,-3.853 2.905,-9.686 16.919,-10.025 22.487,-2.724 8.328,10.918 -0.521,26.19204 -10.807,31.78104 -11.162,6.065 -24.58,4.042 -35.963,-0.311 -15.545,-5.944 -28.987,-16.81804 -39.22,-29.83304 -4.787,-6.089 -7.948,-16.14 -14.267,-20.64 -6.154,-4.383 -17.244,-4.079 -24.513,-6.008 -14.135,-3.751 -27.804,-9.671 -40,-17.768 -35.259,-23.411 -62.264,-61.47 -69.505,-103.575 -2.371,-13.785 -3.824,-28.027 -4.406,-42 -0.402,-9.669 0.648,-19.433 -1.089,-29 m 726,109 c 8.824,-22.312 12.388,-43.217 14.271,-67 1.095,-13.827 1.94,-28.413 -1.271,-42 h -2 c -1.737,9.567 -0.687,19.331 -1.089,29 -0.688,16.514 -2.162,33.92 -6.074,50 -11.241,46.206 -44.801,88.138 -88.837,106.838 -13.66,5.801 -29.987,11.177 -45,10.162 -9.961,28.356 -40.481,56.98804 -72,56.93204 -13.807,-0.025 -27.784,-8.288 -29.593,-22.93204 -0.584,-4.725 0.226,-9.825 3.501,-13.469 6.981,-7.769 24.642,-4.089 22.046,8.332 -1.222,5.845 -5.356,3.916 -8.817,1.451 -1.087,-0.774 -3.227,-2.49 -4.451,-0.953 -2.376,2.986 2.434,8.05804 4.539,9.64604 6.827,5.152 17.238,2.982 24.775,0.75 15.72,-4.65304 28.856,-14.98904 38.89,-27.75704 4.462,-5.677 7.837,-15.34 13.797,-19.429 4.829,-3.312 12.7,-3.136 18.313,-4.219 9.252,-1.785 18.343,-4.816 27,-8.517 36.902,-15.777 66.356,-47.394 80.524,-84.835 10.407,-27.501 10.473,-55.064 10.476,-84 10e-4,-8.234 -0.98,-23.187 11.015,-23.326 15.291,-0.178 10.985,24.76 10.985,34.326 v 68 c 0,5.495 2.487,19.451 -2.175,23.371 -4.504,3.786 -13.587,-0.253 -18.825,-0.371 m -768.000002,-68 c 6.629,16.519 16.5714,31.598 23.217,48 2.5061,6.185 3.3154,15.678 -1.217,21 l -28,-55 5,2 1,-16 m 822.000002,1 v 15 l 5,-2 -28,55 c -3.959,-4.648 -3.68,-12.267 -2.277,-18 1.905,-7.779 7.382,-14.929 11.006,-22 4.696,-9.163 8.044,-19.779 14.271,-28 m -572,31 c 6.062,-2.753 12.408,-4.414 19,-5.353 4.096,-0.584 8.987,-0.126 12.669,-2.273 5.53,-3.224 6.677,-13.673 13.641,-14.297 9.054,-0.81 21.689,6.604 29.69,10.292 28.101,12.951 54.16,31.8 75.996,53.635 13.093,13.094 26.229,28.257 32.474,45.996 1.69,4.801 4.984,14.387 1.813,19.114 -2.087,3.112 -6.938,3.383 -10.284,3.874 -9.43,1.383 -19.494,1.571 -28.999,0.796 -28.59,-2.331 -48.685,-24.277 -67.136,-43.784 -12.089,-12.78 -25.039,-24.862 -38.864,-35.749 -7.618,-5.999 -15.593,-11.208 -24,-16.027 -8.02,-4.597 -14.69,-6.256 -16,-16.224 m 195,-4 4,-13 c 10.704,2.147 21.2,5.42 31,10.295 6.239,3.104 12.243,8.181 19,10.01 5.122,1.386 10.751,0.518 16,0.977 12.225,1.068 23.369,5.122 31.436,14.756 10.099,12.061 13.077,28.796 14.866,43.962 0.662,5.618 2.052,13.49 -1.668,18.349 -4.125,5.388 -12.601,4.971 -18.634,4.341 -4.919,-0.513 -10.511,-1.693 -14.386,-4.972 -4.017,-3.401 -5.473,-9.076 -7.541,-13.718 -3.662,-8.219 -7.791,-16.361 -12.55,-24 -14.399,-23.114 -34.603,-40.796 -61.523,-47 m -356,54 c -6.122,-7.07 -12.463,-16.713 -14.365,-26 -1.445,-7.058 -0.637,-14.83 -0.635,-22 0.002,-6.091 -0.683,-20.378 9.753,-16.932 6.36,2.1 5.243,10.693 5.247,15.932 v 49 m 644,0 c -1.564,-6.146 -1,-12.7 -1,-19 l 0.002,-32 c 0.019,-5.419 -0.285,-13.742 7.039,-14.285 9.191,-0.681 7.957,11.357 7.959,17.285 0.002,7.463 0.935,15.7 -0.86,23 -2.218,9.022 -8.348,17.187 -13.14,25 m -224,7 c -17.872,0 -35.533,1.553 -53,5.462 -6.803,1.523 -18.819,7.798 -25.572,5.189 -4.015,-1.551 -6.508,-6.41 -8.982,-9.654 -4.963,-6.506 -11.151,-12.016 -15.446,-18.997 21.164,-5.091 42.298,-7 64,-7 7.372,0 17.969,-1.705 24.463,2.538 6.856,4.478 11.273,15.239 14.537,22.462 m -482.428802,-14.389 c 3.46,-1.179 7.868002,1.018 11.428802,1.1 3.86,0.089 8.713,-2.326 12.405,-1.004 5.126,1.835 0.272,7.207 -2.565,8.385 -5.718,2.375 -13.9003,2.071 -19.577802,-0.322 -3.0667,-1.292 -6.5833,-6.494 -1.691,-8.159 m 771.428802,-0.611 c -1.269,11.284 -17.919,13.779 -26.574,8.22 -2.473,-1.588 -4.81,-6.088 -0.831,-7.513 4.458,-1.596 10.546,1.443 15.404,0.732 4.126,-0.603 7.79,-1.595 12.001,-1.439 m -738,8 c 18.95,28.31 40.923,51.531 72,66.576 9.175,4.442 19.166,8.078 29,10.757 5.41,1.474 12.688,1.801 17.318,5.148 7.013,5.072 10.83,16.061 16.838,22.518 17.619,18.93604 39.661,31.38304 65.844,32.00104 v 1 c -5.951,4.313 -13.375,11.627 -21,12.37 -5.837,0.568 -11.996,-3.623 -17,-6.121 -11.934,-5.956 -23.484,-12.395 -35,-19.121 -41.705,-24.35804 -80.653,-56.34104 -111.981,-93.12804 -7.508,-8.816 -11.961,-19.089 -19.019,-28 v -1 l 3,-3 m 702,0 2,3 v 1 c -7.058,8.911 -11.511,19.184 -19.019,28 -31.324,36.783 -70.28,68.772 -111.981,93.12804 -11.514,6.725 -23.056,13.184 -35,19.119 -4.976,2.473 -11.216,6.586 -17,6.089 -7.605,-0.655 -15.081,-8.046 -21,-12.336 v -1 c 26.299,-0.974 48.092,-12.734 65.783,-32.00104 3.709,-4.039 7.108,-8.355 10.034,-12.996 2.04,-3.235 3.69,-7.211 6.87,-9.522 5.585,-4.057 14.803,-4.249 21.313,-6.32 13.688,-4.353 26.584,-10.003 39,-17.228 15.116,-8.795 28.99,-20.73 40.216,-34.13 6.662,-7.954 11.759,-17.191 18.784,-24.803 m -734.950602,7.492 c 3.2195,-0.623 6.711002,0.272 9.950602,0.407 4.857,0.203 11.254,-1.496 15.7,0.913 9.599,5.204 -0.754,12.105 -6.701,13.362 -6.881,1.454 -16.518902,1.712 -22.638202,-2.299 -5.8645,-3.843 -2.3645,-11.212 3.6886,-12.383 m 767.859602,0.225 c 7.152,2.176 7.487,10.093 0.966,13.104 -7.157,3.304 -17.55,2.948 -24.838,0.236 -6.056,-2.253 -9.66,-9.512 -1.854,-12.652 4.414,-1.775 10.159,-0.311 14.817,-0.506 3.516,-0.146 7.462,-1.232 10.909,-0.182 m -273.909,26.283 c -24.88,12.095 -51.222,16.501 -78,22 l -10,-31 c 18.594,-5.327 36.695,-9.599 56,-11.263 6.269,-0.54 16.673,-2.827 22.275,0.89 5.357,3.554 7.607,13.624 9.725,19.373 m -372,13 c -14.441,-4.224 -31.83,-13.881 -41,-26 17.226,2.538 31.815,10.787 41,26 m 564,-26 c -9.323,12.322 -26.488,21.376 -41,26 9.185,-15.214 23.774,-23.462 41,-26 m -654,3 c 5.079,12.031 8.896,23.875 9.801,37 0.593,8.607 0.151,14.988 -8.801,18 -0.02,-9.695 -0.803,-19.471 -2.65,-29 -1.147,-5.916 -2.33,-10.774 -8.35,-13 l 4.998,36 -1.624,13.412 -10.374,4.588 c -0.289,-12.34 -0.854,-24.636 -1.017,-36.999 -0.029,-2.209 0.525,-11.37 -3.125,-11.47 -3.73,-0.103 -2.8521,9.359 -2.8568,11.469 l -0.001,37 c -12.585802,-1.37 -13.602602,-9.768 -12.727602,-21 0.8721,-11.195 2.851,-21.959 4.7276,-33 -5.4729,2.119 -6.5878,6.578 -7.7419,12.001 -2.1072,9.901 -2.2214,19.968 -3.2581,29.999 -8.3694,-3.045 -8.0889,-8.999 -7.9819,-17 0.1792,-13.402 3.9408,-26.116 9.9819,-38 15.2739,6.638 25.551002,4.855 41.000002,0 m 744,0 c 5.872,12.058 9.801,24.477 9.982,38 0.107,8.001 0.387,13.955 -7.982,17 -1.037,-10.031 -1.151,-20.098 -3.258,-29.999 -1.154,-5.423 -2.269,-9.882 -7.742,-12.001 l 4.863,35 -2.292,15.077 -10.571,3.923 -10e-4,-37 c -0.005,-2.245 0.929,-10.566 -2.36,-11.197 -3.712,-0.712 -3.583,8.278 -3.618,10.197 -0.231,12.687 -0.724,25.334 -1.021,38 l -10.374,-4.588 -1.624,-13.412 4.998,-36 c -6.02,2.226 -7.203,7.084 -8.35,13 -1.847,9.529 -2.63,19.305 -2.65,29 -8.952,-3.012 -9.394,-9.392 -8.801,-18 0.905,-13.125 4.722,-24.969 9.801,-37 l 26,5.087 15,-5.087 m -733,9 c 11.455,11.905 22.04,24.452 34,35.91 19.459,18.645 40.713,35.286 63,50.39204 13.442,9.112 27.63,17.038 42,24.569 7.197,3.772 16.141,6.379 22,12.129 -4.796,1.202 -9.993,3.229 -15,2.846 -4.287,-0.327 -8.215,-2.684 -12,-4.532 -7.482,-3.652 -14.805,-7.578 -22,-11.767 -31.262,-18.204 -59.584,-40.52304 -86.136,-64.99504 -13.573,-12.509 -25.926,-24.861 -25.864,-44.552 m 682,0 c -1.899,7.284 -2.786,16.431 -6.482,23 -5.711,10.152 -17.046,18.386 -25.518,26.179 -22.6,20.787 -46.89,39.33604 -73,55.51004 -8.801,5.451 -17.816,10.5 -27,15.277 -4.576,2.379 -9.749,5.58 -15,5.98 -4.993,0.38 -10.218,-1.744 -15,-2.946 l 29,-15.78 45,-27.797 55,-45.45604 33,-33.967 m -444.0002,90.00004 c -0.765,-2.139 -1.765,-13.59 -5.582,-11.279 -9.619,5.825 4.49,18.631 9.592,21.3 16.404,8.584 34.326,8.764 51.99,4.979 3.784,8.95 7.763,17.033 15.061,23.724 17.815,16.332 45.055,15.92 62.901,-0.075 7.396,-6.628 11.249,-14.686 15.038,-23.649 17.606,3.773 35.667,3.517 51.998,-4.979 5.492,-2.857 11.333,-7.453 12.2,-14.015 0.328,-2.489 -0.096,-6.611 -2.747,-7.833 -3.686,-1.699 -4.686,9.689 -5.451,11.827 -2.605,-1.447 -5.098,-2.864 -6.873,-5.35 -4.718,-6.608 -0.388,-15.35504 6.898,-17.73504 6.332,-2.068 13.567,0.88 17.123,6.363 8.929,13.76604 0.431,31.38204 -12.181,39.13804 -8.925,5.488 -19.562,8.033 -29.967,8.493 -5.958,0.263 -14.047,-1.409 -19.555,1.266 -6.768,3.289 -10.716,13.27 -16.482,18.246 -16.86,14.548 -39.824,18.986 -60.963,12.369 -9.559,-2.992 -18.829,-8.585 -25.632,-15.969 -4.046,-4.392 -7.31,-11.973 -12.813,-14.646 -5.776,-2.804 -14.3,-0.947 -20.555,-1.316 -12.325,-0.726 -25.422,-4.424 -34.733,-12.863 -11,-9.971 -16.373,-39.51904 4.738,-41.66304 8.253,-0.838 17.427,6.764 14.29,15.58604 -1.417,3.987 -4.79,6.134 -8.295,8.081 m -27,6 c 2.11,4.336 7.669,10.744 7.13,15.695 -0.708,6.497 -11.402,12.809 -16.13,16.338 -18.259,13.627 -38.913,21.923 -61,26.967 3.129,-7.748 4.305,-13.847 2,-22 14.413,-3.527 27.49,-7.795 40,-16.069 9.796,-6.479 17.55,-15.455 28,-20.931 m 327,37 c -2.509,8.081 -1.107,14.307 2,22 -31.22,-7.147 -56.364,-21.523 -80,-43 v -1 l 10,-15 c 10.451,5.476 18.204,14.452 28,20.931 12.522,8.282 25.565,12.591 40,16.069 m -63,0 c -11.438,2.619 -22.573,6.401 -34,9.086 -12.553,2.95 -25.82,4.677 -35.723,13.771 -12.538,11.515 -11.433,33.21296 2.897,42.85796 7.809,5.255 16.788,5.281 25.826,5.285 -7.658,7.72997 -17.571,13.03997 -27,18.32997 -5.847,3.27 -12.667,6.3 -16.676,11.91 -5.561,7.79 -1.879,17.64 6.691,21.31 4.481,1.91 9.348,1.29 13.985,0.45 -9.363,15.07 -27.655,20.6 -42,9 h -1 c -15.16,18.66 -39.84,18.66 -55,0 h -1 c -14.145,11.75 -32.754,5.88 -42,-9 4.64,0.84 9.503,1.46 13.988,-0.45 8.951,-3.82 12.208,-13.63 6.244,-21.47 -3.913,-5.15 -9.771,-8.1 -15.232,-11.29 -9.659,-5.64 -20.056,-10.78 -28,-18.78997 9.157,0 18.06,-0.084 25.933,-5.469 14.47,-9.898 14.959,-31.16796 2.629,-42.89596 -9.361,-8.904 -22.51,-10.53 -34.562,-13.316 -11.776,-2.723 -23.227,-6.623 -35,-9.319 3.995,-5.101 11.78,-14.461 18.358,-15.79 5.653,-1.141 13.353,4.831 18.642,6.608 10.63,3.571 20.976,3.365 31.935,4.305 9.634,0.826 16.151,13.542 23.066,19.392 11.362,9.612 26.175,14.784 40.999,15.314 17.247,0.617 34.152,-6.381 46.909,-17.716 5.119,-4.549 9.019,-11.924 14.796,-15.486 6.177,-3.808 17.195,-1.547 24.295,-2.662 6.545,-1.027 12.933,-2.808 19,-5.483 3.616,-1.594 7.859,-4.816 12,-4.313 7.023,0.853 14.629,10.772 19,15.831 m -341.953,3.252 c 9.706,-1.726 7.137,16.046 -0.985,17.496 -9.42,1.681 -6.965,-16.082 0.985,-17.496 m 412.34,0.183 c 8.173,-2.828 14.123,14.092 6.058,17.037 -8.243,3.009 -14.357,-14.166 -6.058,-17.037 m -52.387,8.565 c -18.806,4.75 -37,11.676 -56,15.75 -7.758,1.664 -17.249,3.367 -19.838,12.27 -2.348,8.07596 6.264,14.98496 13.829,12.94796 7.291,-1.963 11.489,-8.851 15.009,-14.96796 l 14,4.99996 c -3.054,8.041 -8.052,15.205 -16.005,19.012 -15.174,7.264 -39.553,3.61 -41.637,-16.012 -3.071,-28.93196 36.754,-30.62496 56.642,-35.91396 12.644,-3.363 23.7,-9.541 34,1.914 m -272,30.99996 14,-4.99996 c 3.379,6.17196 7.766,13.01796 15.009,14.96796 7.565,2.037 16.177,-4.872 13.829,-12.94796 -2.573,-8.848 -12.105,-10.67 -19.838,-12.364 -18.986,-4.158 -37.191,-10.905 -56,-15.656 10.176,-11.289 21.54,-5.228 34,-1.914 19.845,5.278 59.773,6.995 56.639,35.91396 -2.125,19.614 -26.478,23.268 -41.634,16.012 -7.953,-3.807 -12.951,-10.971 -16.005,-19.012 m 18,-9.99996 c 3.347,0.373 6.713,0.763 10,1.519 1.972,0.453 3.98,1.004 5.7,2.113 4.347,2.802 5.49,9.60496 -0.824,10.66596 -3.896,0.654 -7.341,-1.696 -9.722,-4.551 -2.399,-2.87796 -3.812,-6.29596 -5.154,-9.74696 m 203,0 c -1.135,3.128 -2.348,6.165 -4.354,8.861 -2.391,3.21296 -6.178,6.37896 -10.484,5.62696 -6.212,-1.085 -5.187,-8.07696 -0.857,-10.82196 1.72,-1.09 3.734,-1.6 5.695,-2.051 3.296,-0.757 6.646,-1.221 10,-1.615 m -102,21.99996 c -7.332,10.251 -15.288,16.526 -27,20.99997 7.274,11.7 13.835,19.76 15,34 l 25,-1 c 1.564,-13.93 7.566,-22.2 16,-33 -12.77,-4.02297 -19.97,-11.57497 -29,-20.99997 m 1,9 18,13.99997 -11,26 h -15 c -1.646,-10.3 -5.957,-17.64 -12,-26 z"
       style="fill:#1f1d1a;stroke:none" />
  </g>
</svg>
